<svg xmlns="http://www.w3.org/2000/svg" viewBox="0 0 68.06 98.93"><defs><style>.cls-1{fill:#b1c2cc;}.cls-2{fill:#ecf3fb;}.cls-3{fill:#a5b6c0;}.cls-4{fill:#707b81;}.cls-5{fill:#287eb9;}.cls-6{fill:#8f9ca4;}.cls-7{fill:#40444d;}</style></defs><g id="Laag_2" data-name="Laag 2"><g id="Laag_1-2" data-name="Laag 1"><path class="cls-1" d="M2.83,2.78H65.06a0,0,0,0,1,0,0v54.5a5.5,5.5,0,0,1-5.5,5.5H8.33a5.5,5.5,0,0,1-5.5-5.5V2.78A0,0,0,0,1,2.83,2.78Z"/><rect class="cls-2" x="13.33" y="2.78" width="10.27" height="60"/><rect class="cls-3" x="31.28" y="2.78" width="21.16" height="60"/><path class="cls-2" d="M10.6,2.78H8.06v60l.27,0H10.6Z"/><rect class="cls-4" x="8.06" y="62.78" width="51.78" height="2.22"/><rect class="cls-4" width="68.06" height="2.78" rx="1.28"/><path class="cls-4" d="M35.28,55V48.21a1.34,1.34,0,0,0-2.67,0V55a2.66,2.66,0,1,0,2.67,0Z"/><rect class="cls-5" x="20.92" y="49.5" width="15.69" height="2.67" rx="1.33"/><rect class="cls-6" x="0.83" y="13.67" width="66.22" height="2.97" rx="1.49"/><rect class="cls-6" x="0.83" y="41.08" width="66.22" height="2.97" rx="1.49"/></g><g id="Laag_3" data-name="Laag 3"><rect class="cls-7" x="9.28" y="85.94" width="49.33" height="10.39"/><path class="cls-4" d="M45.7,85.94V83.83c0-1.06-1.15-1.92-2.57-1.92H24.71c-1.42,0-2.57.86-2.57,1.92v2.11H17V82C17,79.8,19.39,78,22.28,78h23.4c2.9,0,5.24,1.76,5.24,3.92v4Z"/><rect class="cls-4" x="11.83" y="78.04" width="44.31" height="1.92" rx="0.96"/><rect class="cls-7" x="53.59" y="93.97" width="2.55" height="4.96" rx="1.28"/><rect class="cls-7" x="11.83" y="93.97" width="2.55" height="4.96" rx="1.28"/><circle class="cls-3" cx="33.94" cy="91.14" r="3.42"/><circle class="cls-7" cx="33.94" cy="91.14" r="2.02"/></g></g></svg>