<svg xmlns="http://www.w3.org/2000/svg" viewBox="0 0 498.53 123.28"><defs><style>.cls-1{fill:#9ca6a6;}.cls-2{fill:#edb832;}.cls-3{fill:#e9e0bc;}.cls-4{fill:#fff;opacity:0.2;}.cls-5{fill:#cc9a5b;}.cls-6{fill:#bd8c47;}.cls-7{fill:#a6b7c1;}.cls-8{fill:#bb7d40;}.cls-9{fill:#db9e34;}.cls-10{fill:#6a757b;}.cls-11{fill:#287eb9;}.cls-12{fill:#e9533a;}.cls-13{fill:#b1c2cc;}.cls-14,.cls-20,.cls-27,.cls-28,.cls-29{fill:#ecf3fb;}.cls-15{fill:#a5b6c0;}.cls-16{fill:#707b81;}.cls-17{fill:#8f9ca4;}.cls-18{fill:#40444d;}.cls-19{fill:#c99c5b;}.cls-20{opacity:0.5;}.cls-21{fill:#b3573e;}.cls-22{fill:#a04f3a;}.cls-23{fill:#d4dabe;}.cls-24{fill:#c2c8ac;}.cls-25{fill:#90aa9f;}.cls-26{fill:#92a6a4;}.cls-27{opacity:0.49;}.cls-28{opacity:0.25;}.cls-29{opacity:0.35;}.cls-30{fill:#aabfb8;}</style></defs><g id="Laag_2" data-name="Laag 2"><g id="Laag_15" data-name="Laag 15"><path class="cls-1" d="M468.31,118.28a1.05,1.05,0,0,1-1.06-1c0-2.24,1.91-3.74,1.91-10.66s-4.87-18.91-4.87-26.25a45.19,45.19,0,0,1,3-14.68h14.49a45.19,45.19,0,0,1,3,14.68c0,7.34-4.87,19.34-4.87,26.25s1.91,8.42,1.91,10.66a1.05,1.05,0,0,1-1.06,1Z"/><path class="cls-2" d="M483.7,80.32c0-5.84-2.12-12.77-2.81-14.68H468.1c-.69,1.91-2.81,8.84-2.81,14.68,0,3.6,1.25,8.51,2.45,13.25s2.42,9.47,2.42,13a33.13,33.13,0,0,1-.72,6.84,1,1,0,0,0,.94,1.24h8.23a1,1,0,0,0,.95-1.24,32,32,0,0,1-.73-6.84c0-3.53,1.18-8.13,2.42-13S483.7,83.92,483.7,80.32Z"/><path class="cls-3" d="M480.89,65.64h0a2,2,0,0,0-2-2h-8.78a2,2,0,0,0-2,2,55.87,55.87,0,0,0-2.62,11.42h18A55.87,55.87,0,0,0,480.89,65.64Z"/><path class="cls-4" d="M474.5,118.28h6.18a1.05,1.05,0,0,0,1.06-1c0-2.24-1.91-3.74-1.91-10.66s4.87-18.91,4.87-26.25a45.19,45.19,0,0,0-3-14.68H474.5Z"/><path class="cls-5" d="M178.16,23.88a2.54,2.54,0,0,0,0-3.59L158.61.74A2.54,2.54,0,1,0,155,4.34l19.54,19.54A2.54,2.54,0,0,0,178.16,23.88ZM155.86,1.67a1.49,1.49,0,1,1,0,2.11A1.5,1.5,0,0,1,155.86,1.67Z"/><path class="cls-6" d="M174.08,18.73h13a0,0,0,0,1,0,0V29.24a4.87,4.87,0,0,1-4.87,4.87H179a4.87,4.87,0,0,1-4.87-4.87V18.73a0,0,0,0,1,0,0Z" transform="translate(326.99 -82.61) rotate(135)"/><rect class="cls-5" x="180.44" y="31.47" width="13.04" height="2.61" transform="translate(342.34 -76.25) rotate(135)"/><rect class="cls-7" x="329.89" y="12.07" width="3.91" height="5.71"/><rect class="cls-8" x="308.36" y="10.74" width="3.39" height="31.92" rx="1.39" transform="translate(267.11 -281.53) rotate(77.15)"/><rect class="cls-8" x="308.36" y="17.11" width="3.39" height="31.92" rx="1.39" transform="translate(273.33 -276.58) rotate(77.15)"/><rect class="cls-8" x="308.36" y="23.47" width="3.39" height="31.92" rx="1.39" transform="translate(279.52 -271.64) rotate(77.15)"/><rect class="cls-8" x="308.36" y="29.84" width="3.39" height="31.92" rx="1.39" transform="translate(285.73 -266.68) rotate(77.15)"/><rect class="cls-8" x="308.36" y="36.21" width="3.39" height="31.92" rx="1.39" transform="translate(291.95 -261.73) rotate(77.15)"/><rect class="cls-8" x="308.36" y="42.58" width="3.39" height="31.92" rx="1.39" transform="translate(298.16 -256.78) rotate(77.15)"/><rect class="cls-8" x="308.36" y="48.97" width="3.39" height="31.92" rx="1.39" transform="translate(304.39 -251.8) rotate(77.15)"/><rect class="cls-8" x="308.36" y="55.32" width="3.39" height="31.92" rx="1.39" transform="translate(310.58 -246.87) rotate(77.15)"/><rect class="cls-9" x="308.36" y="7.55" width="3.39" height="31.92" rx="1.39" transform="translate(333.57 -286.55) rotate(90)"/><rect class="cls-9" x="308.36" y="13.92" width="3.39" height="31.92" rx="1.39" transform="translate(339.94 -280.18) rotate(90)"/><rect class="cls-9" x="308.36" y="20.29" width="3.39" height="31.92" rx="1.39" transform="translate(346.31 -273.81) rotate(90)"/><rect class="cls-9" x="308.36" y="26.66" width="3.39" height="31.92" rx="1.39" transform="translate(352.68 -267.44) rotate(90)"/><rect class="cls-9" x="308.36" y="33.03" width="3.39" height="31.92" rx="1.39" transform="translate(359.05 -261.07) rotate(90)"/><rect class="cls-9" x="308.36" y="39.41" width="3.39" height="31.92" rx="1.39" transform="translate(365.42 -254.7) rotate(90)"/><rect class="cls-9" x="308.36" y="45.78" width="3.39" height="31.92" rx="1.39" transform="translate(371.79 -248.33) rotate(90)"/><rect class="cls-9" x="308.36" y="52.15" width="3.39" height="31.92" rx="1.39" transform="translate(378.17 -241.96) rotate(90)"/><rect class="cls-9" x="312.13" y="54.75" width="3.39" height="39.46" rx="1.39" transform="translate(388.31 -239.36) rotate(90)"/><rect class="cls-9" x="330.16" y="15.57" width="3.39" height="60.6" rx="1.39" transform="translate(663.72 91.74) rotate(180)"/><rect class="cls-10" x="328.88" y="15.18" width="5.97" height="3.42" rx="1.4"/><rect class="cls-7" x="293.82" y="12.07" width="3.91" height="5.71"/><rect class="cls-9" x="294.1" y="15.57" width="3.39" height="9.64" rx="1.39" transform="translate(591.6 40.78) rotate(180)"/><rect class="cls-10" x="292.82" y="15.18" width="5.97" height="3.42" rx="1.4"/><path class="cls-11" d="M297.08,9.79a1.34,1.34,0,0,1-2.67,0,8,8,0,0,1,1.34-2.57A8,8,0,0,1,297.08,9.79Z"/><path class="cls-12" d="M333.17,9.79a1.33,1.33,0,1,1-2.66,0,8,8,0,0,1,1.33-2.57A8,8,0,0,1,333.17,9.79Z"/><path class="cls-13" d="M78.91,33.41h62.22a0,0,0,0,1,0,0v54.5a5.5,5.5,0,0,1-5.5,5.5H84.41a5.5,5.5,0,0,1-5.5-5.5V33.41A0,0,0,0,1,78.91,33.41Z"/><rect class="cls-14" x="89.41" y="33.41" width="10.27" height="60"/><rect class="cls-15" x="107.36" y="33.41" width="21.16" height="60"/><path class="cls-14" d="M86.68,33.41H84.13v60h2.55Z"/><rect class="cls-16" x="84.13" y="93.41" width="51.78" height="2.22"/><rect class="cls-16" x="76.08" y="30.64" width="68.06" height="2.78" rx="1.28"/><path class="cls-16" d="M111.36,85.64V78.85a1.34,1.34,0,1,0-2.67,0v6.79a2.66,2.66,0,1,0,2.67,0Z"/><rect class="cls-11" x="96.99" y="80.14" width="15.69" height="2.67" rx="1.33"/><rect class="cls-17" x="76.91" y="44.3" width="66.22" height="2.97" rx="1.49"/><rect class="cls-17" x="76.91" y="71.71" width="66.22" height="2.97" rx="1.49"/><path class="cls-11" d="M93.12,99.74a1.34,1.34,0,0,1-2.67,0,8,8,0,0,1,1.34-2.57A8,8,0,0,1,93.12,99.74Z"/><path class="cls-11" d="M95.73,99.74a1.34,1.34,0,0,1-2.67,0,8,8,0,0,1,1.34-2.57A8,8,0,0,1,95.73,99.74Z"/><path class="cls-11" d="M98.34,99.74a1.34,1.34,0,0,1-2.67,0A8,8,0,0,1,97,97.17,8,8,0,0,1,98.34,99.74Z"/><path class="cls-11" d="M101,99.74a1.34,1.34,0,0,1-2.67,0,8,8,0,0,1,1.34-2.57A8,8,0,0,1,101,99.74Z"/><path class="cls-11" d="M103.56,99.74a1.34,1.34,0,0,1-2.67,0,8,8,0,0,1,1.34-2.57A8,8,0,0,1,103.56,99.74Z"/><path class="cls-11" d="M106.17,99.74a1.34,1.34,0,0,1-2.67,0,8,8,0,0,1,1.34-2.57A8,8,0,0,1,106.17,99.74Z"/><path class="cls-11" d="M108.78,99.74a1.33,1.33,0,0,1-2.66,0,8,8,0,0,1,1.33-2.57A8,8,0,0,1,108.78,99.74Z"/><path class="cls-11" d="M111.39,99.74a1.33,1.33,0,1,1-2.66,0,8,8,0,0,1,1.33-2.57A8,8,0,0,1,111.39,99.74Z"/><path class="cls-11" d="M114,99.74a1.33,1.33,0,0,1-2.66,0,8,8,0,0,1,1.33-2.57A8,8,0,0,1,114,99.74Z"/><path class="cls-11" d="M116.61,99.74a1.33,1.33,0,1,1-2.66,0,8,8,0,0,1,1.33-2.57A8,8,0,0,1,116.61,99.74Z"/><path class="cls-11" d="M119.22,99.74a1.33,1.33,0,0,1-2.66,0,8,8,0,0,1,1.33-2.57A8,8,0,0,1,119.22,99.74Z"/><path class="cls-11" d="M121.83,99.74a1.33,1.33,0,1,1-2.66,0,8,8,0,0,1,1.33-2.57A8,8,0,0,1,121.83,99.74Z"/><path class="cls-11" d="M124.44,99.74a1.33,1.33,0,0,1-2.66,0,8,8,0,0,1,1.33-2.57A8,8,0,0,1,124.44,99.74Z"/><path class="cls-11" d="M127.05,99.74a1.33,1.33,0,1,1-2.66,0,8,8,0,0,1,1.33-2.57A8,8,0,0,1,127.05,99.74Z"/><path class="cls-11" d="M129.66,99.74a1.33,1.33,0,1,1-2.66,0,8,8,0,0,1,1.33-2.57A8,8,0,0,1,129.66,99.74Z"/><rect class="cls-18" x="85.36" y="110.3" width="49.33" height="10.39"/><path class="cls-16" d="M121.78,110.3v-2.11c0-1.07-1.15-1.93-2.57-1.93H100.79c-1.42,0-2.57.86-2.57,1.93v2.11h-5.1v-4c0-2.17,2.34-3.93,5.24-3.93h23.4c2.89,0,5.24,1.76,5.24,3.93v4Z"/><rect class="cls-16" x="87.9" y="102.39" width="44.31" height="1.92" rx="0.96"/><rect class="cls-18" x="129.66" y="118.32" width="2.55" height="4.96" rx="1.28"/><rect class="cls-18" x="87.9" y="118.32" width="2.55" height="4.96" rx="1.28"/><circle class="cls-15" cx="110.02" cy="115.49" r="3.42"/><circle class="cls-18" cx="110.02" cy="115.49" r="2.02"/><path class="cls-13" d="M156.66,33.41h62.22a0,0,0,0,1,0,0v54.5a5.5,5.5,0,0,1-5.5,5.5H162.16a5.5,5.5,0,0,1-5.5-5.5V33.41A0,0,0,0,1,156.66,33.41Z"/><rect class="cls-14" x="167.16" y="33.41" width="10.27" height="60"/><rect class="cls-15" x="185.11" y="33.41" width="21.16" height="60"/><path class="cls-14" d="M164.43,33.41h-2.55v60h2.55Z"/><rect class="cls-16" x="161.88" y="93.41" width="51.78" height="2.22"/><rect class="cls-16" x="153.82" y="30.64" width="68.06" height="2.78" rx="1.28"/><path class="cls-16" d="M189.1,85.64V78.85a1.34,1.34,0,1,0-2.67,0v6.79a2.67,2.67,0,1,0,2.67,0Z"/><rect class="cls-11" x="174.74" y="80.14" width="15.69" height="2.67" rx="1.33"/><rect class="cls-17" x="154.66" y="44.3" width="66.22" height="2.97" rx="1.49"/><rect class="cls-17" x="154.66" y="71.71" width="66.22" height="2.97" rx="1.49"/><path class="cls-11" d="M170.87,99.74a1.34,1.34,0,0,1-2.67,0,8,8,0,0,1,1.33-2.57A8,8,0,0,1,170.87,99.74Z"/><path class="cls-11" d="M173.48,99.74a1.34,1.34,0,0,1-2.67,0,8,8,0,0,1,1.33-2.57A8,8,0,0,1,173.48,99.74Z"/><path class="cls-11" d="M176.09,99.74a1.34,1.34,0,0,1-2.67,0,8,8,0,0,1,1.33-2.57A8,8,0,0,1,176.09,99.74Z"/><path class="cls-11" d="M178.7,99.74a1.34,1.34,0,0,1-2.67,0,8,8,0,0,1,1.33-2.57A8,8,0,0,1,178.7,99.74Z"/><path class="cls-11" d="M181.31,99.74a1.34,1.34,0,0,1-2.67,0A8,8,0,0,1,180,97.17,8,8,0,0,1,181.31,99.74Z"/><path class="cls-11" d="M183.92,99.74a1.34,1.34,0,0,1-2.67,0,8,8,0,0,1,1.33-2.57A8,8,0,0,1,183.92,99.74Z"/><path class="cls-11" d="M186.53,99.74a1.34,1.34,0,0,1-2.67,0,8,8,0,0,1,1.33-2.57A8,8,0,0,1,186.53,99.74Z"/><path class="cls-11" d="M189.14,99.74a1.34,1.34,0,0,1-2.67,0,8,8,0,0,1,1.33-2.57A8,8,0,0,1,189.14,99.74Z"/><path class="cls-11" d="M191.75,99.74a1.34,1.34,0,0,1-2.67,0,8,8,0,0,1,1.33-2.57A8,8,0,0,1,191.75,99.74Z"/><path class="cls-11" d="M194.36,99.74a1.34,1.34,0,0,1-2.67,0A8,8,0,0,1,193,97.17,8,8,0,0,1,194.36,99.74Z"/><path class="cls-11" d="M197,99.74a1.34,1.34,0,0,1-2.67,0,8,8,0,0,1,1.34-2.57A8,8,0,0,1,197,99.74Z"/><path class="cls-11" d="M199.58,99.74a1.34,1.34,0,0,1-2.67,0,8,8,0,0,1,1.34-2.57A8,8,0,0,1,199.58,99.74Z"/><path class="cls-11" d="M202.19,99.74a1.34,1.34,0,0,1-2.67,0,8,8,0,0,1,1.34-2.57A8,8,0,0,1,202.19,99.74Z"/><path class="cls-11" d="M204.8,99.74a1.34,1.34,0,0,1-2.67,0,8,8,0,0,1,1.34-2.57A8,8,0,0,1,204.8,99.74Z"/><path class="cls-11" d="M207.41,99.74a1.34,1.34,0,0,1-2.67,0,8,8,0,0,1,1.34-2.57A8,8,0,0,1,207.41,99.74Z"/><rect class="cls-18" x="163.1" y="110.3" width="49.33" height="10.39"/><path class="cls-16" d="M199.52,110.3v-2.11c0-1.07-1.15-1.93-2.57-1.93H178.53c-1.42,0-2.57.86-2.57,1.93v2.11h-5.09v-4c0-2.17,2.34-3.93,5.23-3.93h23.41c2.89,0,5.23,1.76,5.23,3.93v4Z"/><rect class="cls-16" x="165.65" y="102.39" width="44.31" height="1.92" rx="0.96"/><rect class="cls-18" x="207.41" y="118.32" width="2.55" height="4.96" rx="1.28"/><rect class="cls-18" x="165.65" y="118.32" width="2.55" height="4.96" rx="1.28"/><circle class="cls-15" cx="187.77" cy="115.49" r="3.42"/><circle class="cls-18" cx="187.77" cy="115.49" r="2.02"/><path class="cls-13" d="M282.15,33.41h62.22a0,0,0,0,1,0,0v54.5a5.5,5.5,0,0,1-5.5,5.5H287.65a5.5,5.5,0,0,1-5.5-5.5V33.41A0,0,0,0,1,282.15,33.41Z"/><rect class="cls-14" x="292.65" y="33.41" width="10.27" height="60"/><rect class="cls-15" x="310.6" y="33.41" width="21.16" height="60"/><path class="cls-14" d="M289.92,33.41h-2.55v60h2.55Z"/><rect class="cls-16" x="287.37" y="93.41" width="51.78" height="2.22"/><rect class="cls-16" x="279.31" y="30.64" width="68.06" height="2.78" rx="1.28"/><path class="cls-16" d="M314.59,85.64V78.85a1.33,1.33,0,1,0-2.66,0v6.79a2.66,2.66,0,1,0,2.66,0Z"/><rect class="cls-11" x="300.23" y="80.14" width="15.69" height="2.67" rx="1.33"/><rect class="cls-17" x="280.15" y="44.3" width="66.22" height="2.97" rx="1.49"/><rect class="cls-17" x="280.15" y="71.71" width="66.22" height="2.97" rx="1.49"/><path class="cls-11" d="M296.36,99.74a1.34,1.34,0,0,1-2.67,0A8,8,0,0,1,295,97.17,8,8,0,0,1,296.36,99.74Z"/><path class="cls-11" d="M299,99.74a1.34,1.34,0,0,1-2.67,0,8,8,0,0,1,1.33-2.57A8,8,0,0,1,299,99.74Z"/><path class="cls-11" d="M301.58,99.74a1.34,1.34,0,0,1-2.67,0,8,8,0,0,1,1.33-2.57A8,8,0,0,1,301.58,99.74Z"/><path class="cls-11" d="M304.19,99.74a1.34,1.34,0,0,1-2.67,0,8,8,0,0,1,1.33-2.57A8,8,0,0,1,304.19,99.74Z"/><path class="cls-11" d="M306.8,99.74a1.34,1.34,0,0,1-2.67,0,8,8,0,0,1,1.33-2.57A8,8,0,0,1,306.8,99.74Z"/><path class="cls-11" d="M309.41,99.74a1.34,1.34,0,0,1-2.67,0,8,8,0,0,1,1.33-2.57A8,8,0,0,1,309.41,99.74Z"/><path class="cls-11" d="M312,99.74a1.34,1.34,0,0,1-2.67,0,8,8,0,0,1,1.33-2.57A8,8,0,0,1,312,99.74Z"/><path class="cls-11" d="M314.63,99.74a1.34,1.34,0,0,1-2.67,0,8,8,0,0,1,1.34-2.57A8,8,0,0,1,314.63,99.74Z"/><path class="cls-11" d="M317.24,99.74a1.34,1.34,0,0,1-2.67,0,8,8,0,0,1,1.34-2.57A8,8,0,0,1,317.24,99.74Z"/><path class="cls-11" d="M319.85,99.74a1.34,1.34,0,0,1-2.67,0,8,8,0,0,1,1.34-2.57A8,8,0,0,1,319.85,99.74Z"/><path class="cls-11" d="M322.46,99.74a1.34,1.34,0,0,1-2.67,0,8,8,0,0,1,1.34-2.57A8,8,0,0,1,322.46,99.74Z"/><path class="cls-11" d="M325.07,99.74a1.34,1.34,0,0,1-2.67,0,8,8,0,0,1,1.34-2.57A8,8,0,0,1,325.07,99.74Z"/><path class="cls-11" d="M327.68,99.74a1.34,1.34,0,0,1-2.67,0,8,8,0,0,1,1.34-2.57A8,8,0,0,1,327.68,99.74Z"/><path class="cls-11" d="M330.29,99.74a1.34,1.34,0,0,1-2.67,0A8,8,0,0,1,329,97.17,8,8,0,0,1,330.29,99.74Z"/><path class="cls-11" d="M332.9,99.74a1.34,1.34,0,0,1-2.67,0,8,8,0,0,1,1.34-2.57A8,8,0,0,1,332.9,99.74Z"/><rect class="cls-18" x="288.59" y="110.3" width="49.33" height="10.39"/><path class="cls-16" d="M325,110.3v-2.11c0-1.07-1.15-1.93-2.57-1.93H304c-1.42,0-2.57.86-2.57,1.93v2.11h-5.09v-4c0-2.17,2.34-3.93,5.23-3.93H325c2.89,0,5.23,1.76,5.23,3.93v4Z"/><rect class="cls-16" x="291.14" y="102.39" width="44.31" height="1.92" rx="0.96"/><rect class="cls-18" x="332.9" y="118.32" width="2.55" height="4.96" rx="1.28"/><rect class="cls-18" x="291.14" y="118.32" width="2.55" height="4.96" rx="1.28"/><circle class="cls-15" cx="313.26" cy="115.49" r="3.42"/><circle class="cls-18" cx="313.26" cy="115.49" r="2.02"/><circle class="cls-19" cx="426.96" cy="81.35" r="2.4"/><circle class="cls-19" cx="422.23" cy="80.8" r="4.05"/><circle class="cls-19" cx="417.61" cy="81.92" r="1.83"/><path class="cls-19" d="M406.48,82h33.37a1.94,1.94,0,0,1,1.94,1.94v3.34a0,0,0,0,1,0,0H404.36a0,0,0,0,1,0,0V84.12A2.12,2.12,0,0,1,406.48,82Z"/><path class="cls-20" d="M441.79,87.27H404.22v-.13a9.08,9.08,0,0,1,9-9.23,6.82,6.82,0,0,0,7-6.81V63.84h5.56V71.1a6.79,6.79,0,0,0,6.78,6.81,9.2,9.2,0,0,1,9.23,9.19Z"/><rect class="cls-21" x="423" y="87.27" width="18.78" height="32.91"/><rect class="cls-22" x="404.36" y="87.27" width="18.73" height="32.91"/><path class="cls-15" d="M432.45,76.9h0A5.44,5.44,0,0,1,427,71.46V66.37h1.35a1.27,1.27,0,0,0,0-2.53H425.8V67.2h0v4.26a6.65,6.65,0,0,0,6.65,6.64,9,9,0,0,1,9,9v29a3.77,3.77,0,0,1-3.77,3.76H408.52a3.77,3.77,0,0,1-3.76-3.76V87.07a9,9,0,0,1,9-9,6.66,6.66,0,0,0,6.65-6.64V63.84h-2.55a1.27,1.27,0,0,0,0,2.53h1.35v5.09a5.44,5.44,0,0,1-5.45,5.44h0a10.17,10.17,0,0,0-10.17,10.17v31.25a5,5,0,0,0,5,5h29.13a5,5,0,0,0,5-5V87.07A10.18,10.18,0,0,0,432.45,76.9Z"/><rect class="cls-19" x="420.38" y="61.1" width="5.48" height="8.3"/><circle class="cls-19" cx="384.95" cy="81.35" r="2.4"/><circle class="cls-19" cx="380.23" cy="80.8" r="4.05"/><circle class="cls-19" cx="375.61" cy="81.92" r="1.83"/><path class="cls-19" d="M364.48,82h33.37a1.94,1.94,0,0,1,1.94,1.94v3.34a0,0,0,0,1,0,0H362.36a0,0,0,0,1,0,0V84.12A2.12,2.12,0,0,1,364.48,82Z"/><path class="cls-20" d="M399.79,87.27H362.22v-.13a9.08,9.08,0,0,1,9-9.23,6.82,6.82,0,0,0,7-6.81V63.84h5.56V71.1a6.79,6.79,0,0,0,6.78,6.81,9.21,9.21,0,0,1,9.23,9.19Z"/><rect class="cls-21" x="381" y="87.27" width="18.78" height="32.91"/><rect class="cls-22" x="362.36" y="87.27" width="18.73" height="32.91"/><path class="cls-15" d="M390.45,76.9h0A5.44,5.44,0,0,1,385,71.46V66.37h1.34a1.27,1.27,0,1,0,0-2.53H383.8V67.2h0v4.26a6.65,6.65,0,0,0,6.65,6.64,9,9,0,0,1,9,9v29a3.77,3.77,0,0,1-3.77,3.76H366.52a3.77,3.77,0,0,1-3.76-3.76V87.07a9,9,0,0,1,9-9,6.65,6.65,0,0,0,6.64-6.64V63.84h-2.54a1.27,1.27,0,1,0,0,2.53h1.34v5.09a5.43,5.43,0,0,1-5.44,5.44h0a10.17,10.17,0,0,0-10.17,10.17v31.25a5,5,0,0,0,5,5h29.13a5,5,0,0,0,5-5V87.07A10.18,10.18,0,0,0,390.45,76.9Z"/><rect class="cls-19" x="378.37" y="61.1" width="5.48" height="8.3"/><circle class="cls-19" cx="33.93" cy="56.08" r="0.34"/><circle class="cls-19" cx="33.93" cy="57.38" r="0.34"/><circle class="cls-19" cx="33.93" cy="58.68" r="0.34"/><circle class="cls-19" cx="32.61" cy="56.08" r="0.34"/><circle class="cls-19" cx="32.61" cy="57.38" r="0.34"/><circle class="cls-19" cx="32.61" cy="58.68" r="0.34"/><circle class="cls-19" cx="33.25" cy="56.77" r="0.34"/><circle class="cls-19" cx="33.25" cy="58.07" r="0.34"/><circle class="cls-19" cx="33.25" cy="59.37" r="0.34"/><circle class="cls-19" cx="33.93" cy="60.06" r="0.34"/><circle class="cls-19" cx="33.93" cy="61.36" r="0.34"/><circle class="cls-19" cx="33.93" cy="62.65" r="0.34"/><circle class="cls-19" cx="32.61" cy="60.06" r="0.34"/><circle class="cls-19" cx="32.61" cy="61.36" r="0.34"/><circle class="cls-19" cx="32.61" cy="62.65" r="0.34"/><circle class="cls-19" cx="33.25" cy="60.75" r="0.34"/><circle class="cls-19" cx="33.25" cy="62.05" r="0.34"/><circle class="cls-19" cx="33.25" cy="63.34" r="0.34"/><circle class="cls-19" cx="33.93" cy="64.03" r="0.34"/><circle class="cls-19" cx="33.93" cy="65.33" r="0.34"/><circle class="cls-19" cx="33.93" cy="66.63" r="0.34"/><circle class="cls-19" cx="32.61" cy="64.03" r="0.34"/><circle class="cls-19" cx="32.61" cy="65.33" r="0.34"/><circle class="cls-19" cx="33.25" cy="64.72" r="0.34"/><circle class="cls-19" cx="33.25" cy="66.02" r="0.34"/><circle class="cls-19" cx="31.27" cy="56.08" r="0.34"/><circle class="cls-19" cx="31.27" cy="57.38" r="0.34"/><circle class="cls-19" cx="31.27" cy="58.68" r="0.34"/><circle class="cls-19" cx="31.92" cy="56.77" r="0.34"/><circle class="cls-19" cx="31.92" cy="58.07" r="0.34"/><circle class="cls-19" cx="31.92" cy="59.37" r="0.34"/><circle class="cls-19" cx="31.27" cy="60.06" r="0.34"/><circle class="cls-19" cx="31.27" cy="61.36" r="0.34"/><circle class="cls-19" cx="31.27" cy="62.65" r="0.34"/><circle class="cls-19" cx="31.92" cy="60.75" r="0.34"/><circle class="cls-19" cx="31.92" cy="62.05" r="0.34"/><circle class="cls-19" cx="31.92" cy="63.34" r="0.34"/><circle class="cls-19" cx="31.27" cy="64.03" r="0.34"/><circle class="cls-19" cx="31.27" cy="65.33" r="0.34"/><circle class="cls-19" cx="31.27" cy="66.63" r="0.34"/><circle class="cls-19" cx="31.92" cy="64.72" r="0.34"/><circle class="cls-19" cx="31.92" cy="66.02" r="0.34"/><polygon class="cls-19" points="31.61 66.16 33.6 66.16 44.05 74.09 20.61 74.09 31.61 66.16"/><circle class="cls-19" cx="34.98" cy="6.35" r="1.38"/><circle class="cls-19" cx="34.98" cy="11.54" r="1.38"/><circle class="cls-19" cx="34.98" cy="16.73" r="1.38"/><circle class="cls-19" cx="29.69" cy="6.35" r="1.38"/><circle class="cls-19" cx="29.69" cy="11.54" r="1.38"/><circle class="cls-19" cx="29.69" cy="16.73" r="1.38"/><circle class="cls-19" cx="32.29" cy="9.11" r="1.38"/><circle class="cls-19" cx="32.29" cy="14.3" r="1.38"/><circle class="cls-19" cx="32.29" cy="19.49" r="1.38"/><circle class="cls-11" cx="3.94" cy="54.46" r="3.94"/><rect class="cls-16" x="10.36" y="19.24" width="44.28" height="2.78" rx="1.28"/><polygon class="cls-13" points="32.65 51.9 32.6 51.9 14.78 22.01 50.42 22.01 32.65 51.9"/><polygon class="cls-13" points="32.65 51.9 32.6 51.9 14.78 22.01 50.42 22.01 32.65 51.9"/><polygon class="cls-14" points="26.67 41.97 26.67 22.01 20.79 22.01 20.79 32.1 26.67 41.97"/><polygon class="cls-15" points="32.6 51.9 32.65 51.9 43.19 34.16 43.19 22.01 31.07 22.01 31.07 49.35 32.6 51.9"/><rect class="cls-13" x="23.34" y="42.83" width="18.33" height="12.91"/><path class="cls-16" d="M28.46,45.7a3.72,3.72,0,1,0,3.72,3.72A3.72,3.72,0,0,0,28.46,45.7Zm0,5a1.43,1.43,0,1,1,1.43-1.43A1.43,1.43,0,0,1,28.46,50.75Z"/><path class="cls-16" d="M36.22,45.7a3.72,3.72,0,1,0,3.72,3.72A3.73,3.73,0,0,0,36.22,45.7Zm0,5a1.43,1.43,0,1,1,1.43-1.43A1.43,1.43,0,0,1,36.22,50.75Z"/><rect class="cls-15" x="0.95" y="51.9" width="34.33" height="5.12" rx="2.56"/><rect class="cls-13" x="6.9" y="52.98" width="22.43" height="2.96" rx="1.48"/><circle class="cls-16" cx="32.18" cy="54.46" r="1.48"/><circle class="cls-16" cx="3.94" cy="54.46" r="1.48"/><path class="cls-15" d="M52.06,79.11a19,19,0,0,1-19,19h-1a19,19,0,0,1-19-19H11.88a20.21,20.21,0,0,0,20.21,20.2h1a20.21,20.21,0,0,0,20.2-20.2Z"/><rect class="cls-15" x="10.25" y="76.6" width="44.23" height="2.51" rx="1.25"/><rect class="cls-23" x="13.15" y="74.09" width="38.91" height="5.02"/><rect class="cls-24" x="13.15" y="74.09" width="6.5" height="5.02"/><rect class="cls-24" x="32.61" y="74.09" width="16.83" height="5.02"/><rect class="cls-23" x="15.78" y="81.68" width="33.65" height="39.03"/><rect class="cls-24" x="15.78" y="81.68" width="6.28" height="39.03"/><rect class="cls-24" x="32.61" y="81.68" width="13.98" height="39.03"/><rect class="cls-25" x="15.78" y="79.11" width="33.65" height="2.57"/><path class="cls-25" d="M15.78,120.71H49.43a0,0,0,0,1,0,0v0a2.57,2.57,0,0,1-2.57,2.57H18.35a2.57,2.57,0,0,1-2.57-2.57v0a0,0,0,0,1,0,0Z"/><path class="cls-11" d="M261.39,87.44a2.22,2.22,0,0,0-3.67,0h-2a2.23,2.23,0,0,0-3.68,0h-1.52a2.22,2.22,0,0,0-3.67,0h-1.81a2.1,2.1,0,0,0-1.84-1,1.79,1.79,0,1,0,0,3.53v30.39h18.57V87.44Z"/><path class="cls-26" d="M240.86,89.34v-2.4h-.78a7,7,0,0,0-7,7v6.42a7,7,0,0,0,7,7h.78v-2.4a5.17,5.17,0,0,1-5.17-5.18V94.52A5.17,5.17,0,0,1,240.86,89.34Z"/><polygon class="cls-26" points="264.1 97.13 264.1 97.13 264.1 81.75 269.34 81.75 264.1 97.13"/><rect class="cls-27" x="243.22" y="81.75" width="18.56" height="37.18"/><rect class="cls-28" x="243.39" y="118.94" width="18.18" height="1.75"/><rect class="cls-29" x="245.05" y="81.75" width="7.03" height="37.18"/><circle class="cls-14" cx="257.66" cy="91.65" r="1.32"/><circle class="cls-14" cx="257.66" cy="101.54" r="1.32"/><circle class="cls-14" cx="257.66" cy="111.44" r="1.32"/><path class="cls-30" d="M261.58,81.75v38.64H243.39V81.75h-.07a2.46,2.46,0,0,0-2.46,2.46v36.62a2.46,2.46,0,0,0,2.46,2.45h18.33a2.45,2.45,0,0,0,2.45-2.45V81.75Z"/><path class="cls-1" d="M456.35,123.28a1,1,0,0,1-1.05-1c0-2.24,1.9-3.74,1.9-10.66s-4.87-18.91-4.87-26.25a45.06,45.06,0,0,1,3-14.68h14.48a45.06,45.06,0,0,1,3,14.68c0,7.34-4.87,19.34-4.87,26.25s1.9,8.42,1.9,10.66a1,1,0,0,1-1,1Z"/><path class="cls-2" d="M471.75,85.32c0-5.84-2.13-12.77-2.82-14.68H456.15c-.69,1.91-2.82,8.84-2.82,14.68,0,3.6,1.25,8.51,2.46,13.25s2.41,9.47,2.41,13a33.13,33.13,0,0,1-.72,6.84,1,1,0,0,0,.95,1.24h8.22a1,1,0,0,0,1-1.24,33.13,33.13,0,0,1-.72-6.84c0-3.53,1.17-8.13,2.41-13S471.75,88.92,471.75,85.32Z"/><path class="cls-3" d="M468.93,70.64h0a2,2,0,0,0-2-2h-8.78a2,2,0,0,0-2,2,55.7,55.7,0,0,0-2.63,11.42h18A55.7,55.7,0,0,0,468.93,70.64Z"/><path class="cls-4" d="M462.54,123.28h6.19a1,1,0,0,0,1-1c0-2.24-1.9-3.74-1.9-10.66s4.87-18.91,4.87-26.25a45.06,45.06,0,0,0-3-14.68h-7.24Z"/><path class="cls-1" d="M482.13,123.28a1,1,0,0,1-1.05-1c0-2.24,1.9-3.74,1.9-10.66s-4.87-18.91-4.87-26.25a45.06,45.06,0,0,1,3-14.68h14.49a45.19,45.19,0,0,1,3,14.68c0,7.34-4.87,19.34-4.87,26.25s1.91,8.42,1.91,10.66a1.06,1.06,0,0,1-1.06,1Z"/><path class="cls-2" d="M497.53,85.32c0-5.84-2.13-12.77-2.82-14.68H481.93c-.69,1.91-2.82,8.84-2.82,14.68,0,3.6,1.25,8.51,2.46,13.25s2.41,9.47,2.41,13a33.13,33.13,0,0,1-.72,6.84,1,1,0,0,0,.95,1.24h8.22a1,1,0,0,0,.95-1.24,33.13,33.13,0,0,1-.72-6.84c0-3.53,1.17-8.13,2.41-13S497.53,88.92,497.53,85.32Z"/><path class="cls-3" d="M494.71,70.64h0a2,2,0,0,0-2-2h-8.77a2,2,0,0,0-2,2,56.39,56.39,0,0,0-2.63,11.42h18A55.7,55.7,0,0,0,494.71,70.64Z"/><path class="cls-4" d="M488.32,123.28h6.19a1.06,1.06,0,0,0,1.06-1c0-2.24-1.91-3.74-1.91-10.66s4.87-18.91,4.87-26.25a45.19,45.19,0,0,0-3-14.68h-7.25Z"/></g></g></svg>