<svg xmlns="http://www.w3.org/2000/svg" viewBox="0 0 156.91 314.46"><defs><style>.cls-1{fill:#cc9a5b;}.cls-2{fill:#bd8c47;}.cls-3{fill:#a6b7c1;}.cls-4{fill:#bb7d40;}.cls-5{fill:#db9e34;}.cls-6{fill:#6a757b;}.cls-7{fill:#287eb9;}.cls-8{fill:#e9533a;}.cls-9{fill:#b1c2cc;}.cls-10,.cls-16{fill:#ecf3fb;}.cls-11{fill:#a5b6c0;}.cls-12{fill:#707b81;}.cls-13{fill:#8f9ca4;}.cls-14{fill:#40444d;}.cls-15{fill:#c99c5b;}.cls-16{opacity:0.5;}.cls-17{fill:#b3573e;}.cls-18{fill:#a04f3a;}.cls-19{fill:#d4dabe;}.cls-20{fill:#c2c8ac;}.cls-21{fill:#90aa9f;}.cls-22{fill:#426834;}.cls-22,.cls-23{fill-rule:evenodd;}.cls-23{fill:#395c2c;}</style></defs><g id="Laag_2" data-name="Laag 2"><g id="Laag_14" data-name="Laag 14"><path class="cls-1" d="M38,143.28a2.55,2.55,0,0,0,0-3.6L18.49,120.14a2.54,2.54,0,0,0-3.59,3.59l19.54,19.55A2.55,2.55,0,0,0,38,143.28Zm-22.3-22.21a1.49,1.49,0,0,1,2.11,2.1,1.49,1.49,0,1,1-2.11-2.1Z"/><path class="cls-2" d="M34,138.13H47a0,0,0,0,1,0,0v10.51a4.87,4.87,0,0,1-4.87,4.87H38.83A4.87,4.87,0,0,1,34,148.63V138.13A0,0,0,0,1,34,138.13Z" transform="translate(172.21 220.29) rotate(135)"/><rect class="cls-1" x="40.32" y="150.87" width="13.04" height="2.61" transform="translate(187.57 226.65) rotate(135)"/><rect class="cls-3" x="139.64" y="205.84" width="3.91" height="5.71"/><rect class="cls-4" x="118.12" y="204.51" width="3.39" height="31.92" rx="1.39" transform="translate(308.1 54.61) rotate(77.15)"/><rect class="cls-4" x="118.12" y="210.88" width="3.39" height="31.92" rx="1.39" transform="translate(314.31 59.56) rotate(77.15)"/><rect class="cls-4" x="118.12" y="217.23" width="3.39" height="31.92" rx="1.39" transform="translate(320.51 64.51) rotate(77.15)"/><rect class="cls-4" x="118.12" y="223.61" width="3.39" height="31.92" rx="1.39" transform="translate(326.72 69.46) rotate(77.15)"/><rect class="cls-4" x="118.12" y="229.98" width="3.39" height="31.92" rx="1.39" transform="translate(332.93 74.41) rotate(77.15)"/><rect class="cls-4" x="118.12" y="236.35" width="3.39" height="31.92" rx="1.39" transform="translate(339.14 79.37) rotate(77.15)"/><rect class="cls-4" x="118.12" y="242.74" width="3.39" height="31.92" rx="1.39" transform="translate(345.38 84.34) rotate(77.15)"/><rect class="cls-4" x="118.12" y="249.09" width="3.39" height="31.92" rx="1.39" transform="translate(351.57 89.27) rotate(77.15)"/><rect class="cls-5" x="118.12" y="201.32" width="3.39" height="31.92" rx="1.39" transform="translate(337.09 97.46) rotate(90)"/><rect class="cls-5" x="118.12" y="207.69" width="3.39" height="31.92" rx="1.39" transform="translate(343.46 103.84) rotate(90)"/><rect class="cls-5" x="118.12" y="214.06" width="3.39" height="31.92" rx="1.39" transform="translate(349.83 110.21) rotate(90)"/><rect class="cls-5" x="118.12" y="220.43" width="3.39" height="31.92" rx="1.39" transform="translate(356.21 116.58) rotate(90)"/><rect class="cls-5" x="118.12" y="226.8" width="3.39" height="31.92" rx="1.39" transform="translate(362.58 122.95) rotate(90)"/><rect class="cls-5" x="118.12" y="233.17" width="3.39" height="31.92" rx="1.39" transform="translate(368.95 129.32) rotate(90)"/><rect class="cls-5" x="118.12" y="239.54" width="3.39" height="31.92" rx="1.39" transform="translate(375.32 135.69) rotate(90)"/><rect class="cls-5" x="118.12" y="245.92" width="3.39" height="31.92" rx="1.39" transform="translate(381.69 142.06) rotate(90)"/><rect class="cls-5" x="121.89" y="248.52" width="3.39" height="39.46" rx="1.39" transform="translate(391.83 144.66) rotate(90)"/><rect class="cls-5" x="139.92" y="209.34" width="3.39" height="60.6" rx="1.39" transform="translate(283.23 479.28) rotate(180)"/><rect class="cls-6" x="138.63" y="208.95" width="5.97" height="3.42" rx="1.4"/><rect class="cls-3" x="103.58" y="205.84" width="3.91" height="5.71"/><rect class="cls-5" x="103.86" y="209.34" width="3.39" height="9.64" rx="1.39" transform="translate(211.11 428.32) rotate(180)"/><rect class="cls-6" x="102.57" y="208.95" width="5.97" height="3.42" rx="1.4"/><path class="cls-7" d="M106.83,203.56a1.33,1.33,0,1,1-2.66,0A8,8,0,0,1,105.5,201,8,8,0,0,1,106.83,203.56Z"/><path class="cls-8" d="M142.93,203.56a1.34,1.34,0,0,1-2.67,0A8,8,0,0,1,141.6,201,8,8,0,0,1,142.93,203.56Z"/><path class="cls-9" d="M91.69,79.76h62.22a0,0,0,0,1,0,0v54.5a5.5,5.5,0,0,1-5.5,5.5H97.19a5.5,5.5,0,0,1-5.5-5.5V79.76A0,0,0,0,1,91.69,79.76Z"/><rect class="cls-10" x="102.19" y="79.76" width="10.27" height="60"/><rect class="cls-11" x="120.14" y="79.76" width="21.16" height="60"/><path class="cls-10" d="M99.46,79.76H96.91v60l.28,0h2.27Z"/><rect class="cls-12" x="96.91" y="139.76" width="51.78" height="2.22"/><rect class="cls-12" x="88.86" y="76.98" width="68.06" height="2.78" rx="1.28"/><path class="cls-12" d="M124.13,132v-6.79a1.33,1.33,0,1,0-2.66,0V132a2.66,2.66,0,1,0,2.66,0Z"/><rect class="cls-7" x="109.77" y="126.48" width="15.69" height="2.67" rx="1.33"/><rect class="cls-13" x="89.69" y="90.65" width="66.22" height="2.97" rx="1.49"/><rect class="cls-13" x="89.69" y="118.06" width="66.22" height="2.97" rx="1.49"/><path class="cls-7" d="M105.9,146.08a1.34,1.34,0,0,1-2.67,0,8,8,0,0,1,1.34-2.57A8,8,0,0,1,105.9,146.08Z"/><path class="cls-7" d="M108.51,146.08a1.34,1.34,0,0,1-2.67,0,8,8,0,0,1,1.34-2.57A8,8,0,0,1,108.51,146.08Z"/><path class="cls-7" d="M111.12,146.08a1.34,1.34,0,0,1-2.67,0,8,8,0,0,1,1.34-2.57A8,8,0,0,1,111.12,146.08Z"/><path class="cls-7" d="M113.73,146.08a1.34,1.34,0,0,1-2.67,0,8,8,0,0,1,1.34-2.57A8,8,0,0,1,113.73,146.08Z"/><path class="cls-7" d="M116.34,146.08a1.34,1.34,0,0,1-2.67,0,8,8,0,0,1,1.34-2.57A8,8,0,0,1,116.34,146.08Z"/><path class="cls-7" d="M119,146.08a1.34,1.34,0,0,1-2.67,0,8,8,0,0,1,1.34-2.57A8,8,0,0,1,119,146.08Z"/><path class="cls-7" d="M121.56,146.08a1.34,1.34,0,0,1-2.67,0,8,8,0,0,1,1.34-2.57A8,8,0,0,1,121.56,146.08Z"/><path class="cls-7" d="M124.17,146.08a1.34,1.34,0,0,1-2.67,0,8,8,0,0,1,1.34-2.57A8,8,0,0,1,124.17,146.08Z"/><path class="cls-7" d="M126.78,146.08a1.34,1.34,0,0,1-2.67,0,8,8,0,0,1,1.34-2.57A8,8,0,0,1,126.78,146.08Z"/><path class="cls-7" d="M129.39,146.08a1.33,1.33,0,1,1-2.66,0,8,8,0,0,1,1.33-2.57A8,8,0,0,1,129.39,146.08Z"/><path class="cls-7" d="M132,146.08a1.33,1.33,0,0,1-2.66,0,8,8,0,0,1,1.33-2.57A8,8,0,0,1,132,146.08Z"/><path class="cls-7" d="M134.61,146.08a1.33,1.33,0,1,1-2.66,0,8,8,0,0,1,1.33-2.57A8,8,0,0,1,134.61,146.08Z"/><path class="cls-7" d="M137.22,146.08a1.33,1.33,0,0,1-2.66,0,8,8,0,0,1,1.33-2.57A8,8,0,0,1,137.22,146.08Z"/><path class="cls-7" d="M139.83,146.08a1.33,1.33,0,1,1-2.66,0,8,8,0,0,1,1.33-2.57A8,8,0,0,1,139.83,146.08Z"/><path class="cls-7" d="M142.44,146.08a1.33,1.33,0,1,1-2.66,0,8,8,0,0,1,1.33-2.57A8,8,0,0,1,142.44,146.08Z"/><rect class="cls-14" x="98.13" y="156.64" width="49.33" height="10.39"/><path class="cls-12" d="M134.56,156.64v-2.11c0-1.06-1.15-1.93-2.57-1.93H113.57c-1.42,0-2.57.87-2.57,1.93v2.11h-5.1v-4c0-2.17,2.34-3.92,5.24-3.92h23.4c2.89,0,5.24,1.75,5.24,3.92v4Z"/><rect class="cls-12" x="100.68" y="148.74" width="44.31" height="1.92" rx="0.96"/><rect class="cls-14" x="142.44" y="164.67" width="2.55" height="4.96" rx="1.28"/><rect class="cls-14" x="100.68" y="164.67" width="2.55" height="4.96" rx="1.28"/><circle class="cls-11" cx="122.8" cy="161.83" r="3.42"/><circle class="cls-14" cx="122.8" cy="161.83" r="2.02"/><path class="cls-9" d="M11.44,152.17H73.66a0,0,0,0,1,0,0v54.5a5.5,5.5,0,0,1-5.5,5.5H16.94a5.5,5.5,0,0,1-5.5-5.5v-54.5A0,0,0,0,1,11.44,152.17Z"/><rect class="cls-10" x="21.94" y="152.17" width="10.27" height="60"/><rect class="cls-11" x="39.89" y="152.17" width="21.16" height="60"/><path class="cls-10" d="M19.21,152.17H16.66v60h2.55Z"/><rect class="cls-12" x="16.66" y="212.17" width="51.78" height="2.22"/><rect class="cls-12" x="8.61" y="149.4" width="68.06" height="2.78" rx="1.28"/><path class="cls-12" d="M43.88,204.4v-6.79a1.33,1.33,0,1,0-2.66,0v6.79a2.66,2.66,0,1,0,2.66,0Z"/><rect class="cls-7" x="29.52" y="198.9" width="15.69" height="2.67" rx="1.33"/><rect class="cls-13" x="9.44" y="163.06" width="66.22" height="2.97" rx="1.49"/><rect class="cls-13" x="9.44" y="190.47" width="66.22" height="2.97" rx="1.49"/><path class="cls-7" d="M25.65,218.5a1.34,1.34,0,0,1-2.67,0,8,8,0,0,1,1.33-2.57A8,8,0,0,1,25.65,218.5Z"/><path class="cls-7" d="M28.26,218.5a1.34,1.34,0,0,1-2.67,0,8,8,0,0,1,1.33-2.57A8,8,0,0,1,28.26,218.5Z"/><path class="cls-7" d="M30.87,218.5a1.34,1.34,0,0,1-2.67,0,8,8,0,0,1,1.33-2.57A8,8,0,0,1,30.87,218.5Z"/><path class="cls-7" d="M33.48,218.5a1.34,1.34,0,0,1-2.67,0,8,8,0,0,1,1.33-2.57A8,8,0,0,1,33.48,218.5Z"/><path class="cls-7" d="M36.09,218.5a1.34,1.34,0,0,1-2.67,0,8,8,0,0,1,1.34-2.57A8,8,0,0,1,36.09,218.5Z"/><path class="cls-7" d="M38.7,218.5a1.34,1.34,0,0,1-2.67,0,8,8,0,0,1,1.34-2.57A8,8,0,0,1,38.7,218.5Z"/><path class="cls-7" d="M41.31,218.5a1.34,1.34,0,0,1-2.67,0A8,8,0,0,1,40,215.93,8,8,0,0,1,41.31,218.5Z"/><path class="cls-7" d="M43.92,218.5a1.34,1.34,0,0,1-2.67,0,8,8,0,0,1,1.34-2.57A8,8,0,0,1,43.92,218.5Z"/><path class="cls-7" d="M46.53,218.5a1.34,1.34,0,0,1-2.67,0,8,8,0,0,1,1.34-2.57A8,8,0,0,1,46.53,218.5Z"/><path class="cls-7" d="M49.14,218.5a1.34,1.34,0,0,1-2.67,0,8,8,0,0,1,1.34-2.57A8,8,0,0,1,49.14,218.5Z"/><path class="cls-7" d="M51.75,218.5a1.34,1.34,0,0,1-2.67,0,8,8,0,0,1,1.34-2.57A8,8,0,0,1,51.75,218.5Z"/><path class="cls-7" d="M54.36,218.5a1.34,1.34,0,0,1-2.67,0A8,8,0,0,1,53,215.93,8,8,0,0,1,54.36,218.5Z"/><path class="cls-7" d="M57,218.5a1.34,1.34,0,0,1-2.67,0,8,8,0,0,1,1.34-2.57A8,8,0,0,1,57,218.5Z"/><path class="cls-7" d="M59.58,218.5a1.33,1.33,0,1,1-2.66,0,8,8,0,0,1,1.33-2.57A8,8,0,0,1,59.58,218.5Z"/><path class="cls-7" d="M62.19,218.5a1.33,1.33,0,1,1-2.66,0,8,8,0,0,1,1.33-2.57A8,8,0,0,1,62.19,218.5Z"/><rect class="cls-14" x="17.88" y="229.06" width="49.33" height="10.39"/><path class="cls-12" d="M54.3,229.06V227c0-1.07-1.15-1.93-2.56-1.93H33.31c-1.42,0-2.57.86-2.57,1.93v2.11H25.65v-4c0-2.17,2.34-3.93,5.23-3.93H54.29c2.89,0,5.24,1.76,5.24,3.93v4Z"/><rect class="cls-12" x="20.43" y="221.15" width="44.31" height="1.92" rx="0.96"/><rect class="cls-14" x="62.19" y="237.08" width="2.55" height="4.96" rx="1.28"/><rect class="cls-14" x="20.43" y="237.08" width="2.55" height="4.96" rx="1.28"/><circle class="cls-11" cx="42.55" cy="234.25" r="3.42"/><circle class="cls-14" cx="42.55" cy="234.25" r="2.02"/><path class="cls-9" d="M90.45,224.59h62.22a0,0,0,0,1,0,0v54.5a5.5,5.5,0,0,1-5.5,5.5H95.95a5.5,5.5,0,0,1-5.5-5.5v-54.5A0,0,0,0,1,90.45,224.59Z"/><rect class="cls-10" x="100.95" y="224.59" width="10.27" height="60"/><rect class="cls-11" x="118.9" y="224.59" width="21.16" height="60"/><path class="cls-10" d="M98.22,224.59H95.67v60h2.55Z"/><rect class="cls-12" x="95.67" y="284.59" width="51.78" height="2.22"/><rect class="cls-12" x="87.62" y="221.82" width="68.06" height="2.78" rx="1.28"/><path class="cls-12" d="M122.89,276.82V270a1.33,1.33,0,0,0-2.66,0v6.8a2.66,2.66,0,1,0,2.66,0Z"/><rect class="cls-7" x="108.53" y="271.32" width="15.69" height="2.67" rx="1.33"/><rect class="cls-13" x="88.45" y="235.48" width="66.22" height="2.97" rx="1.49"/><rect class="cls-13" x="88.45" y="262.89" width="66.22" height="2.97" rx="1.49"/><path class="cls-7" d="M104.66,290.91a1.34,1.34,0,1,1-2.67,0,8.15,8.15,0,0,1,1.33-2.57A8.13,8.13,0,0,1,104.66,290.91Z"/><path class="cls-7" d="M107.27,290.91a1.34,1.34,0,1,1-2.67,0,8.13,8.13,0,0,1,1.34-2.57A8.15,8.15,0,0,1,107.27,290.91Z"/><path class="cls-7" d="M109.88,290.91a1.34,1.34,0,1,1-2.67,0,8.13,8.13,0,0,1,1.34-2.57A8.15,8.15,0,0,1,109.88,290.91Z"/><path class="cls-7" d="M112.49,290.91a1.34,1.34,0,1,1-2.67,0,8.13,8.13,0,0,1,1.34-2.57A8.15,8.15,0,0,1,112.49,290.91Z"/><path class="cls-7" d="M115.1,290.91a1.34,1.34,0,1,1-2.67,0,8.13,8.13,0,0,1,1.34-2.57A8.15,8.15,0,0,1,115.1,290.91Z"/><path class="cls-7" d="M117.71,290.91a1.34,1.34,0,1,1-2.67,0,8.13,8.13,0,0,1,1.34-2.57A8.15,8.15,0,0,1,117.71,290.91Z"/><path class="cls-7" d="M120.32,290.91a1.34,1.34,0,1,1-2.67,0,8.13,8.13,0,0,1,1.34-2.57A8.15,8.15,0,0,1,120.32,290.91Z"/><path class="cls-7" d="M122.93,290.91a1.34,1.34,0,1,1-2.67,0,8.13,8.13,0,0,1,1.34-2.57A8.15,8.15,0,0,1,122.93,290.91Z"/><path class="cls-7" d="M125.54,290.91a1.34,1.34,0,1,1-2.67,0,8.13,8.13,0,0,1,1.34-2.57A8.15,8.15,0,0,1,125.54,290.91Z"/><path class="cls-7" d="M128.15,290.91a1.34,1.34,0,1,1-2.67,0,8.13,8.13,0,0,1,1.34-2.57A8.15,8.15,0,0,1,128.15,290.91Z"/><path class="cls-7" d="M130.76,290.91a1.34,1.34,0,1,1-2.67,0,8.13,8.13,0,0,1,1.34-2.57A8.15,8.15,0,0,1,130.76,290.91Z"/><path class="cls-7" d="M133.37,290.91a1.33,1.33,0,1,1-2.66,0,8.15,8.15,0,0,1,1.33-2.57A8.15,8.15,0,0,1,133.37,290.91Z"/><path class="cls-7" d="M136,290.91a1.33,1.33,0,1,1-2.66,0,8.15,8.15,0,0,1,1.33-2.57A8.15,8.15,0,0,1,136,290.91Z"/><path class="cls-7" d="M138.59,290.91a1.33,1.33,0,1,1-2.66,0,8.15,8.15,0,0,1,1.33-2.57A8.15,8.15,0,0,1,138.59,290.91Z"/><path class="cls-7" d="M141.2,290.91a1.33,1.33,0,1,1-2.66,0,8.15,8.15,0,0,1,1.33-2.57A8.15,8.15,0,0,1,141.2,290.91Z"/><rect class="cls-14" x="96.89" y="301.48" width="49.33" height="10.39"/><path class="cls-12" d="M133.32,301.48v-2.12c0-1.06-1.15-1.92-2.57-1.92H112.32c-1.41,0-2.56.86-2.56,1.92v2.12h-5.1v-4c0-2.16,2.34-3.92,5.24-3.92h23.4c2.89,0,5.24,1.76,5.24,3.92v4Z"/><rect class="cls-12" x="99.44" y="293.57" width="44.31" height="1.92" rx="0.96"/><rect class="cls-14" x="141.2" y="309.5" width="2.55" height="4.96" rx="1.28"/><rect class="cls-14" x="99.44" y="309.5" width="2.55" height="4.96" rx="1.28"/><circle class="cls-11" cx="121.56" cy="306.67" r="3.42"/><circle class="cls-14" cx="121.56" cy="306.67" r="2.02"/><circle class="cls-15" cx="23.4" cy="272.53" r="2.4"/><circle class="cls-15" cx="18.67" cy="271.98" r="4.05"/><circle class="cls-15" cx="14.05" cy="273.1" r="1.83"/><path class="cls-15" d="M2.92,273.17H36.29a1.94,1.94,0,0,1,1.94,1.94v3.34a0,0,0,0,1,0,0H.8a0,0,0,0,1,0,0v-3.16A2.12,2.12,0,0,1,2.92,273.17Z"/><path class="cls-16" d="M38.23,278.45H.66v-.14a9.08,9.08,0,0,1,9-9.22,6.82,6.82,0,0,0,7-6.81V255h5.56v7.26A6.79,6.79,0,0,0,29,269.09a9.2,9.2,0,0,1,9.23,9.19Z"/><rect class="cls-17" x="19.44" y="278.45" width="18.78" height="32.91"/><rect class="cls-18" x="0.8" y="278.45" width="18.73" height="32.91"/><path class="cls-11" d="M28.89,268.08h0a5.45,5.45,0,0,1-5.45-5.44v-5.09h1.35a1.27,1.27,0,0,0,0-2.53H22.24v3.36h0v4.26a6.65,6.65,0,0,0,6.65,6.64,9,9,0,0,1,9,9V307.2A3.77,3.77,0,0,1,34.09,311H5A3.77,3.77,0,0,1,1.2,307.2V278.25a9,9,0,0,1,9-9,6.66,6.66,0,0,0,6.65-6.64V255H14.27a1.27,1.27,0,1,0,0,2.53h1.35v5.09a5.45,5.45,0,0,1-5.45,5.44h0A10.17,10.17,0,0,0,0,278.25V309.5a5,5,0,0,0,5,5H34.09a5,5,0,0,0,5-5V278.25A10.18,10.18,0,0,0,28.89,268.08Z"/><rect class="cls-15" x="16.82" y="252.28" width="5.48" height="8.3"/><circle class="cls-15" cx="65.31" cy="272.53" r="2.4"/><circle class="cls-15" cx="60.58" cy="271.98" r="4.05"/><circle class="cls-15" cx="55.96" cy="273.1" r="1.83"/><path class="cls-15" d="M44.83,273.17H78.2a1.94,1.94,0,0,1,1.94,1.94v3.34a0,0,0,0,1,0,0H42.71a0,0,0,0,1,0,0v-3.16A2.12,2.12,0,0,1,44.83,273.17Z"/><path class="cls-16" d="M80.14,278.45H42.57v-.14a9.08,9.08,0,0,1,9-9.22,6.82,6.82,0,0,0,7-6.81V255h5.56v7.26a6.79,6.79,0,0,0,6.78,6.81,9.2,9.2,0,0,1,9.23,9.19Z"/><rect class="cls-17" x="61.35" y="278.45" width="18.78" height="32.91"/><rect class="cls-18" x="42.71" y="278.45" width="18.73" height="32.91"/><path class="cls-11" d="M70.8,268.08h0a5.45,5.45,0,0,1-5.45-5.44v-5.09H66.7a1.27,1.27,0,0,0,0-2.53H64.15v3.36h0v4.26a6.65,6.65,0,0,0,6.65,6.64,9,9,0,0,1,9,9V307.2A3.77,3.77,0,0,1,76,311H46.87a3.77,3.77,0,0,1-3.76-3.76V278.25a9,9,0,0,1,9-9,6.66,6.66,0,0,0,6.65-6.64V255H56.18a1.27,1.27,0,0,0,0,2.53h1.35v5.09a5.45,5.45,0,0,1-5.45,5.44h0a10.17,10.17,0,0,0-10.17,10.17V309.5a5,5,0,0,0,5,5H76a5,5,0,0,0,5-5V278.25A10.18,10.18,0,0,0,70.8,268.08Z"/><rect class="cls-15" x="58.73" y="252.28" width="5.48" height="8.3"/><circle class="cls-15" cx="42.69" cy="51.12" r="0.34"/><circle class="cls-15" cx="42.69" cy="52.41" r="0.34"/><circle class="cls-15" cx="42.69" cy="53.71" r="0.34"/><circle class="cls-15" cx="41.37" cy="51.12" r="0.34"/><circle class="cls-15" cx="41.37" cy="52.41" r="0.34"/><circle class="cls-15" cx="41.37" cy="53.71" r="0.34"/><circle class="cls-15" cx="42.02" cy="51.81" r="0.34"/><circle class="cls-15" cx="42.02" cy="53.1" r="0.34"/><circle class="cls-15" cx="42.02" cy="54.4" r="0.34"/><circle class="cls-15" cx="42.69" cy="55.09" r="0.34"/><circle class="cls-15" cx="42.69" cy="56.39" r="0.34"/><circle class="cls-15" cx="42.69" cy="57.69" r="0.34"/><circle class="cls-15" cx="41.37" cy="55.09" r="0.34"/><circle class="cls-15" cx="41.37" cy="56.39" r="0.34"/><circle class="cls-15" cx="41.37" cy="57.69" r="0.34"/><circle class="cls-15" cx="42.02" cy="55.78" r="0.34"/><circle class="cls-15" cx="42.02" cy="57.08" r="0.34"/><circle class="cls-15" cx="42.02" cy="58.38" r="0.34"/><circle class="cls-15" cx="42.69" cy="59.07" r="0.34"/><circle class="cls-15" cx="42.69" cy="60.37" r="0.34"/><circle class="cls-15" cx="42.69" cy="61.66" r="0.34"/><circle class="cls-15" cx="41.37" cy="59.07" r="0.34"/><circle class="cls-15" cx="41.37" cy="60.37" r="0.34"/><circle class="cls-15" cx="42.02" cy="59.76" r="0.34"/><circle class="cls-15" cx="42.02" cy="61.06" r="0.34"/><circle class="cls-15" cx="40.03" cy="51.12" r="0.34"/><circle class="cls-15" cx="40.03" cy="52.41" r="0.34"/><circle class="cls-15" cx="40.03" cy="53.71" r="0.34"/><circle class="cls-15" cx="40.68" cy="51.81" r="0.34"/><circle class="cls-15" cx="40.68" cy="53.1" r="0.34"/><circle class="cls-15" cx="40.68" cy="54.4" r="0.34"/><circle class="cls-15" cx="40.03" cy="55.09" r="0.34"/><circle class="cls-15" cx="40.03" cy="56.39" r="0.34"/><circle class="cls-15" cx="40.03" cy="57.69" r="0.34"/><circle class="cls-15" cx="40.68" cy="55.78" r="0.34"/><circle class="cls-15" cx="40.68" cy="57.08" r="0.34"/><circle class="cls-15" cx="40.68" cy="58.38" r="0.34"/><circle class="cls-15" cx="40.03" cy="59.07" r="0.34"/><circle class="cls-15" cx="40.03" cy="60.37" r="0.34"/><circle class="cls-15" cx="40.03" cy="61.66" r="0.34"/><circle class="cls-15" cx="40.68" cy="59.76" r="0.34"/><circle class="cls-15" cx="40.68" cy="61.06" r="0.34"/><polygon class="cls-15" points="40.38 61.19 42.37 61.19 52.82 69.12 29.38 69.12 40.38 61.19"/><circle class="cls-15" cx="43.74" cy="1.38" r="1.38"/><circle class="cls-15" cx="43.74" cy="6.57" r="1.38"/><circle class="cls-15" cx="43.74" cy="11.76" r="1.38"/><circle class="cls-15" cx="38.46" cy="1.38" r="1.38"/><circle class="cls-15" cx="38.46" cy="6.57" r="1.38"/><circle class="cls-15" cx="38.46" cy="11.76" r="1.38"/><circle class="cls-15" cx="41.06" cy="4.14" r="1.38"/><circle class="cls-15" cx="41.06" cy="9.33" r="1.38"/><circle class="cls-15" cx="41.06" cy="14.52" r="1.38"/><circle class="cls-7" cx="12.71" cy="49.5" r="3.94"/><rect class="cls-12" x="19.13" y="14.27" width="44.28" height="2.78" rx="1.28"/><polygon class="cls-9" points="41.41 46.94 41.36 46.94 23.54 17.05 59.19 17.05 41.41 46.94"/><polygon class="cls-9" points="41.41 46.94 41.36 46.94 23.54 17.05 59.19 17.05 41.41 46.94"/><polygon class="cls-10" points="35.44 37 35.44 17.05 29.56 17.05 29.56 27.14 35.44 37"/><polygon class="cls-11" points="41.36 46.94 41.41 46.94 51.96 29.2 51.96 17.05 39.84 17.05 39.84 44.38 41.36 46.94"/><rect class="cls-9" x="32.1" y="37.87" width="18.33" height="12.91"/><path class="cls-12" d="M37.23,40.73A3.72,3.72,0,1,0,41,44.45,3.73,3.73,0,0,0,37.23,40.73Zm0,5.05a1.43,1.43,0,1,1,1.43-1.43A1.43,1.43,0,0,1,37.23,45.78Z"/><path class="cls-12" d="M45,40.73a3.72,3.72,0,1,0,3.71,3.72A3.72,3.72,0,0,0,45,40.73Zm0,5.05a1.43,1.43,0,1,1,1.42-1.43A1.43,1.43,0,0,1,45,45.78Z"/><rect class="cls-11" x="9.72" y="46.94" width="34.33" height="5.12" rx="2.56"/><rect class="cls-9" x="15.67" y="48.02" width="22.43" height="2.96" rx="1.48"/><circle class="cls-12" cx="40.95" cy="49.5" r="1.48"/><circle class="cls-12" cx="12.71" cy="49.5" r="1.48"/><path class="cls-11" d="M60.83,74.14a19,19,0,0,1-19,19h-1a19,19,0,0,1-19-19H20.65a20.2,20.2,0,0,0,20.2,20.2h1A20.2,20.2,0,0,0,62.1,74.14Z"/><rect class="cls-11" x="19.01" y="71.63" width="44.23" height="2.51" rx="1.25"/><rect class="cls-19" x="21.92" y="69.12" width="38.91" height="5.02"/><rect class="cls-20" x="21.92" y="69.12" width="6.5" height="5.02"/><rect class="cls-20" x="41.37" y="69.12" width="16.83" height="5.02"/><rect class="cls-19" x="24.55" y="76.71" width="33.65" height="39.03"/><rect class="cls-20" x="24.55" y="76.71" width="6.28" height="39.03"/><rect class="cls-20" x="41.37" y="76.71" width="13.98" height="39.03"/><rect class="cls-21" x="24.55" y="74.14" width="33.65" height="2.57"/><path class="cls-21" d="M24.55,115.74H58.2a0,0,0,0,1,0,0v0a2.57,2.57,0,0,1-2.57,2.57H27.12a2.57,2.57,0,0,1-2.57-2.57v0A0,0,0,0,1,24.55,115.74Z"/><path class="cls-22" d="M122.72,174.35a24.14,24.14,0,0,1,1.77,3.89l0,0v0l0,0h0l0,0,0,0v0l0,0h0l0,0v0h0l0,.05h0l0,0,0,0v0l0,0h0l0,0,0,0v0l0,0h0l0,0,0,0h0l0,.05h0l0,0,0,0v0l0,0,0,0,0,0h0l0,0h0l0,0,0,0h0l0,0h0l0,.07h0l0,.05h0l0,0,0,0h0l0,0v0l0,0,0,0h0l0,.05h0a1.62,1.62,0,0,0-.1-.18,1.33,1.33,0,0,0-.5-.5,1.32,1.32,0,0,0-.72-.19,1.37,1.37,0,0,0-1.17.68,2,2,0,0,0-.11.2h0l0-.05h0l0,0,0,0h0l0,0v0l0,0,0,0h0l0,0v0l0,0,0,0h0l0,0v0l0,0,0,0h0l0-.05v0l0,0,0-.05h0l0,0,0,0h0l0-.05h0l0,0,0,0v0l0,0h0l0,0,0,0h0l0-.05h0l0,0,0,0h0l0-.05h0l0,0,0,0h0l0-.06,0,0,0,0h0l0,0h0l0,0,0,0h0a25.19,25.19,0,0,1,1.77-3.91.61.61,0,0,1,.49-.29.68.68,0,0,1,.31.08.63.63,0,0,1,.21.22Zm-4.4,3a24.36,24.36,0,0,1,2.13,3.27,24,24,0,0,0-1.44,3.55c-.07.22-.14.46-.2.71a23.1,23.1,0,0,0-2.81-2.53,23.64,23.64,0,0,1,1.32-4.87.6.6,0,0,1,.45-.35.67.67,0,0,1,.31,0A.55.55,0,0,1,118.32,177.39Zm7.78,0a24.06,24.06,0,0,0-2.13,3.26,22.29,22.29,0,0,1,1.44,3.52c.08.23.15.48.22.74a22.84,22.84,0,0,1,2.79-2.52,24.32,24.32,0,0,0-1.32-4.87.6.6,0,0,0-.45-.35.67.67,0,0,0-.31,0A.55.55,0,0,0,126.1,177.39ZM122.72,180a21.55,21.55,0,0,1,2.25,5.6c-.28.33-.57.69-.84,1.08-.23-.46-.47-.92-.72-1.34a1.44,1.44,0,0,0-.5-.51,1.52,1.52,0,0,0-.72-.19,1.38,1.38,0,0,0-1.17.69c-.25.42-.5.88-.73,1.36-.27-.39-.56-.75-.83-1.08a22.34,22.34,0,0,1,2.25-5.62.59.59,0,0,1,.49-.29.58.58,0,0,1,.31.08A.56.56,0,0,1,122.72,180Zm6.4,2.83a20.44,20.44,0,0,0-4.59,4.71,19.8,19.8,0,0,1,.88,2.34l.06.16a22.9,22.9,0,0,1,4.47-1,22.78,22.78,0,0,0,.11-5.78.59.59,0,0,0-.34-.46.65.65,0,0,0-.31-.05A.65.65,0,0,0,129.12,182.87Zm-13.82,0a20.52,20.52,0,0,1,4.6,4.72A24.87,24.87,0,0,0,119,190l0,.14a22.59,22.59,0,0,0-4.49-1.05,22.78,22.78,0,0,1-.11-5.78.59.59,0,0,1,.34-.46.63.63,0,0,1,.31-.05A.65.65,0,0,1,115.3,182.87Zm7.42,2.91a23.84,23.84,0,0,1,2,4.59,9.08,9.08,0,0,0-2.5,1.48,8.91,8.91,0,0,0-2.49-1.47,23.75,23.75,0,0,1,2-4.61.58.58,0,0,1,.49-.28.5.5,0,0,1,.31.08A.53.53,0,0,1,122.72,185.78Zm8.15,4c-2.2.2-7,1.09-8.66,3.27-1.65-2.18-6.47-3.07-8.66-3.27a.44.44,0,0,0-.27.05l-.14.11c2.45,9,15.69,9,18.14,0a.58.58,0,0,0-.15-.11A.4.4,0,0,0,130.87,189.75ZM123,197.41V201a.58.58,0,0,1-.57.58H122a.57.57,0,0,1-.57-.58v-3.61A12.18,12.18,0,0,0,123,197.41Z"/><path class="cls-23" d="M118.08,177.21a.67.67,0,0,0-.31,0,.6.6,0,0,0-.45.35,23.64,23.64,0,0,0-1.32,4.87,23.1,23.1,0,0,1,2.81,2.53c.06-.25.13-.49.2-.71a24,24,0,0,1,1.44-3.55,24.36,24.36,0,0,0-2.13-3.27A.55.55,0,0,0,118.08,177.21Z"/><path class="cls-23" d="M115,182.75a.63.63,0,0,0-.31.05.59.59,0,0,0-.34.46,22.78,22.78,0,0,0,.11,5.78,22.59,22.59,0,0,1,4.49,1.05l0-.14a24.87,24.87,0,0,1,.89-2.36,20.52,20.52,0,0,0-4.6-4.72A.65.65,0,0,0,115,182.75Z"/><path class="cls-23" d="M121.71,180a22.34,22.34,0,0,0-2.25,5.62c.28.33.56.69.83,1.08.23-.48.48-.94.73-1.36a1.38,1.38,0,0,1,1.17-.69h0v-4.95h0A.59.59,0,0,0,121.71,180Z"/><path class="cls-23" d="M122.21,197.41c-.25,0-.5,0-.74,0V201a.57.57,0,0,0,.57.58h.17Z"/><path class="cls-23" d="M122.21,196.64V193c-1.65-2.18-6.47-3.07-8.66-3.27a.44.44,0,0,0-.27.05l-.14.11A9.12,9.12,0,0,0,122.21,196.64Z"/><path class="cls-23" d="M122.2,174.05a.61.61,0,0,0-.49.29,25.19,25.19,0,0,0-1.77,3.91h0l0,0,0,0h0l0,0h0l0,0,0,0,0,.06h0l0,0,0,0h0l0,.05h0l0,0,0,0h0l0,.05h0l0,0,0,0h0l0,0v0l0,0,0,0h0l0,.05h0l0,0,0,0h0l0,.05,0,0v0l0,.05h0l0,0,0,0v0l0,0h0l0,0,0,0v0l0,0h0l0,0,0,0v0l0,0h0l0,0,0,0h0l0,.05h0a2,2,0,0,1,.11-.2,1.37,1.37,0,0,1,1.17-.68h0v-4.88Z"/><path class="cls-23" d="M122.21,185.49h0a.58.58,0,0,0-.49.28,23.75,23.75,0,0,0-2,4.61,8.91,8.91,0,0,1,2.49,1.47Z"/></g></g></svg>