<svg xmlns="http://www.w3.org/2000/svg" viewBox="0 0 86.04 68.99"><defs><style>.cls-1{fill:#a6b7c1;}.cls-2{fill:#bb7d40;}.cls-3{fill:#db9e34;}.cls-4{fill:#6a757b;}.cls-5{fill:#287eb9;}.cls-6{fill:#e9533a;}.cls-7{fill:#ecf3fb;opacity:0.5;}.cls-8{fill:#a5b6c0;}.cls-9{fill:#c99c5b;}</style></defs><g id="Laag_2" data-name="Laag 2"><g id="Laag_4" data-name="Laag 4"><rect class="cls-1" x="81.08" y="4.85" width="3.91" height="5.71"/><rect class="cls-2" x="59.56" y="3.52" width="3.39" height="31.92" rx="1.39" transform="translate(66.62 -44.58) rotate(77.15)"/><rect class="cls-2" x="59.56" y="9.89" width="3.39" height="31.92" rx="1.39" transform="translate(72.83 -39.62) rotate(77.15)"/><rect class="cls-2" x="59.56" y="16.25" width="3.39" height="31.92" rx="1.39" transform="translate(79.03 -34.68) rotate(77.15)"/><rect class="cls-2" x="59.56" y="22.62" width="3.39" height="31.92" rx="1.39" transform="translate(85.24 -29.73) rotate(77.15)"/><rect class="cls-2" x="59.56" y="28.99" width="3.39" height="31.92" rx="1.39" transform="translate(91.45 -24.77) rotate(77.15)"/><rect class="cls-2" x="59.56" y="35.36" width="3.39" height="31.92" rx="1.39" transform="translate(97.66 -19.82) rotate(77.15)"/><rect class="cls-2" x="59.56" y="41.75" width="3.39" height="31.92" rx="1.39" transform="translate(103.9 -14.85) rotate(77.15)"/><rect class="cls-2" x="59.56" y="48.1" width="3.39" height="31.92" rx="1.39" transform="translate(110.08 -9.91) rotate(77.15)"/><rect class="cls-3" x="59.56" y="0.33" width="3.39" height="31.92" rx="1.39" transform="translate(77.55 -44.96) rotate(90)"/><rect class="cls-3" x="59.56" y="6.7" width="3.39" height="31.92" rx="1.39" transform="translate(83.92 -38.59) rotate(90)"/><rect class="cls-3" x="59.56" y="13.07" width="3.39" height="31.92" rx="1.39" transform="translate(90.29 -32.22) rotate(90)"/><rect class="cls-3" x="59.56" y="19.45" width="3.39" height="31.92" rx="1.39" transform="translate(96.66 -25.85) rotate(90)"/><rect class="cls-3" x="59.56" y="25.82" width="3.39" height="31.92" rx="1.39" transform="translate(103.03 -19.48) rotate(90)"/><rect class="cls-3" x="59.56" y="32.19" width="3.39" height="31.92" rx="1.39" transform="translate(109.4 -13.11) rotate(90)"/><rect class="cls-3" x="59.56" y="38.56" width="3.39" height="31.92" rx="1.39" transform="translate(115.77 -6.74) rotate(90)"/><rect class="cls-3" x="59.56" y="44.93" width="3.39" height="31.92" rx="1.39" transform="translate(122.14 -0.37) rotate(90)"/><rect class="cls-3" x="63.33" y="47.53" width="3.39" height="39.46" rx="1.39" transform="translate(132.28 2.23) rotate(90)"/><rect class="cls-3" x="81.36" y="8.35" width="3.39" height="60.6" rx="1.39" transform="translate(166.11 77.31) rotate(180)"/><rect class="cls-4" x="80.07" y="7.96" width="5.97" height="3.42" rx="1.4"/><rect class="cls-1" x="45.02" y="4.85" width="3.91" height="5.71"/><rect class="cls-3" x="45.3" y="8.35" width="3.39" height="9.64" rx="1.39" transform="translate(93.99 26.34) rotate(180)"/><rect class="cls-4" x="44.01" y="7.96" width="5.97" height="3.42" rx="1.4"/><path class="cls-5" d="M48.28,2.57a1.34,1.34,0,0,1-2.67,0A8,8,0,0,1,46.94,0,8,8,0,0,1,48.28,2.57Z"/><path class="cls-6" d="M84.37,2.57a1.34,1.34,0,0,1-2.67,0A8,8,0,0,1,83,0,8,8,0,0,1,84.37,2.57Z"/></g><g id="Laag_7" data-name="Laag 7"><path class="cls-7" d="M38.23,33V65.05L34.5,66.89H3.58L.66,65.05V32.84a9.08,9.08,0,0,1,9-9.23,6.82,6.82,0,0,0,7-6.81V9.54h5.56V16.8A6.79,6.79,0,0,0,29,23.61a9.21,9.21,0,0,1,9.23,9.19Z"/><path class="cls-8" d="M28.89,22.61h0a5.45,5.45,0,0,1-5.45-5.45V12.07h1.35a1.27,1.27,0,0,0,0-2.53H22.24V12.9h0v4.26a6.65,6.65,0,0,0,6.65,6.65,9,9,0,0,1,9,9V61.72a3.77,3.77,0,0,1-3.77,3.77H5A3.77,3.77,0,0,1,1.2,61.72V32.78a9,9,0,0,1,9-9,6.66,6.66,0,0,0,6.65-6.65V9.54H14.27a1.27,1.27,0,1,0,0,2.53h1.35v5.09a5.45,5.45,0,0,1-5.45,5.45h0A10.17,10.17,0,0,0,0,32.78V64a5,5,0,0,0,5,5H34.09a5,5,0,0,0,5-5V32.78A10.17,10.17,0,0,0,28.89,22.61Z"/><rect class="cls-9" x="16.82" y="6.8" width="5.48" height="8.3"/></g></g></svg>