<svg xmlns="http://www.w3.org/2000/svg" viewBox="0 0 39.06 62.19"><defs><style>.cls-1{fill:#c99c5b;}.cls-2{fill:#ecf3fb;opacity:0.5;}.cls-3{fill:#b3573e;}.cls-4{fill:#a04f3a;}.cls-5{fill:#a5b6c0;}</style></defs><g id="Laag_2" data-name="Laag 2"><g id="Laag_7" data-name="Laag 7"><circle class="cls-1" cx="23.4" cy="20.25" r="2.4"/><circle class="cls-1" cx="18.67" cy="19.7" r="4.05"/><circle class="cls-1" cx="14.05" cy="20.83" r="1.83"/><path class="cls-1" d="M2.92,20.9H36.29a1.94,1.94,0,0,1,1.94,1.94v3.34a0,0,0,0,1,0,0H.8a0,0,0,0,1,0,0V23A2.12,2.12,0,0,1,2.92,20.9Z"/><path class="cls-2" d="M38.23,26.17H.66V26a9.08,9.08,0,0,1,9-9.23,6.82,6.82,0,0,0,7-6.81V2.74h5.56V10A6.79,6.79,0,0,0,29,16.81,9.2,9.2,0,0,1,38.23,26Z"/><rect class="cls-3" x="19.44" y="26.17" width="18.78" height="32.91"/><rect class="cls-4" x="0.8" y="26.17" width="18.73" height="32.91"/><path class="cls-5" d="M28.89,15.81h0a5.45,5.45,0,0,1-5.45-5.45V5.27h1.35a1.27,1.27,0,0,0,0-2.53H22.24V6.1h0v4.26A6.66,6.66,0,0,0,28.89,17a9,9,0,0,1,9,9v29a3.76,3.76,0,0,1-3.77,3.76H5A3.76,3.76,0,0,1,1.2,54.92V26a9,9,0,0,1,9-9,6.67,6.67,0,0,0,6.65-6.65V2.74H14.27a1.27,1.27,0,1,0,0,2.53h1.35v5.09a5.45,5.45,0,0,1-5.45,5.45h0A10.16,10.16,0,0,0,0,26V57.22a5,5,0,0,0,5,5H34.09a5,5,0,0,0,5-5V26A10.17,10.17,0,0,0,28.89,15.81Z"/><rect class="cls-1" x="16.82" width="5.48" height="8.3"/></g></g></svg>