<svg xmlns="http://www.w3.org/2000/svg" viewBox="0 0 20.42 54.65"><defs><style>.cls-1{fill:#9ca6a6;}.cls-2{fill:#edb832;}.cls-3{fill:#e9e0bc;}.cls-4{fill:#fff;opacity:0.2;}</style></defs><g id="Laag_2" data-name="Laag 2"><g id="Laag_13" data-name="Laag 13"><path class="cls-1" d="M4,54.65A1.07,1.07,0,0,1,3,53.59c0-2.24,1.91-3.74,1.91-10.66S0,24,0,16.68A45.09,45.09,0,0,1,3,2H17.45a45,45,0,0,1,3,14.67c0,7.34-4.87,19.34-4.87,26.25s1.9,8.42,1.9,10.66a1.06,1.06,0,0,1-1.06,1.06Z"/><path class="cls-2" d="M19.42,16.68c0-5.84-2.13-12.77-2.82-14.67H3.82C3.13,3.91,1,10.84,1,16.68c0,3.6,1.25,8.51,2.46,13.25s2.41,9.47,2.41,13a33.13,33.13,0,0,1-.72,6.84A1,1,0,0,0,6.1,51h8.22a1,1,0,0,0,.95-1.24,33.13,33.13,0,0,1-.72-6.84c0-3.53,1.17-8.13,2.41-13S19.42,20.28,19.42,16.68Z"/><path class="cls-3" d="M16.6,2h0a2,2,0,0,0-2-2H5.82a2,2,0,0,0-2,2A55.53,55.53,0,0,0,1.19,13.43h18A56.21,56.21,0,0,0,16.6,2Z"/><path class="cls-4" d="M10.21,54.65h6.18a1.06,1.06,0,0,0,1.06-1.06c0-2.24-1.9-3.74-1.9-10.66S20.42,24,20.42,16.68A45,45,0,0,0,17.45,2H10.21Z"/></g></g></svg>