<svg xmlns="http://www.w3.org/2000/svg" viewBox="0 0 18.15 27.54"><defs><style>.cls-1{fill:#426834;}.cls-1,.cls-2{fill-rule:evenodd;}.cls-2{fill:#395c2c;}</style></defs><g id="Laag_2" data-name="Laag 2"><g id="Laag_11" data-name="Laag 11"><path class="cls-1" d="M9.58.29a23.24,23.24,0,0,1,1.77,3.89v0l0,0,0,0h0l0,0,0,0v0l0,0h0l0,0,0,0v0l0,0h0l0,0,0,0h0l0,0h0l0,0,0,0h0l0,0h0l0,0,0,0v0l0,0h0l0,0,0,0h0l0,.06,0,0,0,0h0l0,0h0l0,0,0,0h0l0,0h0l0,.07h0l0,0v0l0,0,0,0h0l0,.05h0l0,0,0,0h0l0,0h0l-.1-.18a1.37,1.37,0,0,0-1.22-.7,1.4,1.4,0,0,0-1.18.69l-.11.19h0l0,0v0l0,0h0l0,0v0l0,0h0l0,0,0,0v0l0,0h0l0,0,0,0v0l0,0h0l0,0,0,0v0l0,0h0l0,0V5l0,0h0l0,0,0,0h0l0-.05h0l0,0,0,0h0l0-.05h0l0,0,0,0v0l0,0H7l0,0,0,0H7l0,0,0,0,0,0h0l0,0v0l0,0,0,0h0A23,23,0,0,1,8.58.29.56.56,0,0,1,9.07,0a.54.54,0,0,1,.3.08.6.6,0,0,1,.21.21ZM5.18,3.34A23.19,23.19,0,0,1,7.32,6.61a22.88,22.88,0,0,0-1.44,3.54l-.21.72a23.79,23.79,0,0,0-2.8-2.53A23.64,23.64,0,0,1,4.19,3.47a.58.58,0,0,1,.44-.35.54.54,0,0,1,.31,0A.57.57,0,0,1,5.18,3.34Zm7.78,0A24.06,24.06,0,0,0,10.83,6.6a22.93,22.93,0,0,1,1.45,3.52c.07.23.14.48.21.74a22.76,22.76,0,0,1,2.79-2.52A23.64,23.64,0,0,0,14,3.47a.58.58,0,0,0-.45-.35.56.56,0,0,0-.31,0A.63.63,0,0,0,13,3.34ZM9.58,6a21.75,21.75,0,0,1,2.26,5.61A12.27,12.27,0,0,0,11,12.67c-.23-.47-.48-.92-.72-1.35a1.49,1.49,0,0,0-.5-.5,1.41,1.41,0,0,0-.72-.19,1.39,1.39,0,0,0-1.18.68c-.25.43-.49.89-.72,1.37-.27-.39-.56-.75-.84-1.08A22.16,22.16,0,0,1,8.58,6a.55.55,0,0,1,.49-.28.54.54,0,0,1,.3.08A.6.6,0,0,1,9.58,6ZM16,8.81a20.33,20.33,0,0,0-4.58,4.72c.34.78.64,1.58.88,2.33l.05.17a23,23,0,0,1,4.48-1,22.73,22.73,0,0,0,.1-5.79.57.57,0,0,0-.34-.45.54.54,0,0,0-.31-.05A.57.57,0,0,0,16,8.81Zm-13.82,0a20.42,20.42,0,0,1,4.6,4.73,20.75,20.75,0,0,0-.88,2.36l0,.13a22.92,22.92,0,0,0-4.49-1,22.73,22.73,0,0,1-.1-5.79.57.57,0,0,1,.34-.45.52.52,0,0,1,.3-.05A.5.5,0,0,1,2.16,8.81Zm7.42,2.92a22.54,22.54,0,0,1,2,4.59A8.67,8.67,0,0,0,9.07,17.8a9,9,0,0,0-2.48-1.48,23.57,23.57,0,0,1,2-4.6.58.58,0,0,1,.49-.29.64.64,0,0,1,.3.08A.63.63,0,0,1,9.58,11.73Zm8.15,4c-2.19.2-7,1.1-8.66,3.27C7.42,16.79,2.61,15.89.42,15.69a.52.52,0,0,0-.27.05.44.44,0,0,0-.15.12c2.46,9,15.69,9,18.15,0a.44.44,0,0,0-.15-.12A.52.52,0,0,0,17.73,15.69ZM9.82,23.36V27a.58.58,0,0,1-.58.57H8.91A.58.58,0,0,1,8.33,27V23.36A12.35,12.35,0,0,0,9.82,23.36Z"/><path class="cls-2" d="M4.94,3.15a.54.54,0,0,0-.31,0,.58.58,0,0,0-.44.35A23.64,23.64,0,0,0,2.87,8.34a23.79,23.79,0,0,1,2.8,2.53l.21-.72A22.88,22.88,0,0,1,7.32,6.61,23.19,23.19,0,0,0,5.18,3.34.57.57,0,0,0,4.94,3.15Z"/><path class="cls-2" d="M1.88,8.7a.52.52,0,0,0-.3.05.57.57,0,0,0-.34.45A22.73,22.73,0,0,0,1.34,15a22.92,22.92,0,0,1,4.49,1l0-.13a20.75,20.75,0,0,1,.88-2.36,20.42,20.42,0,0,0-4.6-4.73A.5.5,0,0,0,1.88,8.7Z"/><path class="cls-2" d="M8.58,6A22.16,22.16,0,0,0,6.32,11.6c.28.33.57.69.84,1.08.23-.48.47-.94.72-1.37a1.39,1.39,0,0,1,1.18-.68h0V5.69h0A.55.55,0,0,0,8.58,6Z"/><path class="cls-2" d="M9.07,23.36c-.24,0-.49,0-.74,0V27a.58.58,0,0,0,.58.57h.16Z"/><path class="cls-2" d="M9.07,22.58V19C7.42,16.79,2.61,15.89.42,15.69a.52.52,0,0,0-.27.05.44.44,0,0,0-.15.12A9.13,9.13,0,0,0,9.07,22.58Z"/><path class="cls-2" d="M9.07,0a.56.56,0,0,0-.49.29A23,23,0,0,0,6.81,4.2h0l0,0,0,0v0l0,0h0l0,0,0,0,0,0H7l0,0,0,0H7l0,0v0l0,0,0,0h0l0,.05h0l0,0,0,0h0l0,.05h0l0,0,0,0h0l0,0V5l0,0h0l0,0v0l0,0,0,0h0l0,0v0l0,0,0,0h0l0,0v0l0,0,0,0h0l0,0v0l0,0h0l0,0v0l0,0h0l.11-.19a1.4,1.4,0,0,1,1.18-.69h0V0Z"/><path class="cls-2" d="M9.07,11.43h0a.58.58,0,0,0-.49.29,23.57,23.57,0,0,0-2,4.6A9,9,0,0,1,9.07,17.8Z"/></g></g></svg>