<svg xmlns="http://www.w3.org/2000/svg" viewBox="0 0 42.03 68.99"><defs><style>.cls-1{fill:#a6b7c1;}.cls-2{fill:#bb7d40;}.cls-3{fill:#db9e34;}.cls-4{fill:#6a757b;}.cls-5{fill:#287eb9;}.cls-6{fill:#e9533a;}</style></defs><g id="Laag_2" data-name="Laag 2"><g id="Laag_4" data-name="Laag 4"><rect class="cls-1" x="37.07" y="4.85" width="3.91" height="5.71"/><rect class="cls-2" x="15.55" y="3.52" width="3.39" height="31.92" rx="1.39" transform="translate(32.4 -1.67) rotate(77.15)"/><rect class="cls-2" x="15.55" y="9.89" width="3.39" height="31.92" rx="1.39" transform="translate(38.61 3.29) rotate(77.15)"/><rect class="cls-2" x="15.55" y="16.25" width="3.39" height="31.92" rx="1.39" transform="translate(44.81 8.23) rotate(77.15)"/><rect class="cls-2" x="15.55" y="22.62" width="3.39" height="31.92" rx="1.39" transform="translate(51.02 13.18) rotate(77.15)"/><rect class="cls-2" x="15.55" y="28.99" width="3.39" height="31.92" rx="1.39" transform="translate(57.23 18.14) rotate(77.15)"/><rect class="cls-2" x="15.55" y="35.36" width="3.39" height="31.92" rx="1.39" transform="translate(63.44 23.09) rotate(77.15)"/><rect class="cls-2" x="15.55" y="41.75" width="3.39" height="31.92" rx="1.39" transform="translate(69.67 28.06) rotate(77.15)"/><rect class="cls-2" x="15.55" y="48.1" width="3.39" height="31.92" rx="1.39" transform="translate(75.86 33) rotate(77.15)"/><rect class="cls-3" x="15.55" y="0.33" width="3.39" height="31.92" rx="1.39" transform="translate(33.53 -0.95) rotate(90)"/><rect class="cls-3" x="15.55" y="6.7" width="3.39" height="31.92" rx="1.39" transform="translate(39.91 5.42) rotate(90)"/><rect class="cls-3" x="15.55" y="13.07" width="3.39" height="31.92" rx="1.39" transform="translate(46.28 11.79) rotate(90)"/><rect class="cls-3" x="15.55" y="19.45" width="3.39" height="31.92" rx="1.39" transform="translate(52.65 18.16) rotate(90)"/><rect class="cls-3" x="15.55" y="25.82" width="3.39" height="31.92" rx="1.39" transform="translate(59.02 24.53) rotate(90)"/><rect class="cls-3" x="15.55" y="32.19" width="3.39" height="31.92" rx="1.39" transform="translate(65.39 30.9) rotate(90)"/><rect class="cls-3" x="15.55" y="38.56" width="3.39" height="31.92" rx="1.39" transform="translate(71.76 37.27) rotate(90)"/><rect class="cls-3" x="15.55" y="44.93" width="3.39" height="31.92" rx="1.39" transform="translate(78.13 43.64) rotate(90)"/><rect class="cls-3" x="19.32" y="47.53" width="3.39" height="39.46" rx="1.39" transform="translate(88.27 46.24) rotate(90)"/><rect class="cls-3" x="37.35" y="8.35" width="3.39" height="60.6" rx="1.39" transform="translate(78.09 77.31) rotate(180)"/><rect class="cls-4" x="36.06" y="7.96" width="5.97" height="3.42" rx="1.4"/><rect class="cls-1" x="1.01" y="4.85" width="3.91" height="5.71"/><rect class="cls-3" x="1.29" y="8.35" width="3.39" height="9.64" rx="1.39" transform="translate(5.97 26.34) rotate(180)"/><rect class="cls-4" y="7.96" width="5.97" height="3.42" rx="1.4"/><path class="cls-5" d="M4.26,2.57a1.33,1.33,0,0,1-2.66,0A8,8,0,0,1,2.93,0,8,8,0,0,1,4.26,2.57Z"/><path class="cls-6" d="M40.36,2.57a1.34,1.34,0,0,1-2.67,0A8,8,0,0,1,39,0,8,8,0,0,1,40.36,2.57Z"/></g></g></svg>