<svg xmlns="http://www.w3.org/2000/svg" viewBox="0 0 100.23 98.39"><defs><style>.cls-1{fill:#c2c8ac;}.cls-2{fill:#a6b7c1;}.cls-3{fill:#bb7d40;}.cls-4{fill:#db9e34;}.cls-5{fill:#6a757b;}.cls-6{fill:#287eb9;}.cls-7{fill:#e9533a;}.cls-8{fill:#b1c2cc;}.cls-9{fill:#ecf3fb;}.cls-10{fill:#a5b6c0;}.cls-11{fill:#707b81;}.cls-12{fill:#8f9ca4;}</style></defs><g id="Laag_2" data-name="Laag 2"><g id="Laag_1-2" data-name="Laag 1"><path class="cls-1" d="M83.21-10.12h0a2,2,0,0,1,2,2V23.92a0,0,0,0,1,0,0h0A3.91,3.91,0,0,1,81.26,20V-8.17a2,2,0,0,1,2-2Z" transform="translate(90.11 -76.31) rotate(90)"/><path class="cls-1" d="M19-10.12h0a0,0,0,0,1,0,0V22a2,2,0,0,1-2,2h0a2,2,0,0,1-2-2V-6.21A3.91,3.91,0,0,1,19-10.12Z" transform="translate(23.92 -10.12) rotate(90)"/><rect class="cls-2" x="66.19" y="8.85" width="3.91" height="5.71"/><rect class="cls-3" x="44.67" y="7.52" width="3.39" height="31.92" rx="1.39" transform="translate(58.94 -26.95) rotate(77.15)"/><rect class="cls-3" x="44.67" y="13.89" width="3.39" height="31.92" rx="1.39" transform="translate(65.15 -22) rotate(77.15)"/><rect class="cls-3" x="44.67" y="20.25" width="3.39" height="31.92" rx="1.39" transform="translate(71.35 -17.05) rotate(77.15)"/><rect class="cls-3" x="44.67" y="26.62" width="3.39" height="31.92" rx="1.39" transform="translate(77.56 -12.1) rotate(77.15)"/><rect class="cls-3" x="44.67" y="32.99" width="3.39" height="31.92" rx="1.39" transform="translate(83.77 -7.15) rotate(77.15)"/><rect class="cls-3" x="44.67" y="39.36" width="3.39" height="31.92" rx="1.39" transform="translate(89.98 -2.19) rotate(77.15)"/><rect class="cls-3" x="44.67" y="45.75" width="3.39" height="31.92" rx="1.39" transform="matrix(0.22, 0.97, -0.97, 0.22, 96.22, 2.78)"/><rect class="cls-3" x="44.67" y="52.1" width="3.39" height="31.92" rx="1.39" transform="translate(102.4 7.71) rotate(77.15)"/><rect class="cls-4" x="44.67" y="4.33" width="3.39" height="31.92" rx="1.39" transform="translate(66.66 -26.07) rotate(90)"/><rect class="cls-4" x="44.67" y="10.7" width="3.39" height="31.92" rx="1.39" transform="translate(73.03 -19.7) rotate(90)"/><rect class="cls-4" x="44.67" y="17.07" width="3.39" height="31.92" rx="1.39" transform="translate(79.4 -13.33) rotate(90)"/><rect class="cls-4" x="44.67" y="23.45" width="3.39" height="31.92" rx="1.39" transform="translate(85.77 -6.96) rotate(90)"/><rect class="cls-4" x="44.67" y="29.82" width="3.39" height="31.92" rx="1.39" transform="translate(92.14 -0.59) rotate(90)"/><rect class="cls-4" x="44.67" y="36.19" width="3.39" height="31.92" rx="1.39" transform="translate(98.51 5.78) rotate(90)"/><rect class="cls-4" x="44.67" y="42.56" width="3.39" height="31.92" rx="1.39" transform="translate(104.88 12.15) rotate(90)"/><rect class="cls-4" x="44.67" y="48.93" width="3.39" height="31.92" rx="1.39" transform="translate(111.25 18.52) rotate(90)"/><rect class="cls-4" x="48.44" y="51.53" width="3.39" height="39.46" rx="1.39" transform="translate(121.39 21.12) rotate(90)"/><rect class="cls-4" x="66.47" y="12.35" width="3.39" height="60.6" rx="1.39" transform="translate(136.34 85.31) rotate(180)"/><rect class="cls-5" x="65.18" y="11.96" width="5.97" height="3.42" rx="1.4"/><rect class="cls-2" x="30.13" y="8.85" width="3.91" height="5.71"/><rect class="cls-4" x="30.41" y="12.35" width="3.39" height="9.64" rx="1.39" transform="translate(64.21 34.34) rotate(180)"/><rect class="cls-5" x="29.12" y="11.96" width="5.97" height="3.42" rx="1.4"/><path class="cls-6" d="M33.39,2.57a1.34,1.34,0,0,1-2.67,0A8,8,0,0,1,32.05,0,8,8,0,0,1,33.39,2.57Z"/><path class="cls-7" d="M69.48,2.57a1.34,1.34,0,0,1-2.67,0A8,8,0,0,1,68.15,0,8,8,0,0,1,69.48,2.57Z"/><path class="cls-8" d="M21.27,36.17H83.49a0,0,0,0,1,0,0v54.5a5.5,5.5,0,0,1-5.5,5.5H26.77a5.5,5.5,0,0,1-5.5-5.5V36.17A0,0,0,0,1,21.27,36.17Z"/><rect class="cls-9" x="31.77" y="36.17" width="10.27" height="60"/><rect class="cls-10" x="49.72" y="36.17" width="21.16" height="60"/><path class="cls-9" d="M29,36.17H26.49v60H29Z"/><rect class="cls-11" x="26.49" y="96.17" width="51.78" height="2.22"/><rect class="cls-11" x="18.43" y="33.39" width="68.06" height="2.78" rx="1.28"/><path class="cls-11" d="M53.71,88.4V81.6a1.34,1.34,0,0,0-2.67,0v6.8a2.67,2.67,0,1,0,2.67,0Z"/><rect class="cls-6" x="39.35" y="82.89" width="15.69" height="2.67" rx="1.33"/><rect class="cls-12" x="19.27" y="47.06" width="66.22" height="2.97" rx="1.49"/><rect class="cls-12" x="19.27" y="74.47" width="66.22" height="2.97" rx="1.49"/></g></g></svg>