<svg xmlns="http://www.w3.org/2000/svg" viewBox="0 0 68.06 141.99"><defs><style>.cls-1{fill:#a6b7c1;}.cls-2{fill:#bb7d40;}.cls-3{fill:#db9e34;}.cls-4{fill:#6a757b;}.cls-5{fill:#287eb9;}.cls-6{fill:#e9533a;}.cls-7{fill:#40444d;}.cls-8{fill:#707b81;}.cls-9{fill:#a5b6c0;}.cls-10{fill:#b1c2cc;}.cls-11{fill:#ecf3fb;}.cls-12{fill:#8f9ca4;}</style></defs><g id="Laag_2" data-name="Laag 2"><g id="Laag_1-2" data-name="Laag 1"><rect class="cls-1" x="47.76" y="22.68" width="3.91" height="5.71"/><rect class="cls-2" x="26.24" y="21.35" width="3.39" height="31.92" rx="1.39" transform="translate(58.09 1.78) rotate(77.15)"/><rect class="cls-2" x="26.24" y="27.72" width="3.39" height="31.92" rx="1.39" transform="translate(64.3 6.73) rotate(77.15)"/><rect class="cls-2" x="26.24" y="34.08" width="3.39" height="31.92" rx="1.39" transform="translate(70.5 11.67) rotate(77.15)"/><rect class="cls-2" x="26.24" y="40.45" width="3.39" height="31.92" rx="1.39" transform="translate(76.71 16.63) rotate(77.15)"/><rect class="cls-2" x="26.24" y="46.82" width="3.39" height="31.92" rx="1.39" transform="translate(82.92 21.58) rotate(77.15)"/><rect class="cls-2" x="26.24" y="53.19" width="3.39" height="31.92" rx="1.39" transform="translate(89.14 26.53) rotate(77.15)"/><rect class="cls-2" x="26.24" y="59.59" width="3.39" height="31.92" rx="1.39" transform="translate(95.37 31.51) rotate(77.15)"/><rect class="cls-2" x="26.24" y="65.93" width="3.39" height="31.92" rx="1.39" transform="translate(101.56 36.44) rotate(77.15)"/><rect class="cls-3" x="26.24" y="18.16" width="3.39" height="31.92" rx="1.39" transform="translate(62.06 6.19) rotate(90)"/><rect class="cls-3" x="26.24" y="24.54" width="3.39" height="31.92" rx="1.39" transform="translate(68.43 12.56) rotate(90)"/><rect class="cls-3" x="26.24" y="30.91" width="3.39" height="31.92" rx="1.39" transform="translate(74.8 18.93) rotate(90)"/><rect class="cls-3" x="26.24" y="37.28" width="3.39" height="31.92" rx="1.39" transform="translate(81.17 25.3) rotate(90)"/><rect class="cls-3" x="26.24" y="43.65" width="3.39" height="31.92" rx="1.39" transform="translate(87.54 31.67) rotate(90)"/><rect class="cls-3" x="26.24" y="50.02" width="3.39" height="31.92" rx="1.39" transform="translate(93.91 38.04) rotate(90)"/><rect class="cls-3" x="26.24" y="56.39" width="3.39" height="31.92" rx="1.39" transform="translate(100.28 44.41) rotate(90)"/><rect class="cls-3" x="26.24" y="62.76" width="3.39" height="31.92" rx="1.39" transform="translate(106.65 50.78) rotate(90)"/><rect class="cls-3" x="30.01" y="65.36" width="3.39" height="39.46" rx="1.39" transform="translate(116.79 53.38) rotate(90)"/><rect class="cls-3" x="48.04" y="26.18" width="3.39" height="60.6" rx="1.39" transform="translate(99.47 112.97) rotate(180)"/><rect class="cls-4" x="46.75" y="25.79" width="5.97" height="3.42" rx="1.4"/><rect class="cls-1" x="11.7" y="22.68" width="3.91" height="5.71"/><rect class="cls-3" x="11.98" y="26.18" width="3.39" height="9.64" rx="1.39" transform="translate(27.34 62) rotate(180)"/><rect class="cls-4" x="10.69" y="25.79" width="5.97" height="3.42" rx="1.4"/><path class="cls-5" d="M15,20.4a1.33,1.33,0,0,1-2.66,0,8,8,0,0,1,1.33-2.57A8,8,0,0,1,15,20.4Z"/><path class="cls-6" d="M51.05,20.4a1.34,1.34,0,0,1-2.67,0,8,8,0,0,1,1.33-2.57A8,8,0,0,1,51.05,20.4Z"/><path class="cls-5" d="M17.12,118.45a1.33,1.33,0,0,1-2.66,0,8,8,0,0,1,1.33-2.57A8,8,0,0,1,17.12,118.45Z"/><path class="cls-5" d="M19.74,118.45a1.34,1.34,0,0,1-2.67,0,8,8,0,0,1,1.33-2.57A8,8,0,0,1,19.74,118.45Z"/><path class="cls-5" d="M22.35,118.45a1.34,1.34,0,0,1-2.67,0A8,8,0,0,1,21,115.88,8,8,0,0,1,22.35,118.45Z"/><path class="cls-5" d="M25,118.45a1.34,1.34,0,0,1-2.67,0,8,8,0,0,1,1.33-2.57A8,8,0,0,1,25,118.45Z"/><path class="cls-5" d="M27.57,118.45a1.34,1.34,0,0,1-2.67,0,8,8,0,0,1,1.33-2.57A8,8,0,0,1,27.57,118.45Z"/><path class="cls-5" d="M30.18,118.45a1.34,1.34,0,0,1-2.67,0,8,8,0,0,1,1.33-2.57A8,8,0,0,1,30.18,118.45Z"/><path class="cls-5" d="M32.79,118.45a1.34,1.34,0,0,1-2.67,0,8,8,0,0,1,1.33-2.57A8,8,0,0,1,32.79,118.45Z"/><path class="cls-5" d="M35.4,118.45a1.34,1.34,0,0,1-2.67,0,8,8,0,0,1,1.33-2.57A8,8,0,0,1,35.4,118.45Z"/><path class="cls-5" d="M38,118.45a1.34,1.34,0,0,1-2.67,0,8,8,0,0,1,1.33-2.57A8,8,0,0,1,38,118.45Z"/><path class="cls-5" d="M40.62,118.45a1.34,1.34,0,0,1-2.67,0,8,8,0,0,1,1.33-2.57A8,8,0,0,1,40.62,118.45Z"/><path class="cls-5" d="M43.23,118.45a1.34,1.34,0,0,1-2.67,0,8,8,0,0,1,1.34-2.57A8,8,0,0,1,43.23,118.45Z"/><path class="cls-5" d="M45.84,118.45a1.34,1.34,0,0,1-2.67,0,8,8,0,0,1,1.34-2.57A8,8,0,0,1,45.84,118.45Z"/><path class="cls-5" d="M48.45,118.45a1.34,1.34,0,0,1-2.67,0,8,8,0,0,1,1.34-2.57A8,8,0,0,1,48.45,118.45Z"/><path class="cls-5" d="M51.06,118.45a1.34,1.34,0,0,1-2.67,0,8,8,0,0,1,1.34-2.57A8,8,0,0,1,51.06,118.45Z"/><path class="cls-5" d="M53.67,118.45a1.34,1.34,0,0,1-2.67,0,8,8,0,0,1,1.34-2.57A8,8,0,0,1,53.67,118.45Z"/><rect class="cls-7" x="9.36" y="129.01" width="49.33" height="10.39"/><path class="cls-8" d="M45.78,129V126.9c0-1.07-1.15-1.93-2.57-1.93H24.79c-1.42,0-2.57.86-2.57,1.93V129h-5.1v-4c0-2.17,2.35-3.93,5.24-3.93H45.77c2.89,0,5.23,1.76,5.23,3.93v4Z"/><rect class="cls-8" x="11.91" y="121.1" width="44.31" height="1.92" rx="0.96"/><rect class="cls-7" x="53.67" y="137.03" width="2.55" height="4.96" rx="1.28"/><rect class="cls-7" x="11.91" y="137.03" width="2.55" height="4.96" rx="1.28"/><circle class="cls-9" cx="34.03" cy="134.2" r="3.42"/><circle class="cls-7" cx="34.03" cy="134.2" r="2.02"/><path class="cls-10" d="M2.83,50H65.06a0,0,0,0,1,0,0v54.5a5.5,5.5,0,0,1-5.5,5.5H8.33a5.5,5.5,0,0,1-5.5-5.5V50A0,0,0,0,1,2.83,50Z"/><rect class="cls-11" x="13.33" y="50" width="10.27" height="60"/><rect class="cls-9" x="31.28" y="50" width="21.16" height="60"/><path class="cls-11" d="M10.6,50H8.06v60H10.6Z"/><rect class="cls-8" x="8.06" y="110" width="51.78" height="2.22"/><rect class="cls-8" y="47.23" width="68.06" height="2.78" rx="1.28"/><path class="cls-8" d="M35.28,102.23v-6.8a1.34,1.34,0,0,0-2.67,0v6.8a2.66,2.66,0,1,0,2.67,0Z"/><rect class="cls-5" x="20.92" y="96.73" width="15.69" height="2.67" rx="1.33"/><rect class="cls-12" x="0.83" y="60.89" width="66.22" height="2.97" rx="1.49"/><rect class="cls-12" x="0.83" y="88.3" width="66.22" height="2.97" rx="1.49"/><path class="cls-11" d="M40.73,32.77c0,4.07-30.13,4.07-30.13,0s6.75-7.38,15.07-7.38S40.73,28.69,40.73,32.77Z"/><circle class="cls-11" cx="15.19" cy="26.89" r="2.99"/><circle class="cls-11" cx="25.02" cy="26.26" r="8.35"/><circle class="cls-11" cx="31.13" cy="27.81" r="6.93"/><path class="cls-11" d="M60.25,14.86c0,4.07-30.13,4.07-30.13,0s6.74-7.38,15.06-7.38S60.25,10.78,60.25,14.86Z"/><circle class="cls-11" cx="34.7" cy="8.98" r="2.99"/><circle class="cls-11" cx="44.54" cy="8.35" r="8.35"/><circle class="cls-11" cx="50.65" cy="9.89" r="6.93"/></g></g></svg>