<svg xmlns="http://www.w3.org/2000/svg" viewBox="0 0 68.06 137.1"><defs><style>.cls-1{fill:#b1c2cc;}.cls-2,.cls-9{fill:#ecf3fb;}.cls-3{fill:#a5b6c0;}.cls-4{fill:#707b81;}.cls-5{fill:#287eb9;}.cls-6{fill:#8f9ca4;}.cls-7{fill:#a04f3a;}.cls-8{fill:#c99c5b;}.cls-9{opacity:0.5;}.cls-10{fill:#b3573e;}</style></defs><g id="Laag_2" data-name="Laag 2"><g id="Laag_1-2" data-name="Laag 1"><path class="cls-1" d="M2.83,2.78H65.06a0,0,0,0,1,0,0v54.5a5.5,5.5,0,0,1-5.5,5.5H8.33a5.5,5.5,0,0,1-5.5-5.5V2.78A0,0,0,0,1,2.83,2.78Z"/><rect class="cls-2" x="13.33" y="2.78" width="10.27" height="60"/><rect class="cls-3" x="31.28" y="2.78" width="21.16" height="60"/><path class="cls-2" d="M10.6,2.78H8.06v60l.27,0H10.6Z"/><rect class="cls-4" x="8.06" y="62.78" width="51.78" height="2.22"/><rect class="cls-4" width="68.06" height="2.78" rx="1.28"/><path class="cls-4" d="M35.28,55V48.21a1.34,1.34,0,0,0-2.67,0V55a2.66,2.66,0,1,0,2.67,0Z"/><rect class="cls-5" x="20.92" y="49.5" width="15.69" height="2.67" rx="1.33"/><rect class="cls-6" x="0.83" y="13.67" width="66.22" height="2.97" rx="1.49"/><rect class="cls-6" x="0.83" y="41.08" width="66.22" height="2.97" rx="1.49"/><path class="cls-7" d="M31.28,94.39l1.41-36.33c0-1,.6-1.85,1.34-1.85h0c.73,0,1.33.83,1.33,1.85L36.6,94.39c0,1-1.84,1.85-2.57,1.85h0C33.29,96.24,31.28,95.41,31.28,94.39Z"/><circle class="cls-8" cx="37.81" cy="95.16" r="2.4"/><circle class="cls-8" cx="33.09" cy="94.61" r="4.05"/><circle class="cls-8" cx="28.47" cy="95.74" r="1.83"/><path class="cls-8" d="M17.33,95.81H50.7a1.94,1.94,0,0,1,1.94,1.94v3.34a0,0,0,0,1,0,0H15.21a0,0,0,0,1,0,0V97.93A2.12,2.12,0,0,1,17.33,95.81Z"/><path class="cls-9" d="M52.64,101.08H15.08V101a9.08,9.08,0,0,1,9-9.23,6.82,6.82,0,0,0,7-6.81V77.65h5.56v7.26a6.79,6.79,0,0,0,6.78,6.81,9.2,9.2,0,0,1,9.22,9.19Z"/><rect class="cls-10" x="33.86" y="101.08" width="18.78" height="32.91"/><rect class="cls-7" x="15.21" y="101.08" width="18.73" height="32.91"/><path class="cls-3" d="M43.3,90.72h0a5.45,5.45,0,0,1-5.44-5.45V80.18H39.2a1.27,1.27,0,1,0,0-2.53H36.66V81h0v4.26a6.66,6.66,0,0,0,6.64,6.65,9,9,0,0,1,9,9v29a3.77,3.77,0,0,1-3.76,3.76H19.38a3.76,3.76,0,0,1-3.76-3.76v-29a9,9,0,0,1,9-9,6.66,6.66,0,0,0,6.65-6.65V77.65H28.69a1.27,1.27,0,1,0,0,2.53H30v5.09a5.45,5.45,0,0,1-5.45,5.45h0a10.16,10.16,0,0,0-10.16,10.16v31.25a5,5,0,0,0,5,5H48.51a5,5,0,0,0,5-5V100.88A10.16,10.16,0,0,0,43.3,90.72Z"/></g></g></svg>