<svg xmlns="http://www.w3.org/2000/svg" viewBox="0 0 68.06 141.99"><defs><style>.cls-1{fill:#287eb9;}.cls-2{fill:#40444d;}.cls-3{fill:#707b81;}.cls-4{fill:#a5b6c0;}.cls-5{fill:#b1c2cc;}.cls-6{fill:#ecf3fb;}.cls-7{fill:#8f9ca4;}</style></defs><g id="Laag_2" data-name="Laag 2"><g id="Laag_1-2" data-name="Laag 1"><path class="cls-1" d="M17.12,118.45a1.33,1.33,0,0,1-2.66,0,8,8,0,0,1,1.33-2.57A8,8,0,0,1,17.12,118.45Z"/><path class="cls-1" d="M19.74,118.45a1.34,1.34,0,0,1-2.67,0,8,8,0,0,1,1.33-2.57A8,8,0,0,1,19.74,118.45Z"/><path class="cls-1" d="M22.35,118.45a1.34,1.34,0,0,1-2.67,0A8,8,0,0,1,21,115.88,8,8,0,0,1,22.35,118.45Z"/><path class="cls-1" d="M25,118.45a1.34,1.34,0,0,1-2.67,0,8,8,0,0,1,1.33-2.57A8,8,0,0,1,25,118.45Z"/><path class="cls-1" d="M27.57,118.45a1.34,1.34,0,0,1-2.67,0,8,8,0,0,1,1.33-2.57A8,8,0,0,1,27.57,118.45Z"/><path class="cls-1" d="M30.18,118.45a1.34,1.34,0,0,1-2.67,0,8,8,0,0,1,1.33-2.57A8,8,0,0,1,30.18,118.45Z"/><path class="cls-1" d="M32.79,118.45a1.34,1.34,0,0,1-2.67,0,8,8,0,0,1,1.33-2.57A8,8,0,0,1,32.79,118.45Z"/><path class="cls-1" d="M35.4,118.45a1.34,1.34,0,0,1-2.67,0,8,8,0,0,1,1.33-2.57A8,8,0,0,1,35.4,118.45Z"/><path class="cls-1" d="M38,118.45a1.34,1.34,0,0,1-2.67,0,8,8,0,0,1,1.33-2.57A8,8,0,0,1,38,118.45Z"/><path class="cls-1" d="M40.62,118.45a1.34,1.34,0,0,1-2.67,0,8,8,0,0,1,1.33-2.57A8,8,0,0,1,40.62,118.45Z"/><path class="cls-1" d="M43.23,118.45a1.34,1.34,0,0,1-2.67,0,8,8,0,0,1,1.34-2.57A8,8,0,0,1,43.23,118.45Z"/><path class="cls-1" d="M45.84,118.45a1.34,1.34,0,0,1-2.67,0,8,8,0,0,1,1.34-2.57A8,8,0,0,1,45.84,118.45Z"/><path class="cls-1" d="M48.45,118.45a1.34,1.34,0,0,1-2.67,0,8,8,0,0,1,1.34-2.57A8,8,0,0,1,48.45,118.45Z"/><path class="cls-1" d="M51.06,118.45a1.34,1.34,0,0,1-2.67,0,8,8,0,0,1,1.34-2.57A8,8,0,0,1,51.06,118.45Z"/><path class="cls-1" d="M53.67,118.45a1.34,1.34,0,0,1-2.67,0,8,8,0,0,1,1.34-2.57A8,8,0,0,1,53.67,118.45Z"/><rect class="cls-2" x="9.36" y="129.01" width="49.33" height="10.39"/><path class="cls-3" d="M45.78,129V126.9c0-1.07-1.15-1.93-2.57-1.93H24.79c-1.42,0-2.57.86-2.57,1.93V129h-5.1v-4c0-2.17,2.35-3.93,5.24-3.93H45.77c2.89,0,5.23,1.76,5.23,3.93v4Z"/><rect class="cls-3" x="11.91" y="121.1" width="44.31" height="1.92" rx="0.96"/><rect class="cls-2" x="53.67" y="137.03" width="2.55" height="4.96" rx="1.28"/><rect class="cls-2" x="11.91" y="137.03" width="2.55" height="4.96" rx="1.28"/><circle class="cls-4" cx="34.03" cy="134.2" r="3.42"/><circle class="cls-2" cx="34.03" cy="134.2" r="2.02"/><path class="cls-5" d="M2.83,50H65.06a0,0,0,0,1,0,0v54.5a5.5,5.5,0,0,1-5.5,5.5H8.33a5.5,5.5,0,0,1-5.5-5.5V50A0,0,0,0,1,2.83,50Z"/><rect class="cls-6" x="13.33" y="50" width="10.27" height="60"/><rect class="cls-4" x="31.28" y="50" width="21.16" height="60"/><path class="cls-6" d="M10.6,50H8.06v60H10.6Z"/><rect class="cls-3" x="8.06" y="110" width="51.78" height="2.22"/><rect class="cls-3" y="47.23" width="68.06" height="2.78" rx="1.28"/><path class="cls-3" d="M35.28,102.23v-6.8a1.34,1.34,0,0,0-2.67,0v6.8a2.66,2.66,0,1,0,2.67,0Z"/><rect class="cls-1" x="20.92" y="96.73" width="15.69" height="2.67" rx="1.33"/><rect class="cls-7" x="0.83" y="60.89" width="66.22" height="2.97" rx="1.49"/><rect class="cls-7" x="0.83" y="88.3" width="66.22" height="2.97" rx="1.49"/><path class="cls-6" d="M40.73,32.77c0,4.07-30.13,4.07-30.13,0s6.75-7.38,15.07-7.38S40.73,28.69,40.73,32.77Z"/><circle class="cls-6" cx="15.19" cy="26.89" r="2.99"/><circle class="cls-6" cx="25.02" cy="26.26" r="8.35"/><circle class="cls-6" cx="31.13" cy="27.81" r="6.93"/><path class="cls-6" d="M60.25,14.86c0,4.07-30.13,4.07-30.13,0s6.74-7.38,15.06-7.38S60.25,10.78,60.25,14.86Z"/><circle class="cls-6" cx="34.7" cy="8.98" r="2.99"/><circle class="cls-6" cx="44.54" cy="8.35" r="8.35"/><circle class="cls-6" cx="50.65" cy="9.89" r="6.93"/></g></g></svg>