<svg xmlns="http://www.w3.org/2000/svg" viewBox="0 0 13.04 46.54"><defs><style>.cls-1{fill:#cc9a5b;}.cls-2{fill:#bd8c47;}</style></defs><g id="Laag_2" data-name="Laag 2"><g id="Laag_10" data-name="Laag 10"><path class="cls-1" d="M6.46,13.82a2.54,2.54,0,0,0-2.54,2.54V44A2.54,2.54,0,0,0,9,44V16.36A2.54,2.54,0,0,0,6.46,13.82Zm.06,31.47A1.49,1.49,0,1,1,8,43.8,1.49,1.49,0,0,1,6.52,45.29Z"/><path class="cls-2" d="M0,2.61H13a0,0,0,0,1,0,0V13.12A4.87,4.87,0,0,1,8.17,18H4.87A4.87,4.87,0,0,1,0,13.12V2.61A0,0,0,0,1,0,2.61Z"/><rect class="cls-1" width="13.04" height="2.61"/></g></g></svg>