<svg xmlns="http://www.w3.org/2000/svg" viewBox="0 0 36.25 41.53"><defs><style>.cls-1{fill:#287eb9;}.cls-2{fill:#92a6a4;}.cls-3,.cls-4,.cls-5,.cls-6{fill:#ecf3fb;}.cls-3{opacity:0.49;}.cls-4{opacity:0.25;}.cls-5{opacity:0.35;}.cls-7{fill:#aabfb8;}</style></defs><g id="Laag_2" data-name="Laag 2"><g id="Laag_8" data-name="Laag 8"><path class="cls-1" d="M28.29,5.68a2.22,2.22,0,0,0-3.67,0h-2a2.22,2.22,0,0,0-3.67,0H17.44a2.22,2.22,0,0,0-3.67,0H12a2.12,2.12,0,0,0-1.83-1A1.93,1.93,0,0,0,8.06,6.48a1.93,1.93,0,0,0,2.07,1.76V38.63H28.69V5.68Z"/><path class="cls-2" d="M7.77,7.59V5.19H7a7,7,0,0,0-7,7v6.41a7,7,0,0,0,7,7h.79v-2.4A5.18,5.18,0,0,1,2.59,18V12.77A5.18,5.18,0,0,1,7.77,7.59Z"/><polygon class="cls-2" points="31.01 15.38 31.01 15.38 31.01 0 36.25 0 31.01 15.38"/><rect class="cls-3" x="10.13" width="18.56" height="37.18"/><rect class="cls-4" x="10.29" y="37.18" width="18.18" height="1.75"/><rect class="cls-5" x="11.95" width="7.03" height="37.18"/><circle class="cls-6" cx="24.57" cy="9.89" r="1.32"/><circle class="cls-6" cx="24.57" cy="19.79" r="1.32"/><circle class="cls-6" cx="24.57" cy="29.69" r="1.32"/><path class="cls-7" d="M28.48,0V38.63H10.29V0h-.07A2.46,2.46,0,0,0,7.77,2.46V39.07a2.46,2.46,0,0,0,2.45,2.46H28.55A2.46,2.46,0,0,0,31,39.07V0Z"/></g></g></svg>