<svg xmlns="http://www.w3.org/2000/svg" viewBox="0 0 68.06 117.8"><defs><style>.cls-1{fill:#b1c2cc;}.cls-10,.cls-11,.cls-2,.cls-9{fill:#ecf3fb;}.cls-3{fill:#a5b6c0;}.cls-4{fill:#707b81;}.cls-5{fill:#287eb9;}.cls-6{fill:#8f9ca4;}.cls-7{fill:#a04f3a;}.cls-8{fill:#92a6a4;}.cls-9{opacity:0.49;}.cls-10{opacity:0.25;}.cls-11{opacity:0.35;}.cls-12{fill:#aabfb8;}</style></defs><g id="Laag_2" data-name="Laag 2"><g id="Laag_1-2" data-name="Laag 1"><path class="cls-1" d="M2.83,2.78H65.06a0,0,0,0,1,0,0v54.5a5.5,5.5,0,0,1-5.5,5.5H8.33a5.5,5.5,0,0,1-5.5-5.5V2.78A0,0,0,0,1,2.83,2.78Z"/><rect class="cls-2" x="13.33" y="2.78" width="10.27" height="60"/><rect class="cls-3" x="31.28" y="2.78" width="21.16" height="60"/><path class="cls-2" d="M10.6,2.78H8.06v60l.27,0H10.6Z"/><rect class="cls-4" x="8.06" y="62.78" width="51.78" height="2.22"/><rect class="cls-4" width="68.06" height="2.78" rx="1.28"/><path class="cls-4" d="M35.28,55V48.21a1.34,1.34,0,0,0-2.67,0V55a2.66,2.66,0,1,0,2.67,0Z"/><rect class="cls-5" x="20.92" y="49.5" width="15.69" height="2.67" rx="1.33"/><rect class="cls-6" x="0.83" y="13.67" width="66.22" height="2.97" rx="1.49"/><rect class="cls-6" x="0.83" y="41.08" width="66.22" height="2.97" rx="1.49"/><path class="cls-7" d="M31.28,83.75l1.41-26.21A1.34,1.34,0,0,1,34,56.21h0a1.34,1.34,0,0,1,1.33,1.33L36.6,83.75c0,.74-1.84,1.34-2.57,1.34h0C33.29,85.09,31.28,84.49,31.28,83.75Z"/></g><g id="Laag_8" data-name="Laag 8"><path class="cls-7" d="M43.34,82a2.22,2.22,0,0,0-3.67,0h-2A2.22,2.22,0,0,0,34,82H32.49a2.22,2.22,0,0,0-3.67,0H27a2.12,2.12,0,0,0-1.84-1,1.79,1.79,0,1,0,0,3.53V114.9H43.74V82Z"/><path class="cls-8" d="M22.81,83.86V81.45H22a7,7,0,0,0-7,7v6.41a7,7,0,0,0,7,7h.78v-2.4a5.18,5.18,0,0,1-5.17-5.18V89A5.17,5.17,0,0,1,22.81,83.86Z"/><polygon class="cls-8" points="46.05 91.64 46.05 91.64 46.05 76.27 51.29 76.27 46.05 91.64"/><rect class="cls-9" x="25.17" y="76.27" width="18.56" height="37.18"/><rect class="cls-10" x="25.34" y="113.45" width="18.18" height="1.75"/><rect class="cls-11" x="27" y="76.27" width="7.03" height="37.18"/><circle class="cls-2" cx="39.62" cy="86.16" r="1.32"/><circle class="cls-2" cx="39.62" cy="96.06" r="1.32"/><circle class="cls-2" cx="39.62" cy="105.95" r="1.32"/><path class="cls-12" d="M43.53,76.27V114.9H25.34V76.27h-.07a2.46,2.46,0,0,0-2.46,2.45v36.62a2.46,2.46,0,0,0,2.46,2.46H43.6a2.46,2.46,0,0,0,2.45-2.46V76.27Z"/></g></g></svg>