<svg xmlns="http://www.w3.org/2000/svg" viewBox="0 0 68.06 175.08"><defs><style>.cls-1{fill:#287eb9;}.cls-2{fill:#40444d;}.cls-3{fill:#707b81;}.cls-4{fill:#a5b6c0;}.cls-5{fill:#b1c2cc;}.cls-6{fill:#ecf3fb;}.cls-7{fill:#8f9ca4;}.cls-8{fill:#a04f3a;}</style></defs><g id="Laag_2" data-name="Laag 2"><g id="Laag_1-2" data-name="Laag 1"><path class="cls-1" d="M17.12,151.53a1.33,1.33,0,0,1-2.66,0A8,8,0,0,1,15.79,149,8,8,0,0,1,17.12,151.53Z"/><path class="cls-1" d="M19.74,151.53a1.34,1.34,0,0,1-2.67,0A8,8,0,0,1,18.4,149,8,8,0,0,1,19.74,151.53Z"/><path class="cls-1" d="M22.35,151.53a1.34,1.34,0,0,1-2.67,0A8,8,0,0,1,21,149,8,8,0,0,1,22.35,151.53Z"/><path class="cls-1" d="M25,151.53a1.34,1.34,0,0,1-2.67,0A8,8,0,0,1,23.62,149,8,8,0,0,1,25,151.53Z"/><path class="cls-1" d="M27.57,151.53a1.34,1.34,0,0,1-2.67,0A8,8,0,0,1,26.23,149,8,8,0,0,1,27.57,151.53Z"/><path class="cls-1" d="M30.18,151.53a1.34,1.34,0,0,1-2.67,0A8,8,0,0,1,28.84,149,8,8,0,0,1,30.18,151.53Z"/><path class="cls-1" d="M32.79,151.53a1.34,1.34,0,0,1-2.67,0A8,8,0,0,1,31.45,149,8,8,0,0,1,32.79,151.53Z"/><path class="cls-1" d="M35.4,151.53a1.34,1.34,0,0,1-2.67,0A8,8,0,0,1,34.06,149,8,8,0,0,1,35.4,151.53Z"/><path class="cls-1" d="M38,151.53a1.34,1.34,0,0,1-2.67,0A8,8,0,0,1,36.67,149,8,8,0,0,1,38,151.53Z"/><path class="cls-1" d="M40.62,151.53a1.34,1.34,0,0,1-2.67,0A8,8,0,0,1,39.28,149,8,8,0,0,1,40.62,151.53Z"/><path class="cls-1" d="M43.23,151.53a1.34,1.34,0,0,1-2.67,0A8,8,0,0,1,41.9,149,8,8,0,0,1,43.23,151.53Z"/><path class="cls-1" d="M45.84,151.53a1.34,1.34,0,0,1-2.67,0A8,8,0,0,1,44.51,149,8,8,0,0,1,45.84,151.53Z"/><path class="cls-1" d="M48.45,151.53a1.34,1.34,0,0,1-2.67,0A8,8,0,0,1,47.12,149,8,8,0,0,1,48.45,151.53Z"/><path class="cls-1" d="M51.06,151.53a1.34,1.34,0,0,1-2.67,0A8,8,0,0,1,49.73,149,8,8,0,0,1,51.06,151.53Z"/><path class="cls-1" d="M53.67,151.53a1.34,1.34,0,0,1-2.67,0A8,8,0,0,1,52.34,149,8,8,0,0,1,53.67,151.53Z"/><rect class="cls-2" x="9.36" y="162.09" width="49.33" height="10.39"/><path class="cls-3" d="M45.78,162.09V160c0-1.06-1.15-1.92-2.57-1.92H24.79c-1.42,0-2.57.86-2.57,1.92v2.11h-5.1v-4c0-2.17,2.35-3.92,5.24-3.92H45.77c2.89,0,5.23,1.75,5.23,3.92v4Z"/><rect class="cls-3" x="11.91" y="154.19" width="44.31" height="1.92" rx="0.96"/><rect class="cls-2" x="53.67" y="170.12" width="2.55" height="4.96" rx="1.28"/><rect class="cls-2" x="11.91" y="170.12" width="2.55" height="4.96" rx="1.28"/><circle class="cls-4" cx="34.03" cy="167.29" r="3.42"/><circle class="cls-2" cx="34.03" cy="167.29" r="2.02"/><path class="cls-5" d="M2.83,2.78H65.06a0,0,0,0,1,0,0v54.5a5.5,5.5,0,0,1-5.5,5.5H8.33a5.5,5.5,0,0,1-5.5-5.5V2.78A0,0,0,0,1,2.83,2.78Z"/><rect class="cls-6" x="13.33" y="2.78" width="10.27" height="60"/><rect class="cls-4" x="31.28" y="2.78" width="21.16" height="60"/><path class="cls-6" d="M10.6,2.78H8.06v60l.27,0H10.6Z"/><rect class="cls-3" x="8.06" y="62.78" width="51.78" height="2.22"/><rect class="cls-3" width="68.06" height="2.78" rx="1.28"/><path class="cls-3" d="M35.28,55V48.21a1.34,1.34,0,0,0-2.67,0V55a2.66,2.66,0,1,0,2.67,0Z"/><rect class="cls-1" x="20.92" y="49.5" width="15.69" height="2.67" rx="1.33"/><rect class="cls-7" x="0.83" y="13.67" width="66.22" height="2.97" rx="1.49"/><rect class="cls-7" x="0.83" y="41.08" width="66.22" height="2.97" rx="1.49"/><path class="cls-8" d="M31.28,83.75l1.41-26.21A1.34,1.34,0,0,1,34,56.21h0a1.34,1.34,0,0,1,1.33,1.33L36.6,83.75c0,.74-1.84,1.34-2.57,1.34h0C33.29,85.09,31.28,84.49,31.28,83.75Z"/><path class="cls-5" d="M2.83,83.09H65.06a0,0,0,0,1,0,0v54.5a5.5,5.5,0,0,1-5.5,5.5H8.33a5.5,5.5,0,0,1-5.5-5.5V83.09A0,0,0,0,1,2.83,83.09Z"/><rect class="cls-6" x="13.33" y="83.09" width="10.27" height="60"/><rect class="cls-4" x="31.28" y="83.09" width="21.16" height="60"/><path class="cls-6" d="M10.6,83.09H8.06v60l.27,0H10.6Z"/><rect class="cls-3" x="8.06" y="143.09" width="51.78" height="2.22"/><rect class="cls-3" y="80.31" width="68.06" height="2.78" rx="1.28"/><path class="cls-3" d="M35.28,135.31v-6.79a1.34,1.34,0,0,0-2.67,0v6.79a2.66,2.66,0,1,0,2.67,0Z"/><rect class="cls-1" x="20.92" y="129.81" width="15.69" height="2.67" rx="1.33"/><rect class="cls-7" x="0.83" y="93.98" width="66.22" height="2.97" rx="1.49"/><rect class="cls-7" x="0.83" y="121.39" width="66.22" height="2.97" rx="1.49"/></g></g></svg>