<svg xmlns="http://www.w3.org/2000/svg" viewBox="0 0 68.06 133.36"><defs><style>.cls-1{fill:#b1c2cc;}.cls-2{fill:#ecf3fb;}.cls-3{fill:#a5b6c0;}.cls-10,.cls-4{fill:#707b81;}.cls-5{fill:#287eb9;}.cls-6{fill:#8f9ca4;}.cls-7{fill:#40444d;}.cls-8{fill:#e9533a;}.cls-9{fill:#6a757b;}.cls-10{font-size:8.11px;font-family:TradeGothicNextSRPro-Cn, Trade Gothic Next SR Pro;}</style></defs><g id="Laag_2" data-name="Laag 2"><g id="Laag_1-2" data-name="Laag 1"><path class="cls-1" d="M2.83,37.2H65.06a0,0,0,0,1,0,0V91.7a5.5,5.5,0,0,1-5.5,5.5H8.33a5.5,5.5,0,0,1-5.5-5.5V37.2a0,0,0,0,1,0,0Z"/><rect class="cls-2" x="13.33" y="37.2" width="10.27" height="60"/><rect class="cls-3" x="31.28" y="37.2" width="21.16" height="60"/><path class="cls-2" d="M10.6,37.2H8.06v60H10.6Z"/><rect class="cls-4" x="8.06" y="97.2" width="51.78" height="2.22"/><rect class="cls-4" y="34.43" width="68.06" height="2.78" rx="1.28"/><path class="cls-4" d="M35.28,89.43v-6.8a1.34,1.34,0,0,0-2.67,0v6.8a2.66,2.66,0,1,0,2.67,0Z"/><rect class="cls-5" x="20.92" y="83.93" width="15.69" height="2.67" rx="1.33"/><rect class="cls-6" x="0.83" y="48.09" width="66.22" height="2.97" rx="1.49"/><rect class="cls-6" x="0.83" y="75.5" width="66.22" height="2.97" rx="1.49"/></g><g id="Laag_3" data-name="Laag 3"><path class="cls-5" d="M17,109.81a1.34,1.34,0,0,1-2.67,0,8,8,0,0,1,1.34-2.57A8,8,0,0,1,17,109.81Z"/><path class="cls-5" d="M19.65,109.81a1.33,1.33,0,1,1-2.66,0,8,8,0,0,1,1.33-2.57A8,8,0,0,1,19.65,109.81Z"/><path class="cls-5" d="M22.26,109.81a1.33,1.33,0,0,1-2.66,0,8,8,0,0,1,1.33-2.57A8,8,0,0,1,22.26,109.81Z"/><path class="cls-5" d="M24.87,109.81a1.33,1.33,0,0,1-2.66,0,8,8,0,0,1,1.33-2.57A8,8,0,0,1,24.87,109.81Z"/><path class="cls-5" d="M27.48,109.81a1.33,1.33,0,0,1-2.66,0,8,8,0,0,1,1.33-2.57A8,8,0,0,1,27.48,109.81Z"/><path class="cls-5" d="M30.09,109.81a1.33,1.33,0,1,1-2.66,0,8,8,0,0,1,1.33-2.57A8,8,0,0,1,30.09,109.81Z"/><path class="cls-5" d="M32.7,109.81a1.33,1.33,0,0,1-2.66,0,8,8,0,0,1,1.33-2.57A8,8,0,0,1,32.7,109.81Z"/><path class="cls-5" d="M35.31,109.81a1.33,1.33,0,0,1-2.66,0A8,8,0,0,1,34,107.24,8,8,0,0,1,35.31,109.81Z"/><path class="cls-5" d="M37.92,109.81a1.33,1.33,0,1,1-2.66,0,8,8,0,0,1,1.33-2.57A8,8,0,0,1,37.92,109.81Z"/><path class="cls-5" d="M40.53,109.81a1.33,1.33,0,1,1-2.66,0,8,8,0,0,1,1.33-2.57A8,8,0,0,1,40.53,109.81Z"/><path class="cls-5" d="M43.15,109.81a1.34,1.34,0,0,1-2.67,0,8,8,0,0,1,1.33-2.57A8,8,0,0,1,43.15,109.81Z"/><path class="cls-5" d="M45.76,109.81a1.34,1.34,0,0,1-2.67,0,8,8,0,0,1,1.33-2.57A8,8,0,0,1,45.76,109.81Z"/><path class="cls-5" d="M48.37,109.81a1.34,1.34,0,0,1-2.67,0A8,8,0,0,1,47,107.24,8,8,0,0,1,48.37,109.81Z"/><path class="cls-5" d="M51,109.81a1.34,1.34,0,0,1-2.67,0,8,8,0,0,1,1.33-2.57A8,8,0,0,1,51,109.81Z"/><path class="cls-5" d="M53.59,109.81a1.34,1.34,0,0,1-2.67,0,8,8,0,0,1,1.33-2.57A8,8,0,0,1,53.59,109.81Z"/><rect class="cls-7" x="9.28" y="120.37" width="49.33" height="10.39"/><path class="cls-4" d="M45.7,120.37v-2.11c0-1.06-1.15-1.92-2.57-1.92H24.71c-1.42,0-2.57.86-2.57,1.92v2.11H17v-4c0-2.17,2.35-3.92,5.24-3.92h23.4c2.9,0,5.24,1.75,5.24,3.92v4Z"/><rect class="cls-4" x="11.83" y="112.47" width="44.31" height="1.92" rx="0.96"/><rect class="cls-7" x="53.59" y="128.4" width="2.55" height="4.96" rx="1.28"/><rect class="cls-7" x="11.83" y="128.4" width="2.55" height="4.96" rx="1.28"/><circle class="cls-3" cx="33.94" cy="125.57" r="3.42"/><circle class="cls-7" cx="33.94" cy="125.57" r="2.02"/></g><g id="Laag_5" data-name="Laag 5"><path class="cls-8" d="M32.65,0A14.25,14.25,0,1,0,46.9,14.25,14.25,14.25,0,0,0,32.65,0Zm0,27.31A13.07,13.07,0,1,1,45.71,14.25,13.07,13.07,0,0,1,32.65,27.31Z"/><circle class="cls-2" cx="32.65" cy="14.25" r="11.78"/><path class="cls-9" d="M32.65,1.18A13.07,13.07,0,1,0,45.71,14.25,13.07,13.07,0,0,0,32.65,1.18Zm0,24.85A11.78,11.78,0,1,1,44.43,14.25,11.78,11.78,0,0,1,32.65,26Z"/><rect class="cls-7" x="31.4" y="5.22" width="2.58" height="12.74" rx="1.29"/><circle class="cls-3" cx="24.87" cy="14.25" r="1.19"/><circle class="cls-3" cx="27.26" cy="8.7" r="1.19"/><circle class="cls-3" cx="27.26" cy="19.84" r="1.19"/><circle class="cls-3" cx="38.26" cy="19.84" r="1.19"/><circle class="cls-4" cx="35.1" cy="19.44" r="0.66"/><circle class="cls-3" cx="38.26" cy="8.7" r="1.19"/><circle class="cls-3" cx="40.51" cy="14.27" r="1.19"/><circle class="cls-3" cx="32.69" cy="14.27" r="0.77"/><text class="cls-10" transform="translate(30.74 25.21) scale(0.97 1)">C</text></g></g></svg>