<svg xmlns="http://www.w3.org/2000/svg" viewBox="0 0 103.44 148.3"><defs><style>.cls-1{fill:#cc9a5b;}.cls-2{fill:#bd8c47;}.cls-3{fill:#c99c5b;}.cls-4{fill:#a5b6c0;}.cls-5{fill:#d4dabe;}.cls-6{fill:#c2c8ac;}.cls-7{fill:#90aa9f;}.cls-8{fill:#b1c2cc;}.cls-9{fill:#ecf3fb;}.cls-10{fill:#707b81;}.cls-11{fill:#287eb9;}.cls-12{fill:#8f9ca4;}.cls-13{fill:#40444d;}</style></defs><g id="Laag_2" data-name="Laag 2"><g id="Laag_15" data-name="Laag 15"><path class="cls-1" d="M24.33,48.9a2.53,2.53,0,0,0,0-3.6L4.79,25.76A2.54,2.54,0,1,0,1.2,29.35L20.74,48.9A2.54,2.54,0,0,0,24.33,48.9ZM2,26.69a1.47,1.47,0,0,1,2.1,0A1.48,1.48,0,1,1,2,28.79,1.47,1.47,0,0,1,2,26.69Z"/><path class="cls-2" d="M20.26,43.74h13a0,0,0,0,1,0,0V54.25a4.87,4.87,0,0,1-4.87,4.87H25.13a4.87,4.87,0,0,1-4.87-4.87V43.74a0,0,0,0,1,0,0Z" transform="translate(82.08 68.86) rotate(135)"/><rect class="cls-1" x="26.62" y="56.49" width="13.04" height="2.61" transform="translate(97.43 75.22) rotate(135)"/><circle class="cls-3" cx="55.25" cy="56.21" r="0.34"/><circle class="cls-3" cx="55.24" cy="54.91" r="0.34"/><circle class="cls-3" cx="56.57" cy="46.96" r="0.34"/><circle class="cls-3" cx="56.57" cy="56.2" r="0.34"/><circle class="cls-3" cx="56.56" cy="54.9" r="0.34"/><circle class="cls-3" cx="55.92" cy="56.81" r="0.34"/><circle class="cls-3" cx="55.92" cy="55.52" r="0.34"/><circle class="cls-3" cx="55.91" cy="54.22" r="0.34"/><circle class="cls-3" cx="55.24" cy="53.53" r="0.34"/><circle class="cls-3" cx="55.23" cy="52.23" r="0.34"/><circle class="cls-3" cx="55.22" cy="50.94" r="0.34"/><circle class="cls-3" cx="56.56" cy="53.53" r="0.34"/><circle class="cls-3" cx="56.55" cy="52.23" r="0.34"/><circle class="cls-3" cx="56.55" cy="50.93" r="0.34"/><circle class="cls-3" cx="55.9" cy="52.84" r="0.34"/><circle class="cls-3" cx="55.9" cy="51.54" r="0.34"/><circle class="cls-3" cx="55.89" cy="50.24" r="0.34"/><circle class="cls-3" cx="55.22" cy="49.56" r="0.34"/><circle class="cls-3" cx="55.21" cy="48.26" r="0.34"/><circle class="cls-3" cx="55.21" cy="46.96" r="0.34"/><circle class="cls-3" cx="56.54" cy="49.55" r="0.34"/><circle class="cls-3" cx="56.53" cy="48.25" r="0.34"/><circle class="cls-3" cx="55.89" cy="48.86" r="0.34"/><circle class="cls-3" cx="55.88" cy="47.56" r="0.34"/><circle class="cls-3" cx="57.91" cy="56.2" r="0.34"/><circle class="cls-3" cx="57.9" cy="54.9" r="0.34"/><circle class="cls-3" cx="57.26" cy="56.81" r="0.34"/><circle class="cls-3" cx="57.26" cy="55.51" r="0.34"/><circle class="cls-3" cx="57.25" cy="54.21" r="0.34"/><circle class="cls-3" cx="57.9" cy="53.52" r="0.34"/><circle class="cls-3" cx="57.89" cy="52.22" r="0.34"/><circle class="cls-3" cx="57.88" cy="50.92" r="0.34"/><circle class="cls-3" cx="57.24" cy="52.83" r="0.34"/><circle class="cls-3" cx="57.24" cy="51.53" r="0.34"/><circle class="cls-3" cx="57.23" cy="50.24" r="0.34"/><circle class="cls-3" cx="57.88" cy="49.54" r="0.34"/><circle class="cls-3" cx="57.87" cy="48.25" r="0.34"/><circle class="cls-3" cx="57.87" cy="46.95" r="0.34"/><circle class="cls-3" cx="57.23" cy="48.86" r="0.34"/><circle class="cls-3" cx="57.22" cy="47.56" r="0.34"/><circle class="cls-3" cx="53.23" cy="56.89" r="0.34"/><circle class="cls-3" cx="53.22" cy="55.59" r="0.34"/><circle class="cls-3" cx="53.21" cy="54.29" r="0.34"/><circle class="cls-3" cx="52.57" cy="56.2" r="0.34"/><circle class="cls-3" cx="52.57" cy="54.9" r="0.34"/><circle class="cls-3" cx="52.56" cy="53.61" r="0.34"/><circle class="cls-3" cx="53.21" cy="52.91" r="0.34"/><circle class="cls-3" cx="53.2" cy="51.62" r="0.34"/><circle class="cls-3" cx="53.2" cy="50.32" r="0.34"/><circle class="cls-3" cx="52.56" cy="52.23" r="0.34"/><circle class="cls-3" cx="52.55" cy="50.93" r="0.34"/><circle class="cls-3" cx="52.54" cy="49.63" r="0.34"/><circle class="cls-3" cx="53.19" cy="48.94" r="0.34"/><circle class="cls-3" cx="53.18" cy="47.64" r="0.34"/><circle class="cls-3" cx="52.54" cy="48.25" r="0.34"/><circle class="cls-3" cx="52.53" cy="46.95" r="0.34"/><circle class="cls-3" cx="54.56" cy="56.88" r="0.34"/><circle class="cls-3" cx="54.56" cy="55.59" r="0.34"/><circle class="cls-3" cx="54.55" cy="54.29" r="0.34"/><circle class="cls-3" cx="53.91" cy="56.2" r="0.34"/><circle class="cls-3" cx="53.91" cy="54.9" r="0.34"/><circle class="cls-3" cx="53.9" cy="53.6" r="0.34"/><circle class="cls-3" cx="54.55" cy="52.91" r="0.34"/><circle class="cls-3" cx="54.54" cy="51.61" r="0.34"/><circle class="cls-3" cx="54.53" cy="50.31" r="0.34"/><circle class="cls-3" cx="53.89" cy="52.22" r="0.34"/><circle class="cls-3" cx="53.89" cy="50.92" r="0.34"/><circle class="cls-3" cx="53.88" cy="49.63" r="0.34"/><circle class="cls-3" cx="54.53" cy="48.93" r="0.34"/><circle class="cls-3" cx="54.52" cy="47.63" r="0.34"/><circle class="cls-3" cx="53.88" cy="48.25" r="0.34"/><circle class="cls-3" cx="53.87" cy="46.95" r="0.34"/><circle class="cls-3" cx="50.5" cy="56.89" r="0.34"/><circle class="cls-3" cx="50.5" cy="55.59" r="0.34"/><circle class="cls-3" cx="50.49" cy="54.29" r="0.34"/><circle class="cls-3" cx="49.85" cy="56.2" r="0.34"/><circle class="cls-3" cx="49.85" cy="54.9" r="0.34"/><circle class="cls-3" cx="49.84" cy="53.61" r="0.34"/><circle class="cls-3" cx="50.49" cy="52.91" r="0.34"/><circle class="cls-3" cx="50.48" cy="51.62" r="0.34"/><circle class="cls-3" cx="50.47" cy="50.32" r="0.34"/><circle class="cls-3" cx="49.83" cy="52.23" r="0.34"/><circle class="cls-3" cx="49.83" cy="50.93" r="0.34"/><circle class="cls-3" cx="49.82" cy="49.63" r="0.34"/><circle class="cls-3" cx="50.47" cy="48.94" r="0.34"/><circle class="cls-3" cx="50.46" cy="47.64" r="0.34"/><circle class="cls-3" cx="49.82" cy="48.25" r="0.34"/><circle class="cls-3" cx="49.81" cy="46.95" r="0.34"/><circle class="cls-3" cx="51.84" cy="56.88" r="0.34"/><circle class="cls-3" cx="51.84" cy="55.59" r="0.34"/><circle class="cls-3" cx="51.83" cy="54.29" r="0.34"/><circle class="cls-3" cx="51.19" cy="56.2" r="0.34"/><circle class="cls-3" cx="51.18" cy="54.9" r="0.34"/><circle class="cls-3" cx="51.18" cy="53.6" r="0.34"/><circle class="cls-3" cx="51.83" cy="52.91" r="0.34"/><circle class="cls-3" cx="51.82" cy="51.61" r="0.34"/><circle class="cls-3" cx="51.81" cy="50.31" r="0.34"/><circle class="cls-3" cx="51.17" cy="52.22" r="0.34"/><circle class="cls-3" cx="51.17" cy="50.92" r="0.34"/><circle class="cls-3" cx="51.16" cy="49.63" r="0.34"/><circle class="cls-3" cx="51.81" cy="48.93" r="0.34"/><circle class="cls-3" cx="51.8" cy="47.63" r="0.34"/><circle class="cls-3" cx="51.16" cy="48.25" r="0.34"/><circle class="cls-3" cx="51.15" cy="46.95" r="0.34"/><circle class="cls-3" cx="47.82" cy="56.89" r="0.34"/><circle class="cls-3" cx="47.82" cy="55.59" r="0.34"/><circle class="cls-3" cx="47.81" cy="54.29" r="0.34"/><circle class="cls-3" cx="47.81" cy="52.91" r="0.34"/><circle class="cls-3" cx="47.8" cy="51.62" r="0.34"/><circle class="cls-3" cx="47.79" cy="50.32" r="0.34"/><circle class="cls-3" cx="47.79" cy="48.94" r="0.34"/><circle class="cls-3" cx="47.78" cy="47.64" r="0.34"/><circle class="cls-3" cx="49.16" cy="56.88" r="0.34"/><circle class="cls-3" cx="49.16" cy="55.59" r="0.34"/><circle class="cls-3" cx="49.15" cy="54.29" r="0.34"/><circle class="cls-3" cx="48.51" cy="56.2" r="0.34"/><circle class="cls-3" cx="48.5" cy="54.9" r="0.34"/><circle class="cls-3" cx="48.5" cy="53.6" r="0.34"/><circle class="cls-3" cx="49.14" cy="52.91" r="0.34"/><circle class="cls-3" cx="49.14" cy="51.61" r="0.34"/><circle class="cls-3" cx="49.13" cy="50.31" r="0.34"/><circle class="cls-3" cx="48.49" cy="52.22" r="0.34"/><circle class="cls-3" cx="48.49" cy="50.92" r="0.34"/><circle class="cls-3" cx="48.48" cy="49.63" r="0.34"/><circle class="cls-3" cx="49.13" cy="48.93" r="0.34"/><circle class="cls-3" cx="49.12" cy="47.63" r="0.34"/><circle class="cls-3" cx="48.48" cy="48.25" r="0.34"/><circle class="cls-3" cx="48.47" cy="46.95" r="0.34"/><circle class="cls-3" cx="55.25" cy="45.58" r="0.34"/><circle class="cls-3" cx="55.24" cy="44.29" r="0.34"/><circle class="cls-3" cx="56.57" cy="36.33" r="0.34"/><circle class="cls-3" cx="56.57" cy="45.58" r="0.34"/><circle class="cls-3" cx="56.56" cy="44.28" r="0.34"/><circle class="cls-3" cx="55.92" cy="46.19" r="0.34"/><circle class="cls-3" cx="55.92" cy="44.89" r="0.34"/><circle class="cls-3" cx="55.91" cy="43.59" r="0.34"/><circle class="cls-3" cx="55.24" cy="42.91" r="0.34"/><circle class="cls-3" cx="55.23" cy="41.61" r="0.34"/><circle class="cls-3" cx="55.22" cy="40.31" r="0.34"/><circle class="cls-3" cx="56.56" cy="42.9" r="0.34"/><circle class="cls-3" cx="56.55" cy="41.6" r="0.34"/><circle class="cls-3" cx="56.55" cy="40.3" r="0.34"/><circle class="cls-3" cx="55.9" cy="42.21" r="0.34"/><circle class="cls-3" cx="55.9" cy="40.91" r="0.34"/><circle class="cls-3" cx="55.89" cy="39.62" r="0.34"/><circle class="cls-3" cx="55.22" cy="38.93" r="0.34"/><circle class="cls-3" cx="55.21" cy="37.63" r="0.34"/><circle class="cls-3" cx="55.21" cy="36.33" r="0.34"/><circle class="cls-3" cx="56.54" cy="38.92" r="0.34"/><circle class="cls-3" cx="56.53" cy="37.63" r="0.34"/><circle class="cls-3" cx="55.89" cy="38.24" r="0.34"/><circle class="cls-3" cx="55.88" cy="36.94" r="0.34"/><circle class="cls-3" cx="57.91" cy="45.57" r="0.34"/><circle class="cls-3" cx="57.9" cy="44.27" r="0.34"/><circle class="cls-3" cx="57.26" cy="46.18" r="0.34"/><circle class="cls-3" cx="57.26" cy="44.88" r="0.34"/><circle class="cls-3" cx="57.25" cy="43.59" r="0.34"/><circle class="cls-3" cx="57.9" cy="42.89" r="0.34"/><circle class="cls-3" cx="57.89" cy="41.6" r="0.34"/><circle class="cls-3" cx="57.88" cy="40.3" r="0.34"/><circle class="cls-3" cx="57.24" cy="42.21" r="0.34"/><circle class="cls-3" cx="57.24" cy="40.91" r="0.34"/><circle class="cls-3" cx="57.23" cy="39.61" r="0.34"/><circle class="cls-3" cx="57.88" cy="38.92" r="0.34"/><circle class="cls-3" cx="57.87" cy="37.62" r="0.34"/><circle class="cls-3" cx="57.87" cy="36.32" r="0.34"/><circle class="cls-3" cx="57.23" cy="38.23" r="0.34"/><circle class="cls-3" cx="57.22" cy="36.93" r="0.34"/><circle class="cls-3" cx="53.23" cy="46.26" r="0.34"/><circle class="cls-3" cx="53.22" cy="44.97" r="0.34"/><circle class="cls-3" cx="53.21" cy="43.67" r="0.34"/><circle class="cls-3" cx="52.57" cy="45.58" r="0.34"/><circle class="cls-3" cx="52.57" cy="44.28" r="0.34"/><circle class="cls-3" cx="52.56" cy="42.98" r="0.34"/><circle class="cls-3" cx="53.21" cy="42.29" r="0.34"/><circle class="cls-3" cx="53.2" cy="40.99" r="0.34"/><circle class="cls-3" cx="53.2" cy="39.69" r="0.34"/><circle class="cls-3" cx="52.56" cy="41.6" r="0.34"/><circle class="cls-3" cx="52.55" cy="40.3" r="0.34"/><circle class="cls-3" cx="52.54" cy="39.01" r="0.34"/><circle class="cls-3" cx="53.19" cy="38.31" r="0.34"/><circle class="cls-3" cx="53.18" cy="37.02" r="0.34"/><circle class="cls-3" cx="52.54" cy="37.63" r="0.34"/><circle class="cls-3" cx="54.56" cy="46.26" r="0.34"/><circle class="cls-3" cx="54.56" cy="44.96" r="0.34"/><circle class="cls-3" cx="54.55" cy="43.66" r="0.34"/><circle class="cls-3" cx="53.91" cy="45.57" r="0.34"/><circle class="cls-3" cx="53.91" cy="44.27" r="0.34"/><circle class="cls-3" cx="53.9" cy="42.98" r="0.34"/><circle class="cls-3" cx="54.55" cy="42.28" r="0.34"/><circle class="cls-3" cx="54.54" cy="40.98" r="0.34"/><circle class="cls-3" cx="54.53" cy="39.69" r="0.34"/><circle class="cls-3" cx="53.89" cy="41.6" r="0.34"/><circle class="cls-3" cx="53.89" cy="40.3" r="0.34"/><circle class="cls-3" cx="53.88" cy="39" r="0.34"/><circle class="cls-3" cx="54.53" cy="38.31" r="0.34"/><circle class="cls-3" cx="54.52" cy="37.01" r="0.34"/><circle class="cls-3" cx="53.88" cy="37.62" r="0.34"/><circle class="cls-3" cx="53.87" cy="36.32" r="0.34"/><circle class="cls-3" cx="50.5" cy="46.26" r="0.34"/><circle class="cls-3" cx="50.5" cy="44.97" r="0.34"/><circle class="cls-3" cx="50.49" cy="43.67" r="0.34"/><circle class="cls-3" cx="49.85" cy="45.58" r="0.34"/><circle class="cls-3" cx="49.85" cy="44.28" r="0.34"/><circle class="cls-3" cx="49.84" cy="42.98" r="0.34"/><circle class="cls-3" cx="50.49" cy="42.29" r="0.34"/><circle class="cls-3" cx="50.48" cy="40.99" r="0.34"/><circle class="cls-3" cx="50.47" cy="39.69" r="0.34"/><circle class="cls-3" cx="49.83" cy="41.6" r="0.34"/><circle class="cls-3" cx="49.83" cy="40.3" r="0.34"/><circle class="cls-3" cx="49.82" cy="39.01" r="0.34"/><circle class="cls-3" cx="50.47" cy="38.31" r="0.34"/><circle class="cls-3" cx="51.84" cy="46.26" r="0.34"/><circle class="cls-3" cx="51.84" cy="44.96" r="0.34"/><circle class="cls-3" cx="51.83" cy="43.66" r="0.34"/><circle class="cls-3" cx="51.19" cy="45.57" r="0.34"/><circle class="cls-3" cx="51.18" cy="44.27" r="0.34"/><circle class="cls-3" cx="51.18" cy="42.98" r="0.34"/><circle class="cls-3" cx="51.83" cy="42.28" r="0.34"/><circle class="cls-3" cx="51.82" cy="40.98" r="0.34"/><circle class="cls-3" cx="51.81" cy="39.69" r="0.34"/><circle class="cls-3" cx="51.17" cy="41.6" r="0.34"/><circle class="cls-3" cx="51.17" cy="40.3" r="0.34"/><circle class="cls-3" cx="51.16" cy="39" r="0.34"/><circle class="cls-3" cx="51.81" cy="38.31" r="0.34"/><circle class="cls-3" cx="51.16" cy="37.62" r="0.34"/><circle class="cls-3" cx="47.82" cy="46.26" r="0.34"/><circle class="cls-3" cx="47.82" cy="44.97" r="0.34"/><circle class="cls-3" cx="49.16" cy="46.26" r="0.34"/><circle class="cls-3" cx="49.16" cy="44.96" r="0.34"/><circle class="cls-3" cx="49.15" cy="43.66" r="0.34"/><circle class="cls-3" cx="48.51" cy="45.57" r="0.34"/><circle class="cls-3" cx="48.5" cy="44.27" r="0.34"/><circle class="cls-3" cx="48.5" cy="42.98" r="0.34"/><circle class="cls-3" cx="49.14" cy="42.28" r="0.34"/><circle class="cls-3" cx="49.14" cy="40.98" r="0.34"/><path class="cls-4" d="M49.77,13.08A19,19,0,0,1,74.39,23.72l.36.9A19,19,0,0,1,64.11,49.25l.47,1.18A20.2,20.2,0,0,0,75.91,24.2l-.38-1A20.21,20.21,0,0,0,49.3,11.9Z"/><rect class="cls-4" x="33.75" y="30.6" width="44.23" height="2.51" rx="1.25" transform="translate(46.86 95.53) rotate(-111.64)"/><rect class="cls-5" x="35.15" y="29.58" width="38.91" height="5.02" transform="translate(44.92 94.68) rotate(-111.64)"/><rect class="cls-6" x="57.34" y="44.65" width="6.5" height="5.02" transform="translate(39.1 120.86) rotate(-111.64)"/><rect class="cls-6" x="43.09" y="21.76" width="16.83" height="5.02" transform="translate(47.94 81.1) rotate(-111.64)"/><rect class="cls-5" x="60.65" y="3.5" width="33.65" height="39.03" transform="translate(84.65 103.52) rotate(-111.64)"/><rect class="cls-6" x="79.38" y="16.22" width="6.28" height="39.03" transform="translate(79.73 125.62) rotate(-111.64)"/><rect class="cls-6" x="67.91" y="-2.99" width="13.98" height="39.03" transform="translate(87.16 92.23) rotate(-111.64)"/><rect class="cls-7" x="41.31" y="29.4" width="33.65" height="2.57" transform="translate(51.05 96.05) rotate(-111.64)"/><path class="cls-7" d="M80,14.06h33.65a0,0,0,0,1,0,0v0a2.57,2.57,0,0,1-2.57,2.57H82.56A2.57,2.57,0,0,1,80,14.06v0A0,0,0,0,1,80,14.06Z" transform="translate(118.25 110.99) rotate(-111.64)"/><path class="cls-8" d="M2.83,58.43H65.06a0,0,0,0,1,0,0v54.5a5.5,5.5,0,0,1-5.5,5.5H8.33a5.5,5.5,0,0,1-5.5-5.5V58.43a0,0,0,0,1,0,0Z"/><rect class="cls-9" x="13.33" y="58.43" width="10.27" height="60"/><rect class="cls-4" x="31.28" y="58.43" width="21.16" height="60"/><path class="cls-9" d="M10.6,58.43H8.06v60l.27,0H10.6Z"/><rect class="cls-10" x="8.06" y="118.43" width="51.78" height="2.22"/><rect class="cls-10" y="55.65" width="68.06" height="2.78" rx="1.28"/><path class="cls-10" d="M35.28,110.65v-6.79a1.34,1.34,0,0,0-2.67,0v6.79a2.66,2.66,0,1,0,2.67,0Z"/><rect class="cls-11" x="20.92" y="105.15" width="15.69" height="2.67" rx="1.33"/><rect class="cls-12" x="0.83" y="69.32" width="66.22" height="2.97" rx="1.49"/><rect class="cls-12" x="0.83" y="96.73" width="66.22" height="2.97" rx="1.49"/><path class="cls-11" d="M17,124.75a1.34,1.34,0,0,1-2.67,0,8,8,0,0,1,1.34-2.57A8,8,0,0,1,17,124.75Z"/><path class="cls-11" d="M19.65,124.75a1.33,1.33,0,1,1-2.66,0,8,8,0,0,1,1.33-2.57A8,8,0,0,1,19.65,124.75Z"/><path class="cls-11" d="M22.26,124.75a1.33,1.33,0,0,1-2.66,0,8,8,0,0,1,1.33-2.57A8,8,0,0,1,22.26,124.75Z"/><path class="cls-11" d="M24.87,124.75a1.33,1.33,0,0,1-2.66,0,8,8,0,0,1,1.33-2.57A8,8,0,0,1,24.87,124.75Z"/><path class="cls-11" d="M27.48,124.75a1.33,1.33,0,0,1-2.66,0,8,8,0,0,1,1.33-2.57A8,8,0,0,1,27.48,124.75Z"/><path class="cls-11" d="M30.09,124.75a1.33,1.33,0,1,1-2.66,0,8,8,0,0,1,1.33-2.57A8,8,0,0,1,30.09,124.75Z"/><path class="cls-11" d="M32.7,124.75a1.33,1.33,0,0,1-2.66,0,8,8,0,0,1,1.33-2.57A8,8,0,0,1,32.7,124.75Z"/><path class="cls-11" d="M35.31,124.75a1.33,1.33,0,0,1-2.66,0A8,8,0,0,1,34,122.18,8,8,0,0,1,35.31,124.75Z"/><path class="cls-11" d="M37.92,124.75a1.33,1.33,0,1,1-2.66,0,8,8,0,0,1,1.33-2.57A8,8,0,0,1,37.92,124.75Z"/><path class="cls-11" d="M40.53,124.75a1.33,1.33,0,1,1-2.66,0,8,8,0,0,1,1.33-2.57A8,8,0,0,1,40.53,124.75Z"/><path class="cls-11" d="M43.15,124.75a1.34,1.34,0,0,1-2.67,0,8,8,0,0,1,1.33-2.57A8,8,0,0,1,43.15,124.75Z"/><path class="cls-11" d="M45.76,124.75a1.34,1.34,0,0,1-2.67,0,8,8,0,0,1,1.33-2.57A8,8,0,0,1,45.76,124.75Z"/><path class="cls-11" d="M48.37,124.75a1.34,1.34,0,0,1-2.67,0A8,8,0,0,1,47,122.18,8,8,0,0,1,48.37,124.75Z"/><path class="cls-11" d="M51,124.75a1.34,1.34,0,0,1-2.67,0,8,8,0,0,1,1.33-2.57A8,8,0,0,1,51,124.75Z"/><path class="cls-11" d="M53.59,124.75a1.34,1.34,0,0,1-2.67,0,8,8,0,0,1,1.33-2.57A8,8,0,0,1,53.59,124.75Z"/><rect class="cls-13" x="9.28" y="135.31" width="49.33" height="10.39"/><path class="cls-10" d="M45.7,135.31V133.2c0-1.06-1.15-1.92-2.57-1.92H24.71c-1.42,0-2.57.86-2.57,1.92v2.11H17v-4c0-2.17,2.35-3.92,5.24-3.92h23.4c2.9,0,5.24,1.75,5.24,3.92v4Z"/><rect class="cls-10" x="11.83" y="127.41" width="44.31" height="1.92" rx="0.96"/><rect class="cls-13" x="53.59" y="143.34" width="2.55" height="4.96" rx="1.28"/><rect class="cls-13" x="11.83" y="143.34" width="2.55" height="4.96" rx="1.28"/><circle class="cls-4" cx="33.94" cy="140.51" r="3.42"/><circle class="cls-13" cx="33.94" cy="140.51" r="2.02"/></g></g></svg>