<svg xmlns="http://www.w3.org/2000/svg" viewBox="0 0 54.64 118.32"><defs><style>.cls-1{fill:#c99c5b;}.cls-2{fill:#287eb9;}.cls-3{fill:#707b81;}.cls-4{fill:#b1c2cc;}.cls-5{fill:#ecf3fb;}.cls-6{fill:#a5b6c0;}.cls-7{fill:#d4dabe;}.cls-8{fill:#c2c8ac;}.cls-9{fill:#90aa9f;}</style></defs><g id="Laag_2" data-name="Laag 2"><g id="Laag_6" data-name="Laag 6"><circle class="cls-1" cx="33.93" cy="51.12" r="0.34"/><circle class="cls-1" cx="33.93" cy="52.41" r="0.34"/><circle class="cls-1" cx="33.93" cy="53.71" r="0.34"/><circle class="cls-1" cx="32.61" cy="51.12" r="0.34"/><circle class="cls-1" cx="32.61" cy="52.41" r="0.34"/><circle class="cls-1" cx="32.61" cy="53.71" r="0.34"/><circle class="cls-1" cx="33.25" cy="51.81" r="0.34"/><circle class="cls-1" cx="33.25" cy="53.1" r="0.34"/><circle class="cls-1" cx="33.25" cy="54.4" r="0.34"/><circle class="cls-1" cx="33.93" cy="55.09" r="0.34"/><circle class="cls-1" cx="33.93" cy="56.39" r="0.34"/><circle class="cls-1" cx="33.93" cy="57.69" r="0.34"/><circle class="cls-1" cx="32.61" cy="55.09" r="0.34"/><circle class="cls-1" cx="32.61" cy="56.39" r="0.34"/><circle class="cls-1" cx="32.61" cy="57.69" r="0.34"/><circle class="cls-1" cx="33.25" cy="55.78" r="0.34"/><circle class="cls-1" cx="33.25" cy="57.08" r="0.34"/><circle class="cls-1" cx="33.25" cy="58.38" r="0.34"/><circle class="cls-1" cx="33.93" cy="59.07" r="0.34"/><circle class="cls-1" cx="33.93" cy="60.37" r="0.34"/><circle class="cls-1" cx="33.93" cy="61.66" r="0.34"/><circle class="cls-1" cx="32.61" cy="59.07" r="0.34"/><circle class="cls-1" cx="32.61" cy="60.37" r="0.34"/><circle class="cls-1" cx="33.25" cy="59.76" r="0.34"/><circle class="cls-1" cx="33.25" cy="61.06" r="0.34"/><circle class="cls-1" cx="31.27" cy="51.12" r="0.34"/><circle class="cls-1" cx="31.27" cy="52.41" r="0.34"/><circle class="cls-1" cx="31.27" cy="53.71" r="0.34"/><circle class="cls-1" cx="31.92" cy="51.81" r="0.34"/><circle class="cls-1" cx="31.92" cy="53.1" r="0.34"/><circle class="cls-1" cx="31.92" cy="54.4" r="0.34"/><circle class="cls-1" cx="31.27" cy="55.09" r="0.34"/><circle class="cls-1" cx="31.27" cy="56.39" r="0.34"/><circle class="cls-1" cx="31.27" cy="57.69" r="0.34"/><circle class="cls-1" cx="31.92" cy="55.78" r="0.34"/><circle class="cls-1" cx="31.92" cy="57.08" r="0.34"/><circle class="cls-1" cx="31.92" cy="58.38" r="0.34"/><circle class="cls-1" cx="31.27" cy="59.07" r="0.34"/><circle class="cls-1" cx="31.27" cy="60.37" r="0.34"/><circle class="cls-1" cx="31.27" cy="61.66" r="0.34"/><circle class="cls-1" cx="31.92" cy="59.76" r="0.34"/><circle class="cls-1" cx="31.92" cy="61.06" r="0.34"/><polygon class="cls-1" points="31.61 61.19 33.6 61.19 44.05 69.12 20.61 69.12 31.61 61.19"/><circle class="cls-1" cx="34.98" cy="1.38" r="1.38"/><circle class="cls-1" cx="34.98" cy="6.57" r="1.38"/><circle class="cls-1" cx="34.98" cy="11.76" r="1.38"/><circle class="cls-1" cx="29.69" cy="1.38" r="1.38"/><circle class="cls-1" cx="29.69" cy="6.57" r="1.38"/><circle class="cls-1" cx="29.69" cy="11.76" r="1.38"/><circle class="cls-1" cx="32.29" cy="4.14" r="1.38"/><circle class="cls-1" cx="32.29" cy="9.33" r="1.38"/><circle class="cls-1" cx="32.29" cy="14.52" r="1.38"/><circle class="cls-2" cx="3.94" cy="49.5" r="3.94"/><rect class="cls-3" x="10.36" y="14.27" width="44.28" height="2.78" rx="1.28"/><polygon class="cls-4" points="32.65 46.94 32.6 46.94 14.78 17.05 50.42 17.05 32.65 46.94"/><polygon class="cls-4" points="32.65 46.94 32.6 46.94 14.78 17.05 50.42 17.05 32.65 46.94"/><polygon class="cls-5" points="26.67 37 26.67 17.05 20.79 17.05 20.79 27.14 26.67 37"/><polygon class="cls-6" points="32.6 46.94 32.65 46.94 43.19 29.2 43.19 17.05 31.07 17.05 31.07 44.38 32.6 46.94"/><rect class="cls-4" x="23.34" y="37.87" width="18.33" height="12.91"/><path class="cls-3" d="M28.46,40.73a3.72,3.72,0,1,0,3.72,3.72A3.72,3.72,0,0,0,28.46,40.73Zm0,5.05a1.43,1.43,0,1,1,1.43-1.43A1.43,1.43,0,0,1,28.46,45.78Z"/><path class="cls-3" d="M36.22,40.73a3.72,3.72,0,1,0,3.72,3.72A3.73,3.73,0,0,0,36.22,40.73Zm0,5.05a1.43,1.43,0,1,1,1.43-1.43A1.43,1.43,0,0,1,36.22,45.78Z"/><rect class="cls-6" x="0.95" y="46.94" width="34.33" height="5.12" rx="2.56"/><rect class="cls-4" x="6.9" y="48.02" width="22.43" height="2.96" rx="1.48"/><circle class="cls-3" cx="32.18" cy="49.5" r="1.48"/><circle class="cls-3" cx="3.94" cy="49.5" r="1.48"/><path class="cls-6" d="M52.06,74.14a19,19,0,0,1-19,19h-1a19,19,0,0,1-19-19H11.88a20.2,20.2,0,0,0,20.21,20.2h1a20.2,20.2,0,0,0,20.2-20.2Z"/><rect class="cls-6" x="10.25" y="71.63" width="44.23" height="2.51" rx="1.25"/><rect class="cls-7" x="13.15" y="69.12" width="38.91" height="5.02"/><rect class="cls-8" x="13.15" y="69.12" width="6.5" height="5.02"/><rect class="cls-8" x="32.61" y="69.12" width="16.83" height="5.02"/><rect class="cls-7" x="15.78" y="76.71" width="33.65" height="39.03"/><rect class="cls-8" x="15.78" y="76.71" width="6.28" height="39.03"/><rect class="cls-8" x="32.61" y="76.71" width="13.98" height="39.03"/><rect class="cls-9" x="15.78" y="74.14" width="33.65" height="2.57"/><path class="cls-9" d="M15.78,115.74H49.43a0,0,0,0,1,0,0v0a2.57,2.57,0,0,1-2.57,2.57H18.35a2.57,2.57,0,0,1-2.57-2.57v0a0,0,0,0,1,0,0Z"/></g></g></svg>