<svg xmlns="http://www.w3.org/2000/svg" viewBox="0 0 62.22 62.22"><defs><style>.cls-1{fill:#f9b509;}.cls-2{fill:#814715;}.cls-3{fill:#2b2523;}.cls-4{fill:#9ca6a6;}.cls-5{fill:#edb832;}.cls-6{fill:#e9e0bc;}.cls-7{fill:#fff;opacity:0.2;}</style></defs><g id="Laag_2" data-name="Laag 2"><g id="Laag_15" data-name="Laag 15"><path class="cls-1" d="M31.11,0A31.11,31.11,0,1,0,62.22,31.11,31.11,31.11,0,0,0,31.11,0Zm0,59.63A28.52,28.52,0,1,1,59.64,31.11,28.52,28.52,0,0,1,31.11,59.63Z"/><circle class="cls-2" cx="31.11" cy="31.11" r="25.72"/><path class="cls-3" d="M31.11,2.59A28.52,28.52,0,1,0,59.64,31.11,28.52,28.52,0,0,0,31.11,2.59Zm0,54.24A25.72,25.72,0,1,1,56.83,31.11,25.72,25.72,0,0,1,31.11,56.83Z"/><circle class="cls-1" cx="31.11" cy="31.11" r="17.47"/><circle class="cls-2" cx="31.11" cy="31.11" r="14.71"/><rect class="cls-1" x="17.35" y="30.61" width="7.84" height="0.93" rx="0.21"/><rect class="cls-1" x="18.67" y="25.74" width="7.84" height="0.93" rx="0.21" transform="translate(16.13 -7.78) rotate(30)"/><rect class="cls-1" x="18.67" y="35.55" width="7.84" height="0.93" rx="0.21" transform="matrix(0.87, -0.5, 0.5, 0.87, -14.98, 16.12)"/><rect class="cls-1" x="20.28" y="28.44" width="5.2" height="0.93" rx="0.21" transform="matrix(0.97, 0.26, -0.26, 0.97, 8.17, -4.9)"/><rect class="cls-1" x="20.28" y="32.88" width="5.2" height="0.93" rx="0.21" transform="translate(-7.78 6.98) rotate(-14.85)"/><rect class="cls-1" x="37.03" y="30.61" width="7.84" height="0.93" rx="0.21" transform="translate(81.91 62.16) rotate(-180)"/><rect class="cls-1" x="35.72" y="25.74" width="7.84" height="0.93" rx="0.21" transform="translate(87.06 29.08) rotate(150)"/><rect class="cls-1" x="35.72" y="35.55" width="7.84" height="0.93" rx="0.21" transform="translate(55.95 87.03) rotate(-150)"/><rect class="cls-1" x="36.74" y="28.44" width="5.2" height="0.93" rx="0.21" transform="translate(84.77 46.76) rotate(165.15)"/><rect class="cls-1" x="36.74" y="32.88" width="5.2" height="0.93" rx="0.21" transform="matrix(-0.97, -0.26, 0.26, -0.97, 68.82, 75.66)"/><path class="cls-1" d="M8.82,20.7a.24.24,0,0,1-.11-.34l.51-.93c.62-1.13,1.3-1.46,2.29-.92a1.31,1.31,0,0,1,.77,1.32h0a1.43,1.43,0,0,1,1.77-.09c1.18.64,1.12,1.54.57,2.55l-.55,1a.24.24,0,0,1-.34.09Zm2.7,0c.29-.54.38-1.15-.32-1.53s-1.09.08-1.38.59l-.29.54,1.7.93Zm2.54,1.24c.4-.72.33-1.19-.36-1.57s-1.16-.2-1.56.52l-.35.65,1.92,1Z"/><path class="cls-1" d="M11.42,16.45a.26.26,0,0,1-.06-.36l.14-.17a.24.24,0,0,1,.35,0l4.46,3.41a.24.24,0,0,1,.05.35l-.13.18a.24.24,0,0,1-.35,0Z"/><path class="cls-1" d="M13,14.51a.24.24,0,0,1,0-.35l1.65-1.64a.24.24,0,0,1,.35,0l.13.13a.24.24,0,0,1,0,.35l-1.32,1.32,1.35,1.36.94-.93a.25.25,0,0,1,.35,0l.12.12a.24.24,0,0,1,0,.35l-.94.93,1.51,1.53,1.42-1.4a.25.25,0,0,1,.35,0l.13.13a.25.25,0,0,1,0,.36l-1.74,1.72a.24.24,0,0,1-.35,0Z"/><path class="cls-1" d="M16.33,11.43a.25.25,0,0,1,.07-.35l.93-.62c1.06-.7,1.83-.59,2.44.35a1.52,1.52,0,0,1,.08,1.8l2.34,1.71a.17.17,0,0,1,0,.28l-.28.19a.3.3,0,0,1-.37,0l-2.11-1.56-.76.5,1.35,2a.25.25,0,0,1-.07.35l-.18.12a.24.24,0,0,1-.34-.08Zm2.58,1.31a1,1,0,0,0,.3-1.48c-.49-.74-1-.58-1.5-.23l-.56.36,1.16,1.75Z"/><path class="cls-1" d="M22.49,8.05a.25.25,0,0,1,.16-.31l1-.31c1.23-.37,1.95-.12,2.27,1a1.31,1.31,0,0,1-.37,1.48v0a1.43,1.43,0,0,1,1.33,1.17c.39,1.28-.28,1.89-1.38,2.22l-1.1.33a.25.25,0,0,1-.31-.17Zm1.94,1.89c.58-.18,1.07-.56.84-1.32s-.83-.71-1.4-.54l-.59.18.56,1.85Zm.93,2.66c.79-.23,1.07-.61.85-1.36s-.69-1-1.48-.73l-.7.22.63,2.09Z"/><path class="cls-1" d="M27.59,6.75a.25.25,0,0,1,.23-.27l1.11-.09c1.27-.11,1.88.36,2,1.47a1.5,1.5,0,0,1-.8,1.61l1.23,2.62a.17.17,0,0,1-.14.25l-.34,0a.28.28,0,0,1-.29-.21L29.45,9.78l-.9.08.2,2.43a.25.25,0,0,1-.23.27l-.21,0a.25.25,0,0,1-.27-.23Zm1.63,2.38a.94.94,0,0,0,1-1.14c-.08-.89-.58-1-1.2-.93l-.66.05.17,2.08Z"/><path class="cls-1" d="M32,9.28c.26-2,1-3,2.24-2.87S36,7.7,35.73,9.75s-1,3.05-2.25,2.89S31.78,11.33,32,9.28Zm3,.38c.21-1.68-.09-2.49-.82-2.58S33,7.7,32.75,9.37s.1,2.52.81,2.61S34.79,11.35,35,9.66Z"/><path class="cls-1" d="M37.89,7.43a.25.25,0,0,1,.32-.16l.21.08a.24.24,0,0,1,.14.32l-1.4,3.87c-.29.78-.12,1.2.5,1.42s1.06,0,1.34-.76l1.41-3.86a.25.25,0,0,1,.32-.15l.2.07a.24.24,0,0,1,.14.32l-1.36,3.76c-.43,1.2-1.16,1.65-2.28,1.25s-1.34-1.21-.91-2.4Z"/><path class="cls-1" d="M42.79,9.34a.21.21,0,0,1,.31-.09l.22.15a.25.25,0,0,1,.07.34l-1.84,4h0l3.08-3.19a.25.25,0,0,1,.34-.06l.27.18a.26.26,0,0,1,.06.34l-1.87,4h0l3.1-3.17a.26.26,0,0,1,.35-.06l.22.14a.22.22,0,0,1,0,.32l-4.07,4a.33.33,0,0,1-.39,0l-.22-.16a.25.25,0,0,1-.07-.35l1.86-4h0l-3.07,3.21a.25.25,0,0,1-.34.06L40.6,15a.31.31,0,0,1-.1-.37Z"/><path class="cls-1" d="M48.37,13.6a.24.24,0,0,1,.35,0l1.57,1.72a.23.23,0,0,1,0,.35l-.13.12a.24.24,0,0,1-.36,0l-1.25-1.37-1.42,1.29.89,1A.25.25,0,0,1,48,17l-.12.11a.24.24,0,0,1-.35,0l-.89-1L45,17.61l1.34,1.47a.26.26,0,0,1,0,.36l-.14.12a.24.24,0,0,1-.35,0L44.2,17.74a.25.25,0,0,1,0-.36Z"/><path class="cls-1" d="M51.35,17.11a.25.25,0,0,1,.35.08l.27.46a.31.31,0,0,1-.06.36l-2.58,3.47v0l3.41-2a.25.25,0,0,1,.35.08l.08.14a.25.25,0,0,1-.09.34L48.26,22.9a.25.25,0,0,1-.35-.08l-.11-.2a.29.29,0,0,1,.05-.36l3-4.07h0l-4,2.35a.24.24,0,0,1-.34-.08l-.08-.14a.25.25,0,0,1,.09-.34Z"/><path class="cls-1" d="M21.75,52.39l.23,0a.25.25,0,0,1,.18.3c-.06.6.09.94.6,1.12a.83.83,0,0,0,1.17-.53c.53-1.44-1.86-2.1-1.18-4a1.4,1.4,0,0,1,1.93-.92,1.45,1.45,0,0,1,1,1.76.25.25,0,0,1-.29.21l-.17,0a.26.26,0,0,1-.2-.3.87.87,0,0,0-.56-1,.73.73,0,0,0-1,.47c-.49,1.34,1.92,2,1.22,4a1.52,1.52,0,0,1-2.12,1,1.51,1.51,0,0,1-1-1.87A.25.25,0,0,1,21.75,52.39Z"/><path class="cls-1" d="M27.4,50l-1.06-.18a.24.24,0,0,1-.2-.3l0-.18a.26.26,0,0,1,.3-.22l2.81.5a.24.24,0,0,1,.2.3l0,.18a.24.24,0,0,1-.29.21l-1.05-.18-.92,5.22a.25.25,0,0,1-.29.22l-.22,0a.25.25,0,0,1-.2-.3Z"/><path class="cls-1" d="M30.44,49.9a.31.31,0,0,1,.31-.25h.52a.31.31,0,0,1,.3.26l1.25,5.78a.2.2,0,0,1-.2.25h-.3c-.16,0-.21-.11-.25-.26l-.31-1.53-1.65,0-.36,1.52c0,.15-.08.25-.23.25h-.3a.21.21,0,0,1-.19-.26Zm1.18,3.56L31,50.36h0l-.72,3.07Z"/><path class="cls-1" d="M33.27,49.87a.25.25,0,0,1,.2-.31l1.12-.22c1.27-.25,1.95.15,2.18,1.27a1.55,1.55,0,0,1-.63,1.73l1.55,2.52a.17.17,0,0,1-.11.27l-.34.07a.29.29,0,0,1-.32-.18l-1.4-2.29-.91.18.48,2.45a.24.24,0,0,1-.19.3l-.22.05a.27.27,0,0,1-.3-.21ZM35.2,52.1a1,1,0,0,0,.85-1.28c-.17-.89-.7-.93-1.33-.81l-.66.13.42,2.1Z"/><path class="cls-1" d="M38,49.09l-1,.4a.25.25,0,0,1-.33-.15l-.07-.17a.27.27,0,0,1,.14-.34l2.65-1.07a.25.25,0,0,1,.33.15l.07.17a.25.25,0,0,1-.14.33l-1,.4,2,4.91a.25.25,0,0,1-.14.34l-.2.08A.25.25,0,0,1,40,54Z"/><path class="cls-4" d="M28.37,42.74a.47.47,0,0,1-.47-.47c0-1,.84-1.66.84-4.73s-2.16-8.39-2.16-11.65a20,20,0,0,1,1.32-6.51h6.43a20.11,20.11,0,0,1,1.31,6.51c0,3.26-2.16,8.58-2.16,11.65s.85,3.73.85,4.73a.47.47,0,0,1-.47.47Z"/><path class="cls-5" d="M35.2,25.89A22.75,22.75,0,0,0,34,19.38H28.28A22.4,22.4,0,0,0,27,25.89a27,27,0,0,0,1.09,5.88,26.38,26.38,0,0,1,1.07,5.77,15,15,0,0,1-.32,3,.43.43,0,0,0,.42.55h3.65a.44.44,0,0,0,.42-.55,14.24,14.24,0,0,1-.32-3,26.38,26.38,0,0,1,1.07-5.77A27.65,27.65,0,0,0,35.2,25.89Z"/><path class="cls-6" d="M34,19.38h0a.89.89,0,0,0-.89-.89H29.17a.89.89,0,0,0-.89.89,24.93,24.93,0,0,0-1.17,5.07h8A25.1,25.1,0,0,0,34,19.38Z"/><path class="cls-7" d="M31.11,42.74h2.75a.47.47,0,0,0,.47-.47c0-1-.85-1.66-.85-4.73s2.16-8.39,2.16-11.65a20.11,20.11,0,0,0-1.31-6.51H31.11Z"/></g></g></svg>