<svg xmlns="http://www.w3.org/2000/svg" viewBox="0 0 62.22 62.22"><defs><style>.cls-1,.cls-4,.cls-5{fill:#f9b509;}.cls-2{fill:#814715;}.cls-3{fill:#2b2523;}.cls-4{font-size:8.53px;}.cls-4,.cls-5{font-family:TradeGothicNextSRPro-Cn, Trade Gothic Next SR Pro;}.cls-5{font-size:8.73px;}.cls-6{fill:#9ca6a6;}.cls-7{fill:#edb832;}.cls-8{fill:#e9e0bc;}.cls-9{fill:#fff;opacity:0.2;}</style></defs><g id="Laag_2" data-name="Laag 2"><g id="Laag_15" data-name="Laag 15"><path class="cls-1" d="M31.11,0A31.11,31.11,0,1,0,62.22,31.11,31.11,31.11,0,0,0,31.11,0Zm0,59.63A28.52,28.52,0,1,1,59.64,31.11,28.52,28.52,0,0,1,31.11,59.63Z"/><circle class="cls-2" cx="31.11" cy="31.11" r="25.72"/><path class="cls-3" d="M31.11,2.59A28.52,28.52,0,1,0,59.64,31.11,28.52,28.52,0,0,0,31.11,2.59Zm0,54.24A25.72,25.72,0,1,1,56.83,31.11,25.72,25.72,0,0,1,31.11,56.83Z"/><circle class="cls-1" cx="31.11" cy="31.11" r="17.47"/><circle class="cls-2" cx="31.11" cy="31.11" r="14.71"/><rect class="cls-1" x="17.35" y="30.61" width="7.84" height="0.93" rx="0.21"/><rect class="cls-1" x="18.67" y="25.74" width="7.84" height="0.93" rx="0.21" transform="translate(16.13 -7.78) rotate(30)"/><rect class="cls-1" x="18.67" y="35.55" width="7.84" height="0.93" rx="0.21" transform="translate(-14.98 16.12) rotate(-30)"/><rect class="cls-1" x="20.28" y="28.44" width="5.2" height="0.93" rx="0.21" transform="translate(8.17 -4.9) rotate(14.85)"/><rect class="cls-1" x="20.28" y="32.88" width="5.2" height="0.93" rx="0.21" transform="matrix(0.97, -0.26, 0.26, 0.97, -7.78, 6.98)"/><rect class="cls-1" x="37.03" y="30.61" width="7.84" height="0.93" rx="0.21" transform="translate(81.91 62.16) rotate(-180)"/><rect class="cls-1" x="35.72" y="25.74" width="7.84" height="0.93" rx="0.21" transform="translate(87.06 29.08) rotate(150)"/><rect class="cls-1" x="35.72" y="35.55" width="7.84" height="0.93" rx="0.21" transform="translate(55.95 87.03) rotate(-150)"/><rect class="cls-1" x="36.74" y="28.44" width="5.2" height="0.93" rx="0.21" transform="translate(84.77 46.76) rotate(165.15)"/><rect class="cls-1" x="36.74" y="32.88" width="5.2" height="0.93" rx="0.21" transform="translate(68.82 75.66) rotate(-165.15)"/><text class="cls-4" transform="matrix(0.46, -0.85, 0.88, 0.48, 13.7, 24.02)">B</text><text class="cls-4" transform="translate(15.73 20.47) rotate(-52.53) scale(0.97 1)">I</text><text class="cls-4" transform="translate(16.69 19.1) rotate(-44.66) scale(0.97 1)">E</text><text class="cls-4" transform="matrix(0.81, -0.53, 0.55, 0.83, 19.08, 16.65)">R</text><text class="cls-4" transform="matrix(0.87, -0.41, 0.43, 0.9, 22.48, 14.51)"> </text><text class="cls-4" transform="translate(23.64 13.84) rotate(-16.83) scale(0.97 1)">B</text><text class="cls-4" transform="matrix(0.96, -0.08, 0.08, 1, 27.49, 12.65)">R</text><text class="cls-4" transform="translate(31.33 12.29) rotate(7.25) scale(0.97 1)">O</text><text class="cls-4" transform="translate(35.37 12.77) rotate(19.93) scale(0.97 1)">U</text><text class="cls-4" transform="matrix(0.8, 0.55, -0.56, 0.83, 39.32, 14.08)">W</text><text class="cls-4" transform="translate(43.64 17.13) rotate(47.56) scale(0.97 1)">E</text><text class="cls-4" transform="matrix(0.49, 0.83, -0.86, 0.51, 46.01, 19.61)">N</text><text class="cls-5" transform="translate(20.76 53.75) rotate(20.16) scale(0.97 1)">S</text><text class="cls-5" transform="translate(24.98 55.23) rotate(9.95) scale(0.97 1)">T</text><text class="cls-5" transform="translate(28.79 55.89) rotate(0.93) scale(0.97 1)">A</text><text class="cls-5" transform="translate(33.85 55.87) rotate(-11.21) scale(0.97 1)">R</text><text class="cls-5" transform="translate(38.77 54.79) rotate(-22.14) scale(0.97 1)">T</text><path class="cls-6" d="M28.37,42.74a.47.47,0,0,1-.47-.47c0-1,.84-1.66.84-4.73s-2.16-8.39-2.16-11.65a20,20,0,0,1,1.32-6.51h6.43a20.11,20.11,0,0,1,1.31,6.51c0,3.26-2.16,8.58-2.16,11.65s.85,3.73.85,4.73a.47.47,0,0,1-.47.47Z"/><path class="cls-7" d="M35.2,25.89A22.75,22.75,0,0,0,34,19.38H28.28A22.4,22.4,0,0,0,27,25.89a27,27,0,0,0,1.09,5.88,26.38,26.38,0,0,1,1.07,5.77,15,15,0,0,1-.32,3,.43.43,0,0,0,.42.55h3.65a.44.44,0,0,0,.42-.55,14.24,14.24,0,0,1-.32-3,26.38,26.38,0,0,1,1.07-5.77A27.65,27.65,0,0,0,35.2,25.89Z"/><path class="cls-8" d="M34,19.38h0a.89.89,0,0,0-.89-.89H29.17a.89.89,0,0,0-.89.89,24.93,24.93,0,0,0-1.17,5.07h8A25.1,25.1,0,0,0,34,19.38Z"/><path class="cls-9" d="M31.11,42.74h2.75a.47.47,0,0,0,.47-.47c0-1-.85-1.66-.85-4.73s2.16-8.39,2.16-11.65a20.11,20.11,0,0,0-1.31-6.51H31.11Z"/></g></g></svg>