<svg xmlns="http://www.w3.org/2000/svg" viewBox="0 0 28.5 28.5"><defs><style>.cls-1{fill:#e9533a;}.cls-2{fill:#ecf3fb;}.cls-3{fill:#6a757b;}.cls-4{fill:#40444d;}.cls-5{fill:#a5b6c0;}.cls-6,.cls-7{fill:#707b81;}.cls-7{font-size:8.11px;font-family:TradeGothicNextSRPro-Cn, Trade Gothic Next SR Pro;}</style></defs><g id="Laag_2" data-name="Laag 2"><g id="Laag_5" data-name="Laag 5"><path class="cls-1" d="M14.25,0A14.25,14.25,0,1,0,28.5,14.25,14.25,14.25,0,0,0,14.25,0Zm0,27.31A13.07,13.07,0,1,1,27.31,14.25,13.07,13.07,0,0,1,14.25,27.31Z"/><circle class="cls-2" cx="14.25" cy="14.25" r="11.78"/><path class="cls-3" d="M14.25,1.18A13.07,13.07,0,1,0,27.31,14.25,13.07,13.07,0,0,0,14.25,1.18Zm0,24.85A11.78,11.78,0,1,1,26,14.25,11.78,11.78,0,0,1,14.25,26Z"/><rect class="cls-4" x="13" y="5.22" width="2.58" height="12.74" rx="1.29"/><circle class="cls-5" cx="6.47" cy="14.25" r="1.19"/><circle class="cls-5" cx="8.86" cy="8.7" r="1.19"/><circle class="cls-5" cx="8.86" cy="19.84" r="1.19"/><circle class="cls-5" cx="19.86" cy="19.84" r="1.19"/><circle class="cls-6" cx="16.7" cy="19.44" r="0.66"/><circle class="cls-5" cx="19.86" cy="8.7" r="1.19"/><circle class="cls-5" cx="22.11" cy="14.27" r="1.19"/><circle class="cls-5" cx="14.29" cy="14.27" r="0.77"/><text class="cls-7" transform="translate(12.34 25.21) scale(0.97 1)">C</text></g></g></svg>