<svg xmlns="http://www.w3.org/2000/svg" viewBox="0 0 68.06 125.43"><defs><style>.cls-1{fill:#287eb9;}.cls-2{fill:#40444d;}.cls-3{fill:#707b81;}.cls-4{fill:#a5b6c0;}.cls-5{fill:#b1c2cc;}.cls-6{fill:#ecf3fb;}.cls-7{fill:#8f9ca4;}.cls-8{fill:#426834;}.cls-8,.cls-9{fill-rule:evenodd;}.cls-9{fill:#395c2c;}</style></defs><g id="Laag_2" data-name="Laag 2"><g id="Laag_1-2" data-name="Laag 1"><path class="cls-1" d="M17.12,101.88a1.33,1.33,0,1,1-2.66,0,8.15,8.15,0,0,1,1.33-2.57A8.15,8.15,0,0,1,17.12,101.88Z"/><path class="cls-1" d="M19.74,101.88a1.34,1.34,0,1,1-2.67,0,8.15,8.15,0,0,1,1.33-2.57A8.13,8.13,0,0,1,19.74,101.88Z"/><path class="cls-1" d="M22.35,101.88a1.34,1.34,0,1,1-2.67,0A8.15,8.15,0,0,1,21,99.31,8.13,8.13,0,0,1,22.35,101.88Z"/><path class="cls-1" d="M25,101.88a1.34,1.34,0,1,1-2.67,0,8.15,8.15,0,0,1,1.33-2.57A8.13,8.13,0,0,1,25,101.88Z"/><path class="cls-1" d="M27.57,101.88a1.34,1.34,0,1,1-2.67,0,8.15,8.15,0,0,1,1.33-2.57A8.13,8.13,0,0,1,27.57,101.88Z"/><path class="cls-1" d="M30.18,101.88a1.34,1.34,0,1,1-2.67,0,8.15,8.15,0,0,1,1.33-2.57A8.13,8.13,0,0,1,30.18,101.88Z"/><path class="cls-1" d="M32.79,101.88a1.34,1.34,0,1,1-2.67,0,8.15,8.15,0,0,1,1.33-2.57A8.13,8.13,0,0,1,32.79,101.88Z"/><path class="cls-1" d="M35.4,101.88a1.34,1.34,0,1,1-2.67,0,8.15,8.15,0,0,1,1.33-2.57A8.13,8.13,0,0,1,35.4,101.88Z"/><path class="cls-1" d="M38,101.88a1.34,1.34,0,1,1-2.67,0,8.15,8.15,0,0,1,1.33-2.57A8.13,8.13,0,0,1,38,101.88Z"/><path class="cls-1" d="M40.62,101.88a1.34,1.34,0,1,1-2.67,0,8.15,8.15,0,0,1,1.33-2.57A8.13,8.13,0,0,1,40.62,101.88Z"/><path class="cls-1" d="M43.23,101.88a1.34,1.34,0,1,1-2.67,0,8.13,8.13,0,0,1,1.34-2.57A8.15,8.15,0,0,1,43.23,101.88Z"/><path class="cls-1" d="M45.84,101.88a1.34,1.34,0,1,1-2.67,0,8.13,8.13,0,0,1,1.34-2.57A8.15,8.15,0,0,1,45.84,101.88Z"/><path class="cls-1" d="M48.45,101.88a1.34,1.34,0,1,1-2.67,0,8.13,8.13,0,0,1,1.34-2.57A8.15,8.15,0,0,1,48.45,101.88Z"/><path class="cls-1" d="M51.06,101.88a1.34,1.34,0,1,1-2.67,0,8.13,8.13,0,0,1,1.34-2.57A8.15,8.15,0,0,1,51.06,101.88Z"/><path class="cls-1" d="M53.67,101.88a1.34,1.34,0,1,1-2.67,0,8.13,8.13,0,0,1,1.34-2.57A8.15,8.15,0,0,1,53.67,101.88Z"/><rect class="cls-2" x="9.36" y="112.45" width="49.33" height="10.39"/><path class="cls-3" d="M45.78,112.44v-2.11c0-1.06-1.15-1.92-2.57-1.92H24.79c-1.42,0-2.57.86-2.57,1.92v2.11h-5.1v-4c0-2.16,2.35-3.92,5.24-3.92H45.77c2.89,0,5.23,1.76,5.23,3.92v4Z"/><rect class="cls-3" x="11.91" y="104.54" width="44.31" height="1.92" rx="0.96"/><rect class="cls-2" x="53.67" y="120.47" width="2.55" height="4.96" rx="1.28"/><rect class="cls-2" x="11.91" y="120.47" width="2.55" height="4.96" rx="1.28"/><circle class="cls-4" cx="34.03" cy="117.64" r="3.42"/><circle class="cls-2" cx="34.03" cy="117.64" r="2.02"/><path class="cls-5" d="M2.83,33.44H65.06a0,0,0,0,1,0,0v54.5a5.5,5.5,0,0,1-5.5,5.5H8.33a5.5,5.5,0,0,1-5.5-5.5V33.44A0,0,0,0,1,2.83,33.44Z"/><rect class="cls-6" x="13.33" y="33.44" width="10.27" height="60"/><rect class="cls-4" x="31.28" y="33.44" width="21.16" height="60"/><path class="cls-6" d="M10.6,33.44H8.06v60H10.6Z"/><rect class="cls-3" x="8.06" y="93.44" width="51.78" height="2.22"/><rect class="cls-3" y="30.66" width="68.06" height="2.78" rx="1.28"/><path class="cls-3" d="M35.28,85.67v-6.8a1.34,1.34,0,0,0-2.67,0v6.8A2.64,2.64,0,0,0,31.28,88a2.66,2.66,0,0,0,5.32,0A2.64,2.64,0,0,0,35.28,85.67Z"/><rect class="cls-1" x="20.92" y="80.16" width="15.69" height="2.67" rx="1.33"/><rect class="cls-7" x="0.83" y="44.33" width="66.22" height="2.97" rx="1.49"/><rect class="cls-7" x="0.83" y="71.74" width="66.22" height="2.97" rx="1.49"/></g><g id="Laag_11" data-name="Laag 11"><path class="cls-8" d="M23.27.29A23.24,23.24,0,0,1,25,4.18v0l0,0,0,0h0l0,0,0,0v0l0,0h0l0,0,0,0v0l0,0h0l0,0v0h0l0,0h0l0,0,0,0h0l0,0h0l0,0v0l0,0h0l0,0,0,0h0l0,.06,0,0,0,0h0l0,0h0l0,0,0,0h0l0,0h0l0,.07h0l0,0v0l0,0,0,0h0l0,.05h0l0,0,0,0h0l0,0h0L24,5.58a1.44,1.44,0,0,0-.5-.51,1.52,1.52,0,0,0-.72-.19,1.37,1.37,0,0,0-1.17.69l-.12.19h0l0,0v0l0,0h0l0,0v0l0,0h0l0,0,0,0v0l0,0h0l0,0,0,0v0l0,0h0l0,0,0,0v0l0,0h0l0,0V5l0,0h0l0,0v0h0l0-.05h0l0,0,0,0h0l0-.05h0l0,0,0,0v0l0,0h0l0,0,0,0h0l0,0,0,0,0,0h0l0,0v0l0,0,0,0h0A23.83,23.83,0,0,1,22.27.29.56.56,0,0,1,22.76,0a.54.54,0,0,1,.3.08.6.6,0,0,1,.21.21ZM18.88,3.34A24.36,24.36,0,0,1,21,6.61a22.88,22.88,0,0,0-1.44,3.54l-.21.72a23.79,23.79,0,0,0-2.8-2.53,23.64,23.64,0,0,1,1.32-4.87.58.58,0,0,1,.45-.35.56.56,0,0,1,.31,0A.63.63,0,0,1,18.88,3.34Zm7.78,0A22.23,22.23,0,0,0,24.53,6.6,23.91,23.91,0,0,1,26,10.12c.07.23.15.48.21.74A22.76,22.76,0,0,1,29,8.34a23.64,23.64,0,0,0-1.32-4.87.58.58,0,0,0-.44-.35.59.59,0,0,0-.32,0A.6.6,0,0,0,26.66,3.34ZM23.27,6a21.75,21.75,0,0,1,2.26,5.61,12.27,12.27,0,0,0-.84,1.08q-.35-.7-.72-1.35a1.39,1.39,0,0,0-1.22-.69,1.36,1.36,0,0,0-1.17.68c-.26.43-.5.89-.73,1.37-.27-.39-.56-.75-.84-1.08A22.16,22.16,0,0,1,22.27,6a.55.55,0,0,1,.49-.28.54.54,0,0,1,.3.08A.6.6,0,0,1,23.27,6Zm6.41,2.83a20.33,20.33,0,0,0-4.59,4.72A22.41,22.41,0,0,1,26,15.86L26,16a23,23,0,0,1,4.48-1,22.73,22.73,0,0,0,.1-5.79.57.57,0,0,0-.34-.45A.54.54,0,0,0,30,8.7.5.5,0,0,0,29.68,8.81Zm-13.82,0a20.63,20.63,0,0,1,4.59,4.73,22.85,22.85,0,0,0-.88,2.36l0,.13A23.17,23.17,0,0,0,15,15a22.73,22.73,0,0,1-.1-5.79.57.57,0,0,1,.34-.45.54.54,0,0,1,.31-.05A.57.57,0,0,1,15.86,8.81Zm7.41,2.92a22.54,22.54,0,0,1,2,4.59,8.62,8.62,0,0,0-2.5,1.48,9.17,9.17,0,0,0-2.49-1.48,23.57,23.57,0,0,1,2-4.6.58.58,0,0,1,.49-.29.64.64,0,0,1,.3.08A.63.63,0,0,1,23.27,11.73Zm8.15,4c-2.19.2-7,1.1-8.65,3.27-1.66-2.17-6.47-3.07-8.66-3.27a.52.52,0,0,0-.27.05.44.44,0,0,0-.15.12c2.46,9,15.69,9,18.15,0a.44.44,0,0,0-.15-.12A.52.52,0,0,0,31.42,15.69Zm-7.91,7.67V27a.58.58,0,0,1-.58.57H22.6A.58.58,0,0,1,22,27V23.36A12.35,12.35,0,0,0,23.51,23.36Z"/><path class="cls-9" d="M18.64,3.15a.56.56,0,0,0-.31,0,.58.58,0,0,0-.45.35,23.64,23.64,0,0,0-1.32,4.87,23.79,23.79,0,0,1,2.8,2.53l.21-.72A22.88,22.88,0,0,1,21,6.61a24.36,24.36,0,0,0-2.13-3.27A.63.63,0,0,0,18.64,3.15Z"/><path class="cls-9" d="M15.58,8.7a.54.54,0,0,0-.31.05.57.57,0,0,0-.34.45A22.73,22.73,0,0,0,15,15a23.17,23.17,0,0,1,4.5,1l0-.13a22.85,22.85,0,0,1,.88-2.36,20.63,20.63,0,0,0-4.59-4.73A.57.57,0,0,0,15.58,8.7Z"/><path class="cls-9" d="M22.27,6A22.16,22.16,0,0,0,20,11.6c.28.33.57.69.84,1.08.23-.48.47-.94.72-1.37a1.39,1.39,0,0,1,1.18-.68h0V5.69h0A.55.55,0,0,0,22.27,6Z"/><path class="cls-9" d="M22.77,23.36c-.25,0-.5,0-.75,0V27a.58.58,0,0,0,.58.57h.17Z"/><path class="cls-9" d="M22.77,22.58V19c-1.66-2.17-6.47-3.07-8.66-3.27a.52.52,0,0,0-.27.05.44.44,0,0,0-.15.12A9.14,9.14,0,0,0,22.77,22.58Z"/><path class="cls-9" d="M22.76,0a.56.56,0,0,0-.49.29A23.83,23.83,0,0,0,20.5,4.2h0l0,0,0,0v0l0,0h0l0,0,0,0,0,0h0l0,0,0,0h0l0,0v0l0,0,0,0h0l0,.05h0l0,0,0,0h0l0,.05h0v0l0,0h0l0,0V5l0,0h0l0,0v0l0,0,0,0h0l0,0v0l0,0,0,0h0l0,0v0l0,0,0,0h0l0,0v0l0,0h0l0,0v0l0,0h0l.11-.19a1.4,1.4,0,0,1,1.18-.69h0V0Z"/><path class="cls-9" d="M22.77,11.43h0a.58.58,0,0,0-.49.29,23.57,23.57,0,0,0-2,4.6,9.17,9.17,0,0,1,2.49,1.48Z"/></g></g></svg>