<svg xmlns="http://www.w3.org/2000/svg" viewBox="0 0 49.33 26.12"><defs><style>.cls-1{fill:#287eb9;}.cls-2{fill:#40444d;}.cls-3{fill:#707b81;}.cls-4{fill:#a5b6c0;}</style></defs><g id="Laag_2" data-name="Laag 2"><g id="Laag_3" data-name="Laag 3"><path class="cls-1" d="M7.76,2.57a1.33,1.33,0,0,1-2.66,0A8,8,0,0,1,6.43,0,8,8,0,0,1,7.76,2.57Z"/><path class="cls-1" d="M10.37,2.57a1.33,1.33,0,0,1-2.66,0A8,8,0,0,1,9,0,8,8,0,0,1,10.37,2.57Z"/><path class="cls-1" d="M13,2.57a1.33,1.33,0,0,1-2.66,0A8,8,0,0,1,11.65,0,8,8,0,0,1,13,2.57Z"/><path class="cls-1" d="M15.59,2.57a1.33,1.33,0,0,1-2.66,0A8,8,0,0,1,14.26,0,8,8,0,0,1,15.59,2.57Z"/><path class="cls-1" d="M18.21,2.57a1.34,1.34,0,0,1-2.67,0A8,8,0,0,1,16.87,0,8,8,0,0,1,18.21,2.57Z"/><path class="cls-1" d="M20.82,2.57a1.34,1.34,0,0,1-2.67,0A8,8,0,0,1,19.48,0,8,8,0,0,1,20.82,2.57Z"/><path class="cls-1" d="M23.43,2.57a1.34,1.34,0,0,1-2.67,0A8,8,0,0,1,22.09,0,8,8,0,0,1,23.43,2.57Z"/><path class="cls-1" d="M26,2.57a1.34,1.34,0,0,1-2.67,0A8,8,0,0,1,24.7,0,8,8,0,0,1,26,2.57Z"/><path class="cls-1" d="M28.65,2.57a1.34,1.34,0,0,1-2.67,0A8,8,0,0,1,27.31,0,8,8,0,0,1,28.65,2.57Z"/><path class="cls-1" d="M31.26,2.57a1.34,1.34,0,0,1-2.67,0A8,8,0,0,1,29.92,0,8,8,0,0,1,31.26,2.57Z"/><path class="cls-1" d="M33.87,2.57a1.34,1.34,0,0,1-2.67,0A8,8,0,0,1,32.53,0,8,8,0,0,1,33.87,2.57Z"/><path class="cls-1" d="M36.48,2.57a1.34,1.34,0,0,1-2.67,0A8,8,0,0,1,35.14,0,8,8,0,0,1,36.48,2.57Z"/><path class="cls-1" d="M39.09,2.57a1.34,1.34,0,0,1-2.67,0A8,8,0,0,1,37.75,0,8,8,0,0,1,39.09,2.57Z"/><path class="cls-1" d="M41.7,2.57a1.34,1.34,0,0,1-2.67,0A8,8,0,0,1,40.37,0,8,8,0,0,1,41.7,2.57Z"/><path class="cls-1" d="M44.31,2.57a1.34,1.34,0,0,1-2.67,0A8,8,0,0,1,43,0,8,8,0,0,1,44.31,2.57Z"/><rect class="cls-2" y="13.13" width="49.33" height="10.39"/><path class="cls-3" d="M36.42,13.13V11c0-1.06-1.15-1.92-2.57-1.92H15.43C14,9.1,12.86,10,12.86,11v2.11H7.76v-4C7.76,7,10.11,5.23,13,5.23H36.4c2.9,0,5.24,1.75,5.24,3.92v4Z"/><rect class="cls-3" x="2.55" y="5.23" width="44.31" height="1.92" rx="0.96"/><rect class="cls-2" x="44.31" y="21.16" width="2.55" height="4.96" rx="1.28"/><rect class="cls-2" x="2.55" y="21.16" width="2.55" height="4.96" rx="1.28"/><circle class="cls-4" cx="24.67" cy="18.33" r="3.42"/><circle class="cls-2" cx="24.67" cy="18.33" r="2.02"/></g></g></svg>