<svg xmlns="http://www.w3.org/2000/svg" viewBox="0 0 68.06 145.31"><defs><style>.cls-1{fill:#b1c2cc;}.cls-2{fill:#ecf3fb;}.cls-3{fill:#a5b6c0;}.cls-4{fill:#707b81;}.cls-5{fill:#287eb9;}.cls-6{fill:#8f9ca4;}</style></defs><g id="Laag_2" data-name="Laag 2"><g id="Laag_1-2" data-name="Laag 1"><path class="cls-1" d="M2.83,2.78H65.06a0,0,0,0,1,0,0v54.5a5.5,5.5,0,0,1-5.5,5.5H8.33a5.5,5.5,0,0,1-5.5-5.5V2.78A0,0,0,0,1,2.83,2.78Z"/><rect class="cls-2" x="13.33" y="2.78" width="10.27" height="60"/><rect class="cls-3" x="31.28" y="2.78" width="21.16" height="60"/><path class="cls-2" d="M10.6,2.78H8.06v60l.27,0H10.6Z"/><rect class="cls-4" x="8.06" y="62.78" width="51.78" height="2.22"/><rect class="cls-4" width="68.06" height="2.78" rx="1.28"/><path class="cls-4" d="M35.28,55V48.21a1.34,1.34,0,0,0-2.67,0V55a2.66,2.66,0,1,0,2.67,0Z"/><rect class="cls-5" x="20.92" y="49.5" width="15.69" height="2.67" rx="1.33"/><rect class="cls-6" x="0.83" y="13.67" width="66.22" height="2.97" rx="1.49"/><rect class="cls-6" x="0.83" y="41.08" width="66.22" height="2.97" rx="1.49"/><path class="cls-5" d="M31.28,83.75l1.41-26.21A1.34,1.34,0,0,1,34,56.21h0a1.34,1.34,0,0,1,1.33,1.33L36.6,83.75c0,.74-1.84,1.34-2.57,1.34h0C33.29,85.09,31.28,84.49,31.28,83.75Z"/><path class="cls-1" d="M2.83,83.09H65.06a0,0,0,0,1,0,0v54.5a5.5,5.5,0,0,1-5.5,5.5H8.33a5.5,5.5,0,0,1-5.5-5.5V83.09A0,0,0,0,1,2.83,83.09Z"/><rect class="cls-2" x="13.33" y="83.09" width="10.27" height="60"/><rect class="cls-3" x="31.28" y="83.09" width="21.16" height="60"/><path class="cls-2" d="M10.6,83.09H8.06v60l.27,0H10.6Z"/><rect class="cls-4" x="8.06" y="143.09" width="51.78" height="2.22"/><rect class="cls-4" y="80.31" width="68.06" height="2.78" rx="1.28"/><path class="cls-4" d="M35.28,135.31v-6.79a1.34,1.34,0,0,0-2.67,0v6.79a2.66,2.66,0,1,0,2.67,0Z"/><rect class="cls-5" x="20.92" y="129.81" width="15.69" height="2.67" rx="1.33"/><rect class="cls-6" x="0.83" y="93.98" width="66.22" height="2.97" rx="1.49"/><rect class="cls-6" x="0.83" y="121.39" width="66.22" height="2.97" rx="1.49"/></g></g></svg>