<svg xmlns="http://www.w3.org/2000/svg" viewBox="0 0 36.31 49.47"><defs><style>.cls-1,.cls-6{fill:#3d5e6f;}.cls-2{fill:#ecf3fb;}.cls-3{fill:#707b81;}.cls-4{fill:#aabfb8;}.cls-5{fill:#e9533a;}.cls-6{font-size:6.92px;font-family:TradeGothicNextSRPro-Cn, Trade Gothic Next SR Pro;}.cls-7{fill:#a6b7c1;}</style></defs><g id="Laag_2" data-name="Laag 2"><g id="Laag_9" data-name="Laag 9"><path class="cls-1" d="M28.62,29.07V47H7.69V29.07H5.16V46.58a2.89,2.89,0,0,0,2.89,2.89H28.26a2.89,2.89,0,0,0,2.89-2.89V29.07Z"/><rect class="cls-2" x="7.69" y="38.91" width="20.94" height="8.08"/><rect class="cls-3" x="7.69" y="29.84" width="20.94" height="9.07"/><circle class="cls-2" cx="18.16" cy="18.16" r="15.51"/><path class="cls-4" d="M18.16,0A18.16,18.16,0,1,0,36.31,18.16,18.16,18.16,0,0,0,18.16,0Zm0,33.66a15.51,15.51,0,1,1,15.5-15.5A15.5,15.5,0,0,1,18.16,33.66Z"/><circle class="cls-5" cx="23.84" cy="42.95" r="1.91"/><text class="cls-6" transform="translate(12.78 44.86) scale(0.97 1)">kg</text><circle class="cls-7" cx="6.61" cy="18.15" r="1.45"/><circle class="cls-7" cx="18.16" cy="29.67" r="1.45"/><circle class="cls-7" cx="29.76" cy="18.07" r="1.45"/><circle class="cls-7" cx="18.12" cy="6.43" r="1.45"/></g></g></svg>