<svg xmlns="http://www.w3.org/2000/svg" viewBox="0 0 86.35 109.22"><defs><style>.cls-1{fill:#a04f3a;}.cls-2{fill:#92a6a4;}.cls-3,.cls-4,.cls-5,.cls-6{fill:#ecf3fb;}.cls-3{opacity:0.49;}.cls-4{opacity:0.25;}.cls-5{opacity:0.35;}.cls-7{fill:#aabfb8;}.cls-8{fill:#b1c2cc;}.cls-9{fill:#a5b6c0;}.cls-10{fill:#707b81;}.cls-11{fill:#287eb9;}.cls-12{fill:#8f9ca4;}</style></defs><g id="Laag_2" data-name="Laag 2"><g id="Laag_16" data-name="Laag 16"><path class="cls-1" d="M38.38,18.6C33.26,15.72,8.76,6,8.76,6l-6,13.55L33,32.8l5.27,2L35.13,42S59.8,75.3,56.2,54.39,43.51,21.48,38.38,18.6Z"/><path class="cls-2" d="M39.64,12.87l2.2,1,.32-.72a7,7,0,0,0-3.59-9.2L32.7,1.34a7,7,0,0,0-9.2,3.59l-.32.71,2.21,1A5.17,5.17,0,0,1,32.21,4L37,6.05A5.17,5.17,0,0,1,39.64,12.87Z"/><polygon class="cls-2" points="23.16 31.02 23.16 31.02 37.24 37.2 35.13 42 23.16 31.02"/><rect class="cls-3" x="15.6" y="0.51" width="18.56" height="37.18" transform="translate(52.39 4.01) rotate(113.72)"/><rect class="cls-4" x="-2.02" y="10.38" width="18.18" height="1.75" transform="translate(20.22 9.31) rotate(113.72)"/><rect class="cls-5" x="22.95" y="-3.09" width="7.03" height="37.18" transform="translate(51.31 -2.5) rotate(113.72)"/><circle class="cls-6" cx="30.78" cy="27.33" r="1.32"/><circle class="cls-6" cx="21.71" cy="23.35" r="1.32"/><circle class="cls-6" cx="12.65" cy="19.36" r="1.32"/><path class="cls-7" d="M38.26,34.89,2.89,19.35,10.2,2.7,45.57,18.24l0-.06a2.45,2.45,0,0,0-1.26-3.24L10.82.21A2.46,2.46,0,0,0,7.58,1.47L.21,18.25a2.45,2.45,0,0,0,1.26,3.23L37.24,37.2Z"/><path class="cls-8" d="M21.13,47H83.35a0,0,0,0,1,0,0v54.5a5.5,5.5,0,0,1-5.5,5.5H26.63a5.5,5.5,0,0,1-5.5-5.5V47A0,0,0,0,1,21.13,47Z"/><rect class="cls-6" x="31.63" y="47" width="10.27" height="60"/><rect class="cls-9" x="49.58" y="47" width="21.16" height="60"/><path class="cls-6" d="M28.9,47H26.35v60H28.9Z"/><rect class="cls-10" x="26.35" y="107" width="51.78" height="2.22"/><rect class="cls-10" x="18.29" y="44.22" width="68.06" height="2.78" rx="1.28"/><path class="cls-10" d="M53.57,99.22V92.43a1.33,1.33,0,1,0-2.66,0v6.79a2.66,2.66,0,1,0,2.66,0Z"/><rect class="cls-11" x="39.21" y="93.72" width="15.69" height="2.67" rx="1.33"/><rect class="cls-12" x="19.13" y="57.89" width="66.22" height="2.97" rx="1.49"/><rect class="cls-12" x="19.13" y="85.3" width="66.22" height="2.97" rx="1.49"/></g></g></svg>